<?xml version="1.0" encoding="utf-8"?>
<!-- Generator: Adobe Illustrator 24.0.1, SVG Export Plug-In . SVG Version: 6.00 Build 0)  -->
<svg version="1.1" id="Слой_1" xmlns="http://www.w3.org/2000/svg" xmlns:xlink="http://www.w3.org/1999/xlink" x="0px" y="0px"
	 viewBox="0 0 1000 986.7" style="enable-background:new 0 0 1000 986.7;" xml:space="preserve">
<style type="text/css">
	.st0{fill:#B3E5FC;}
	.st1{fill:#272A33;}
	.st2{fill:#263238;}
	.st3{fill:#1C1E25;}
	.st4{fill:#FFFFFF;}
	.st5{fill:#0D3953;}
	.st6{fill:#00B1C3;}
	.st7{fill:#95C11F;}
	.st8{fill:#E56B63;}
	.st9{fill:#F9B233;}
	.st10{opacity:0.5;fill:#FFFFFF;enable-background:new    ;}
	.st11{fill:#404554;}
	.st12{fill:#2A2D36;}
	.st13{fill:#C6C6C6;}
	.st14{fill:#F50057;}
	.st15{fill:#90A4AE;}
</style>
<title>db</title>
<g>
	
		<image style="overflow:visible;opacity:0.3;" width="1023" height="1023" xlink:href="65C977BE5AD5FB72.png"  transform="matrix(1 0 0 1 16 8.74)">
	</image>
	<g>
		<circle class="st0" cx="527.6" cy="520.4" r="451"/>
	</g>
</g>
<rect x="435.9" y="709.5" class="st1" width="207.8" height="76.5"/>
<path class="st2" d="M941.5,700.2c0,10.2-8.3,18.5-18.5,18.5H156.5c-10.2,0-18.5-8.2-18.5-18.4c0,0,0,0,0,0V161.5
	c0-10.2,8.3-18.5,18.5-18.4c0,0,0,0,0,0h766.6c10.2,0,18.5,8.3,18.5,18.5L941.5,700.2z"/>
<path class="st3" d="M898.7,661.5c0,8.7-7.1,15.8-15.8,15.8c0,0,0,0,0,0H196.7c-8.7,0-15.8-7.1-15.8-15.8c0,0,0,0,0,0V200.2
	c0-8.7,7.1-15.8,15.8-15.8h686.1c8.7,0,15.8,7.1,15.8,15.8V661.5z"/>
<path class="st0" d="M888.9,652.8c0,8.4-6.8,15.2-15.2,15.2c0,0,0,0,0,0H205.9c-8.4,0-15.2-6.8-15.2-15.2c0,0,0,0,0,0V208.9
	c0-8.4,6.8-15.2,15.2-15.2c0,0,0,0,0,0h667.8c8.4,0,15.2,6.8,15.2,15.2V652.8z"/>
<rect x="250.3" y="204.7" class="st4" width="579" height="452.4"/>
<rect x="250.3" y="204.7" class="st5" width="579" height="34.9"/>
<path class="st6" d="M763.6,229.4c0,2.4-2,4.4-4.4,4.4h-14.5c-2.4,0-4.4-2-4.4-4.4v-14.5c0-2.4,2-4.4,4.4-4.4h14.5
	c2.4,0,4.4,2,4.4,4.4V229.4z"/>
<path class="st6" d="M791.1,229.4c0,2.4-2,4.4-4.4,4.4h-14.5c-2.4,0-4.4-2-4.4-4.4v-14.5c0-2.4,2-4.4,4.4-4.4h14.5
	c2.4,0,4.4,2,4.4,4.4V229.4z"/>
<path class="st6" d="M818.5,229.4c0,2.4-2,4.4-4.4,4.4h-14.5c-2.4,0-4.4-2-4.4-4.4v-14.5c0-2.4,2-4.4,4.4-4.4h14.5
	c2.4,0,4.4,2,4.4,4.4V229.4z"/>
<rect x="250.3" y="239.6" class="st6" width="579" height="6.3"/>
<rect x="280.5" y="266.5" class="st7" width="317.5" height="6.3"/>
<rect x="280.5" y="278.3" class="st8" width="68.3" height="6.3"/>
<rect x="280.5" y="289.5" class="st9" width="40" height="6.3"/>
<rect x="280.5" y="300.6" class="st5" width="254.6" height="6.3"/>
<rect x="280.5" y="313.5" class="st6" width="317.5" height="6.3"/>
<rect x="280.5" y="325.4" class="st6" width="338.4" height="6.3"/>
<rect x="280.5" y="336.5" class="st6" width="303.1" height="6.3"/>
<rect x="280.5" y="347.6" class="st5" width="98.1" height="6.3"/>
<polygon class="st6" points="417.3,366.2 349,367.5 348.8,361.2 417.1,359.9 "/>
<rect x="348.9" y="372.4" class="st6" width="303.1" height="6.3"/>
<rect x="348.9" y="383.5" class="st9" width="40" height="6.3"/>
<rect x="348.9" y="394.7" class="st5" width="254.6" height="6.3"/>
<rect x="378.6" y="407.6" class="st6" width="219.4" height="6.3"/>
<rect x="378.6" y="419.4" class="st6" width="207" height="6.3"/>
<rect x="378.6" y="430.6" class="st6" width="121.1" height="6.3"/>
<rect x="378.6" y="441.7" class="st6" width="175.9" height="6.3"/>
<rect x="280.5" y="454.6" class="st6" width="317.5" height="6.3"/>
<rect x="280.5" y="466.5" class="st6" width="265.7" height="6.3"/>
<rect x="280.5" y="477.6" class="st6" width="155.4" height="6.3"/>
<rect x="280.5" y="488.7" class="st6" width="254.6" height="6.3"/>
<rect x="280.5" y="501.7" class="st7" width="136.8" height="6.3"/>
<rect x="280.5" y="513.5" class="st8" width="68.3" height="6.3"/>
<rect x="280.5" y="524.6" class="st9" width="40" height="6.3"/>
<rect x="280.5" y="535.8" class="st5" width="98.1" height="6.3"/>
<rect x="355.5" y="548.7" class="st6" width="317.5" height="6.3"/>
<rect x="355.5" y="560.5" class="st6" width="303.1" height="6.3"/>
<rect x="355.5" y="571.7" class="st6" width="177.3" height="6.3"/>
<rect x="355.5" y="582.8" class="st6" width="254.6" height="6.3"/>
<rect x="280.5" y="595.7" class="st6" width="317.5" height="6.3"/>
<rect x="280.5" y="607.6" class="st8" width="68.3" height="6.3"/>
<rect x="280.5" y="618.7" class="st9" width="40" height="6.3"/>
<rect x="280.5" y="629.8" class="st8" width="62.8" height="6.3"/>
<path class="st10" d="M165.3,155.2c-9.8,0-17.8,8-17.8,17.8c0,0,0,0,0,0v518.7c0,9.8,8,17.8,17.8,17.8c0,0,0,0,0,0h738.2
	c9.8,0,17.8-8,17.8-17.8c0,0,0,0,0,0L165.3,155.2z"/>
<polygon class="st11" points="716,797.7 363.5,797.7 406.8,771.4 668.5,771.4 "/>
<rect x="363.5" y="797.7" class="st12" width="352.5" height="20.5"/>
<path class="st2" d="M113.8,962.1h800.5l0.4,14.5c-5.1,9.7-17,8.4-41.4,8.1H149.7C149.7,984.7,111.8,985.8,113.8,962.1z"/>
<path class="st13" d="M914.7,960.5L820,852.1c-3.6-4.7-12.8-6-21.5-6H221.4c-8.7,0-16.9,1-23.1,6l-81,108.3L914.7,960.5z"/>
<path class="st4" d="M245.5,861.1c4.2-3.4,9.7-4.1,15.6-4.1h508.6c5.9,0,12,0.9,14.5,4.1l61.7,70.2c0,2.2,3.2,15.7-19,15.7H218.5
	c-33.6,0-24.9-14.2-24.9-16.4L245.5,861.1z"/>
<path class="st13" d="M284.1,878.7h-26.3l10.6-13.8h25.1C289.8,870.3,287.9,873.1,284.1,878.7z"/>
<path class="st13" d="M318.2,878.7h-26.2c3.6-5.5,5.4-8.3,9.1-13.8h25.1C322.9,870.3,321.4,873.1,318.2,878.7z"/>
<path class="st13" d="M308.6,862.2h-38.2c1.6-2.1,2.4-3.1,3.9-5.2h37.5C310.6,859.1,309.9,860.1,308.6,862.2z"/>
<path class="st13" d="M353.4,862.2h-38.2l3.2-5.2h37.5L353.4,862.2z"/>
<path class="st13" d="M398.1,862.2h-38.2c1-2.1,1.5-3.1,2.4-5.2h37.5C399.2,859.1,398.8,860.1,398.1,862.2z"/>
<path class="st13" d="M442.9,862.2h-38.2c0.7-2.1,1-3.1,1.6-5.2h37.5C443.5,859.1,443.2,860.1,442.9,862.2z"/>
<path class="st13" d="M487.6,862.2h-38.2c0.4-2.1,0.5-3.1,0.9-5.2h37.5C487.7,859.1,487.7,860.1,487.6,862.2z"/>
<path class="st13" d="M532.3,862.2h-38.2c0-2.1,0.1-3.1,0.1-5.2h37.5C532,859.1,532.1,860.1,532.3,862.2z"/>
<path class="st13" d="M577.1,862.2h-38.2c-0.3-2.1-0.4-3.1-0.7-5.2h37.5C576.3,859.1,576.6,860.1,577.1,862.2z"/>
<path class="st13" d="M621.8,862.2h-38.2c-0.6-2.1-0.8-3.1-1.4-5.2h37.5C620.6,859.1,621,860.1,621.8,862.2z"/>
<path class="st13" d="M666.6,862.2h-38.2c-0.9-2.1-1.3-3.1-2.2-5.2h37.5C664.9,859.1,665.5,860.1,666.6,862.2z"/>
<path class="st13" d="M711.3,862.2h-38.2c-1.2-2.1-1.8-3.1-2.9-5.2h37.5C709.2,859.1,709.9,860.1,711.3,862.2z"/>
<path class="st13" d="M761.3,862.2h-43.4c-1.5-2.1-2.2-3.1-3.7-5.2h42.6C758.6,859.1,759.5,860.1,761.3,862.2z"/>
<path class="st13" d="M352.2,878.7H326l7.6-13.8h25.1C356.1,870.3,354.8,873.1,352.2,878.7z"/>
<path class="st13" d="M386.3,878.7H360c2.4-5.5,3.7-8.3,6.1-13.8h25.1C389.3,870.3,388.3,873.1,386.3,878.7z"/>
<path class="st13" d="M420.3,878.7h-26.3c1.9-5.5,2.8-8.3,4.6-13.8h25.1C422.4,870.3,421.7,873.1,420.3,878.7z"/>
<path class="st13" d="M454.4,878.7h-26.3c1.3-5.5,1.9-8.3,3.2-13.8h25.1C455.6,870.3,455.2,873.1,454.4,878.7z"/>
<path class="st13" d="M488.4,878.7h-26.2c0.7-5.5,1-8.3,1.7-13.8H489C488.8,870.3,488.6,873.1,488.4,878.7z"/>
<path class="st13" d="M522.5,878.7h-26.3c0.1-5.5,0.1-8.3,0.2-13.8h25.1C521.9,870.3,522.1,873.1,522.5,878.7z"/>
<path class="st13" d="M556.5,878.7h-26.3c-0.5-5.5-0.8-8.3-1.3-13.8h25.1C555.1,870.3,555.6,873.1,556.5,878.7z"/>
<path class="st13" d="M590.6,878.7h-26.3c-1.1-5.5-1.6-8.3-2.7-13.8h25.1C588.3,870.3,589,873.1,590.6,878.7z"/>
<path class="st13" d="M271.6,897.1h-27.8l10.6-13.8H281C277.2,888.8,275.3,891.6,271.6,897.1z"/>
<path class="st13" d="M307.6,897.1h-27.8l9.1-13.8h26.6L307.6,897.1z"/>
<path class="st13" d="M343.6,897.1h-27.8l7.6-13.8h26.6L343.6,897.1z"/>
<path class="st13" d="M379.6,897.1h-27.8c2.5-5.5,3.7-8.3,6.1-13.8h26.6L379.6,897.1z"/>
<path class="st13" d="M415.6,897.1h-27.8c1.9-5.5,2.8-8.3,4.6-13.8h26.6C417.8,888.8,417,891.6,415.6,897.1z"/>
<path class="st13" d="M451.7,897.1h-27.8c1.3-5.5,1.9-8.3,3.2-13.8h26.7C452.9,888.8,452.5,891.6,451.7,897.1z"/>
<path class="st13" d="M487.7,897.1h-27.8l1.7-13.8h26.6C488,888.8,487.9,891.6,487.7,897.1z"/>
<path class="st13" d="M523.7,897.1h-27.8c0.1-5.5,0.1-8.3,0.2-13.8h26.7C523.2,888.8,523.3,891.6,523.7,897.1z"/>
<path class="st13" d="M559.7,897.1H532c-0.5-5.5-0.8-8.3-1.2-13.8h26.6C558.3,888.8,558.8,891.6,559.7,897.1z"/>
<path class="st13" d="M595.7,897.1h-27.8c-1.1-5.5-1.6-8.3-2.7-13.8h26.7C593.4,888.8,594.2,891.6,595.7,897.1z"/>
<path class="st13" d="M259,915.6h-29.3l10.6-13.8h28.2L259,915.6z"/>
<path class="st13" d="M297,915.6h-29.3l9.1-13.8h28.2L297,915.6z"/>
<path class="st13" d="M335,915.6h-29.3l7.6-13.8h28.2C338.9,907.2,337.6,910,335,915.6z"/>
<path class="st13" d="M373,915.6h-29.3c2.5-5.5,3.7-8.3,6.1-13.8H378C376,907.2,375,910,373,915.6z"/>
<path class="st13" d="M411,915.6h-29.3c1.9-5.5,2.8-8.3,4.6-13.8h28.2C413.1,907.2,412.4,910,411,915.6z"/>
<path class="st13" d="M449,915.6h-29.4c1.3-5.5,1.9-8.3,3.2-13.8H451C450.2,907.2,449.8,910,449,915.6z"/>
<path class="st13" d="M486.9,915.6h-29.3l1.7-13.8h28.2C487.3,907.2,487.1,910,486.9,915.6z"/>
<path class="st13" d="M524.9,915.6h-29.3c0.1-5.5,0.1-8.3,0.2-13.8H524C524.4,907.2,524.5,910,524.9,915.6z"/>
<path class="st13" d="M562.9,915.6h-29.3l-1.2-13.8h28.2C561.5,907.2,561.9,910,562.9,915.6z"/>
<path class="st13" d="M600.9,915.6h-29.3c-1.1-5.5-1.6-8.3-2.7-13.8H597C598.6,907.2,599.3,910,600.9,915.6z"/>
<path class="st13" d="M246.5,934h-30.8c4.2-5.5,6.3-8.3,10.5-13.8h29.7L246.5,934z"/>
<path class="st13" d="M286.4,934h-30.8l9.1-13.8h29.7L286.4,934z"/>
<path class="st13" d="M326.4,934h-30.8c3-5.5,4.6-8.3,7.6-13.8h29.7L326.4,934z"/>
<path class="st13" d="M366.2,934.4h-30.9c2.5-5.7,3.8-8.6,6.3-14.3h29.7L366.2,934.4z"/>
<path class="st13" d="M606,934H375.5c1.9-5.5,2.8-8.3,4.6-13.8h222.1C603.7,925.7,604.5,928.5,606,934z"/>
<path class="st13" d="M621.4,878.7h-26.3c-1.6-5.5-2.4-8.3-4.1-13.8h25.1C618.3,870.3,619.3,873.1,621.4,878.7z"/>
<path class="st13" d="M628.3,897.1h-27.8l-4-13.8h26.7C625.2,888.8,626.2,891.6,628.3,897.1z"/>
<path class="st13" d="M635.2,915.6h-29.3c-1.6-5.5-2.4-8.3-4.1-13.8h28.2C632.1,907.2,633.2,910,635.2,915.6z"/>
<path class="st13" d="M642.2,934h-30.8c-1.6-5.5-2.4-8.3-4.1-13.8H637C639.1,925.7,640.1,928.5,642.2,934z"/>
<path class="st13" d="M652.2,878.7h-26.3l-5.4-13.8h25.1C648.3,870.3,649.6,873.1,652.2,878.7z"/>
<path class="st13" d="M660.9,897.1h-27.8c-2.2-5.5-3.2-8.3-5.4-13.8h26.7L660.9,897.1z"/>
<path class="st13" d="M669.6,915.6h-29.3c-2.2-5.5-3.2-8.3-5.4-13.8h28.2C665.7,907.2,667,910,669.6,915.6z"/>
<path class="st13" d="M678.3,934h-30.8l-5.4-13.8h29.7C674.4,925.7,675.7,928.5,678.3,934z"/>
<path class="st13" d="M683,878.7h-26.3c-2.7-5.5-4-8.3-6.7-13.8h25.1L683,878.7z"/>
<path class="st13" d="M693.5,897.1h-27.8c-2.7-5.5-4-8.3-6.7-13.8h26.7C688.8,888.8,690.3,891.6,693.5,897.1z"/>
<path class="st13" d="M704,915.6h-29.3l-6.7-13.8h28.2L704,915.6z"/>
<path class="st13" d="M714.5,934h-30.8c-2.7-5.5-4-8.3-6.7-13.8h29.7L714.5,934z"/>
<path class="st13" d="M713.8,878.7h-26.3l-8.1-13.8h25.1L713.8,878.7z"/>
<path class="st13" d="M726.1,897.1h-27.8l-8-13.8h26.7C720.5,888.8,722.4,891.6,726.1,897.1z"/>
<path class="st13" d="M738.3,915.6H709c-3.2-5.5-4.8-8.3-8.1-13.8h28.2L738.3,915.6z"/>
<path class="st13" d="M750.6,934h-30.8c-3.2-5.5-4.8-8.3-8.1-13.8h29.7C745.1,925.7,746.9,928.5,750.6,934z"/>
<path class="st13" d="M744.6,878.7h-26.3c-3.8-5.5-5.6-8.3-9.4-13.8h25.1L744.6,878.7z"/>
<path class="st13" d="M758.6,897.1h-27.8l-9.4-13.8h26.7L758.6,897.1z"/>
<path class="st13" d="M772.7,915.6h-29.3c-3.8-5.5-5.6-8.3-9.4-13.8h28.2L772.7,915.6z"/>
<path class="st13" d="M786.7,934h-30.8c-3.8-5.5-5.6-8.3-9.4-13.8h29.7L786.7,934z"/>
<path class="st13" d="M775.4,878.7h-26.3l-10.7-13.8h25.1C768.3,870.3,770.7,873.1,775.4,878.7z"/>
<path class="st13" d="M791.2,897.1h-27.8l-10.7-13.8h26.7L791.2,897.1z"/>
<path class="st13" d="M807,915.6h-29.3L767,901.7h28.2L807,915.6z"/>
<path class="st13" d="M822.8,934H792l-10.7-13.8H811L822.8,934z"/>
<rect x="148.2" y="569.6" transform="matrix(0.5744 -0.8186 0.8186 0.5744 -409.382 399.056)" class="st4" width="61.8" height="47.2"/>
<path class="st14" d="M75.8,798.7C39.4,811.8,21.1,799,21,760.2c45.3-45.1,82.3-97.8,109.2-155.7c36.5-13.1,54.8-0.3,54.8,38.5
	C139.8,688.1,102.8,740.8,75.8,798.7z"/>
<path class="st15" d="M170.6,603.8c-9.1-5.9-22.6-5.7-40.3,0.7c-27,57.9-64,110.6-109.2,155.7c0,18.9,4.4,31.6,13.1,38.2
	L170.6,603.8z"/>
<path class="st10" d="M382.1,527.4c-40.7,58-120.8,72.1-178.8,31.4c-58-40.7-72.1-120.8-31.4-178.8s120.8-72.1,178.8-31.4
	c0,0,0,0,0,0C408.8,389.2,422.9,469.3,382.1,527.4C382.2,527.4,382.2,527.4,382.1,527.4z"/>
<path class="st10" d="M249.5,512.7c-8.9-47.9,7.1-96.5,39.4-132.3c13.9-15.5,30.9-29.7,49.7-39.5c-62.2-34-140.2-11.1-174.2,51.1
	s-11.1,140.2,51.1,174.2c21.7,11.9,46.5,17.2,71.2,15.3C268.4,562.3,254.4,539.6,249.5,512.7z"/>
<path class="st5" d="M369.8,321.5C296.8,270.3,196.2,288,145,360.9s-33.6,173.6,39.4,224.8c72.9,51.2,173.6,33.6,224.8-39.4
	C460.3,473.3,442.7,372.7,369.8,321.5C369.8,321.5,369.8,321.5,369.8,321.5z M203.3,558.7c-58-40.7-72.1-120.8-31.3-178.9
	s120.8-72.1,178.9-31.3c58,40.7,72.1,120.8,31.3,178.9C341.4,585.4,261.4,599.4,203.3,558.7C203.3,558.7,203.3,558.7,203.3,558.7z"
	/>
<path class="st15" d="M369.8,321.5C296.8,270.3,196.2,288,145,360.9s-33.6,173.6,39.4,224.8c72.9,51.2,173.6,33.6,224.8-39.4
	C460.3,473.3,442.7,372.7,369.8,321.5C369.8,321.5,369.8,321.5,369.8,321.5z M192.4,574.2c-66.6-46.8-82.8-138.7-36-205.3
	s138.7-82.8,205.3-36s82.8,138.7,36,205.3c0,0,0,0,0,0C351,604.9,259,621,192.4,574.2z"/>
</svg>
