<svg xmlns="http://www.w3.org/2000/svg" viewBox="0 0 40.23 50"><defs><style>.cls-1{isolation:isolate;}.cls-2{fill:#40c4ff;}.cls-3{mix-blend-mode:soft-light;}.cls-4{fill:#fff;}.cls-5{fill:none;stroke:#fff;stroke-miterlimit:10;}</style></defs><title>file</title><g class="cls-1"><g id="Слой_1" data-name="Слой 1"><path class="cls-2" d="M0,19.11V46.46A3.6,3.6,0,0,0,3.64,50h33a3.6,3.6,0,0,0,3.64-3.54V19.11Z"/><path class="cls-2" d="M40.23,20.23V13.4L26.8.19H3.64A3.6,3.6,0,0,0,0,3.73v16.5Z"/><path class="cls-3" d="M26.8.19l-1.38,12.2a3.6,3.6,0,0,0,3.64,3.53L40.23,13.4Z"/><path class="cls-4" d="M26.83.19V9.85a3.61,3.61,0,0,0,3.64,3.54h9.76Z"/><line class="cls-5" x1="6.22" y1="27.86" x2="33.77" y2="27.86"/><line class="cls-5" x1="6.22" y1="32.32" x2="33.77" y2="32.32"/><line class="cls-5" x1="6.22" y1="36.79" x2="33.77" y2="36.79"/><line class="cls-5" x1="6.22" y1="41.25" x2="33.77" y2="41.25"/><rect class="cls-4" y="19.11" width="40.23" height="1.12"/></g></g></svg>