<?xml version="1.0" encoding="utf-8"?>
<!-- Generator: Adobe Illustrator 24.0.1, SVG Export Plug-In . SVG Version: 6.00 Build 0)  -->
<svg version="1.1" id="Capa_1" xmlns="http://www.w3.org/2000/svg" xmlns:xlink="http://www.w3.org/1999/xlink" x="0px" y="0px"
	 viewBox="0 0 1000 1000" style="enable-background:new 0 0 1000 1000;" xml:space="preserve">
<style type="text/css">
	.st0{fill:#B3E5FC;}
	.st1{fill:#263238;}
</style>
<title>scrypt</title>
<g>
	
		<image style="overflow:visible;opacity:0.3;" width="1022" height="1022" xlink:href="226B6E2083A8F3F6.png"  transform="matrix(1 0 0 1 -11 37)">
	</image>
	<g>
		<circle class="st0" cx="500" cy="548" r="451"/>
	</g>
</g>
<g>
	<path class="st1" d="M70.2,524.5l21.1,7.1v11.8l-34.1-13.9v-10.3l34.1-13.9v11.8L70.2,524.5z"/>
	<path class="st1" d="M121.2,536.3c0-1.1-0.6-2-1.7-2.7c-1.2-0.7-3.4-1.4-6.6-2.1s-5.9-1.7-8-2.8c-2.1-1.2-3.7-2.6-4.8-4.3
		c-1.1-1.7-1.7-3.6-1.7-5.7c0-3.8,1.6-7,4.7-9.5s7.3-3.7,12.4-3.7c5.5,0,9.9,1.2,13.3,3.7c3.3,2.5,5,5.8,5,9.8h-13
		c0-3.3-1.8-5-5.3-5c-1.4,0-2.5,0.4-3.4,1.1c-0.9,0.8-1.4,1.7-1.4,2.8c0,1.2,0.6,2.1,1.7,2.8c1.1,0.7,2.9,1.3,5.4,1.8
		c2.5,0.5,4.7,1,6.5,1.7c6.3,2.2,9.4,6,9.4,11.6c0,3.8-1.7,6.9-5.1,9.3c-3.4,2.4-7.8,3.6-13.1,3.6c-3.6,0-6.8-0.6-9.6-1.9
		c-2.8-1.3-5-3-6.6-5.2c-1.6-2.2-2.4-4.5-2.4-7h12.2c0.1,1.9,0.7,3.3,1.9,4.2c1.2,0.9,2.8,1.3,4.7,1.3c1.8,0,3.1-0.4,4-1.1
		C120.8,538.4,121.2,537.4,121.2,536.3z"/>
	<path class="st1" d="M157.5,538.7c1.8,0,3.2-0.5,4.2-1.5c1-1,1.5-2.4,1.5-4.1h12.2c0,4.6-1.6,8.3-4.9,11.3
		c-3.3,2.9-7.5,4.4-12.7,4.4c-6.1,0-10.9-1.9-14.3-5.7c-3.5-3.8-5.2-9.1-5.2-15.8v-0.5c0-4.2,0.8-7.9,2.3-11.2
		c1.6-3.2,3.8-5.7,6.7-7.4c2.9-1.7,6.4-2.6,10.4-2.6c5.4,0,9.7,1.5,12.9,4.5c3.2,3,4.8,7.1,4.8,12.2h-12.2c0-2.2-0.5-3.8-1.6-5
		c-1.1-1.2-2.5-1.7-4.2-1.7c-3.4,0-5.3,2.1-5.9,6.4c-0.2,1.4-0.3,3.2-0.3,5.6c0,4.2,0.5,7.1,1.5,8.7
		C153.7,537.9,155.3,538.7,157.5,538.7z"/>
	<path class="st1" d="M206.1,518l-4.3-0.3c-4.1,0-6.7,1.3-7.9,3.9V548h-13v-41.7h12.2l0.4,5.4c2.2-4.1,5.2-6.1,9.1-6.1
		c1.4,0,2.6,0.2,3.6,0.5L206.1,518z"/>
	<path class="st1" d="M228.8,529.8l6.9-23.5h13.9l-17,48.7l-0.7,1.8c-2.4,5.4-6.7,8.1-12.8,8.1c-1.7,0-3.5-0.3-5.4-0.8v-9.3h1.7
		c1.8,0,3.2-0.3,4.2-0.8c1-0.5,1.7-1.5,2.1-2.8l1-2.8l-14.5-42.2h13.9L228.8,529.8z"/>
	<path class="st1" d="M291.8,527.4c0,6.5-1.5,11.7-4.4,15.5c-2.9,3.9-6.9,5.8-11.8,5.8c-3.8,0-7-1.4-9.5-4.2V564h-13v-57.8h12.2
		l0.4,3.9c2.5-3.1,5.8-4.6,9.8-4.6c5.1,0,9.1,1.9,12,5.7c2.9,3.8,4.3,9,4.3,15.6V527.4z M278.8,526.6c0-7.4-2.2-11.1-6.5-11.1
		c-3.1,0-5.1,1.1-6.2,3.3v16.4c1.1,2.3,3.2,3.5,6.2,3.5c4.1,0,6.3-3.6,6.4-10.7V526.6z"/>
	<path class="st1" d="M312.6,495.9v10.4h6.9v9h-6.9v19.1c0,1.6,0.3,2.7,0.8,3.3c0.6,0.6,1.7,0.9,3.4,0.9c1.3,0,2.4-0.1,3.2-0.2v9.3
		c-2.3,0.7-4.8,1.1-7.3,1.1c-4.5,0-7.8-1.1-9.9-3.2c-2.1-2.1-3.2-5.3-3.2-9.6v-20.7h-5.3v-9h5.3v-10.4H312.6z"/>
	<path class="st1" d="M366.1,536.3c0-1.1-0.6-2-1.7-2.7c-1.2-0.7-3.4-1.4-6.6-2.1s-5.9-1.7-8-2.8c-2.1-1.2-3.7-2.6-4.8-4.3
		c-1.1-1.7-1.7-3.6-1.7-5.7c0-3.8,1.6-7,4.7-9.5s7.3-3.7,12.4-3.7c5.5,0,9.9,1.2,13.3,3.7c3.3,2.5,5,5.8,5,9.8h-13
		c0-3.3-1.8-5-5.3-5c-1.4,0-2.5,0.4-3.4,1.1c-0.9,0.8-1.4,1.7-1.4,2.8c0,1.2,0.6,2.1,1.7,2.8c1.1,0.7,2.9,1.3,5.4,1.8
		c2.5,0.5,4.7,1,6.5,1.7c6.3,2.2,9.4,6,9.4,11.6c0,3.8-1.7,6.9-5.1,9.3c-3.4,2.4-7.8,3.6-13.1,3.6c-3.6,0-6.8-0.6-9.6-1.9
		c-2.8-1.3-5-3-6.6-5.2c-1.6-2.2-2.4-4.5-2.4-7h12.2c0.1,1.9,0.7,3.3,1.9,4.2c1.2,0.9,2.8,1.3,4.7,1.3c1.8,0,3.1-0.4,4-1.1
		C365.7,538.4,366.1,537.4,366.1,536.3z"/>
	<path class="st1" d="M410,518l-4.3-0.3c-4.1,0-6.7,1.3-7.9,3.9V548h-13v-41.7H397l0.4,5.4c2.2-4.1,5.2-6.1,9.1-6.1
		c1.4,0,2.6,0.2,3.6,0.5L410,518z"/>
	<path class="st1" d="M432.4,538.7c1.8,0,3.2-0.5,4.2-1.5c1-1,1.5-2.4,1.5-4.1h12.2c0,4.6-1.6,8.3-4.9,11.3
		c-3.3,2.9-7.5,4.4-12.7,4.4c-6.1,0-10.9-1.9-14.3-5.7c-3.5-3.8-5.2-9.1-5.2-15.8v-0.5c0-4.2,0.8-7.9,2.3-11.2
		c1.6-3.2,3.8-5.7,6.7-7.4c2.9-1.7,6.4-2.6,10.4-2.6c5.4,0,9.7,1.5,12.9,4.5c3.2,3,4.8,7.1,4.8,12.2h-12.2c0-2.2-0.5-3.8-1.6-5
		c-1.1-1.2-2.5-1.7-4.2-1.7c-3.4,0-5.3,2.1-5.9,6.4c-0.2,1.4-0.3,3.2-0.3,5.6c0,4.2,0.5,7.1,1.5,8.7
		C428.6,537.9,430.2,538.7,432.4,538.7z"/>
	<path class="st1" d="M512.5,520.1h-35.7v-10h35.7V520.1z M512.5,537.1h-35.7v-10h35.7V537.1z"/>
	<path class="st1" d="M549.8,528.1l8.9,15.4h-7.9l-10.5-15v-0.7l10.5-15h7.9L549.8,528.1z M565.7,528.1l8.9,15.4h-7.9l-10.5-15v-0.7
		l10.5-15h7.9L565.7,528.1z"/>
	<path class="st1" d="M594.8,510.7c2.8-3.5,6.3-5.2,10.6-5.2c4.6,0,8.1,1.4,10.4,4.1c2.3,2.7,3.5,6.8,3.6,12.1V548h-13v-26
		c0-2.2-0.5-3.8-1.3-4.9c-0.9-1-2.4-1.6-4.6-1.6c-2.7,0-4.6,0.8-5.7,2.5V548h-13v-59.2h13V510.7z"/>
	<path class="st1" d="M646.8,548.8c-6.4,0-11.6-1.9-15.5-5.7c-4-3.8-5.9-8.8-5.9-14.9v-1.1c0-4.3,0.8-8,2.4-11.3
		c1.6-3.3,3.9-5.8,6.9-7.6c3-1.8,6.6-2.7,10.8-2.7c5.9,0,10.5,1.8,13.9,5.5c3.4,3.6,5.1,8.7,5.1,15.2v5.1h-25.8
		c0.5,2.3,1.5,4.2,3,5.5c1.6,1.3,3.6,2,6.1,2c4.1,0,7.3-1.4,9.6-4.3l5.9,7c-1.6,2.2-3.9,4-6.9,5.3
		C653.5,548.1,650.3,548.8,646.8,548.8z M645.4,515.5c-3.8,0-6.1,2.5-6.8,7.6h13.1v-1c0.1-2.1-0.5-3.7-1.6-4.8
		C649,516.1,647.4,515.5,645.4,515.5z"/>
	<path class="st1" d="M683.4,548h-13v-59.2h13V548z"/>
	<path class="st1" d="M730.1,527.4c0,6.5-1.5,11.7-4.4,15.5c-2.9,3.9-6.9,5.8-11.8,5.8c-3.8,0-7-1.4-9.5-4.2V564h-13v-57.8h12.2
		l0.4,3.9c2.5-3.1,5.8-4.6,9.8-4.6c5.1,0,9.1,1.9,12,5.7c2.9,3.8,4.3,9,4.3,15.6V527.4z M717.1,526.6c0-7.4-2.2-11.1-6.5-11.1
		c-3.1,0-5.1,1.1-6.2,3.3v16.4c1.1,2.3,3.2,3.5,6.2,3.5c4.1,0,6.3-3.6,6.4-10.7V526.6z"/>
	<path class="st1" d="M752,529.8l6.9-23.5h13.9l-17,48.7l-0.7,1.8c-2.4,5.4-6.7,8.1-12.8,8.1c-1.7,0-3.5-0.3-5.4-0.8v-9.3h1.7
		c1.8,0,3.2-0.3,4.2-0.8c1-0.5,1.7-1.5,2.1-2.8l1-2.8l-14.5-42.2h13.9L752,529.8z"/>
	<path class="st1" d="M779.4,535.4c2.1,0,3.8,0.6,5.1,1.8s2,2.8,2,4.7c0,1.9-0.7,3.5-2,4.7c-1.4,1.2-3.1,1.8-5.1,1.8
		c-2.1,0-3.8-0.6-5.1-1.9s-2-2.8-2-4.7c0-1.9,0.7-3.4,2-4.7S777.3,535.4,779.4,535.4z"/>
	<path class="st1" d="M809.2,506.3v43.2c0,4.9-1.4,8.7-4.2,11.4c-2.8,2.7-6.7,4-11.7,4c-2.2,0-4.2-0.2-6.1-0.7v-9.8
		c1.5,0.2,2.7,0.3,3.7,0.3c3.6,0,5.4-1.8,5.4-5.4v-43.1H809.2z M795.2,495.5c0-1.9,0.7-3.4,2-4.6c1.3-1.2,3.1-1.8,5.2-1.8
		s3.9,0.6,5.2,1.8c1.3,1.2,2,2.7,2,4.6s-0.7,3.4-2,4.6c-1.3,1.2-3.1,1.8-5.2,1.8s-3.9-0.6-5.2-1.8
		C795.9,498.9,795.2,497.4,795.2,495.5z"/>
	<path class="st1" d="M838.4,536.3c0-1.1-0.6-2-1.7-2.7c-1.2-0.7-3.4-1.4-6.6-2.1s-5.9-1.7-8-2.8c-2.1-1.2-3.7-2.6-4.8-4.3
		s-1.7-3.6-1.7-5.7c0-3.8,1.6-7,4.7-9.5c3.2-2.5,7.3-3.7,12.4-3.7c5.5,0,9.9,1.2,13.3,3.7c3.3,2.5,5,5.8,5,9.8h-13
		c0-3.3-1.8-5-5.3-5c-1.4,0-2.5,0.4-3.4,1.1c-0.9,0.8-1.4,1.7-1.4,2.8c0,1.2,0.6,2.1,1.7,2.8c1.1,0.7,2.9,1.3,5.4,1.8s4.7,1,6.5,1.7
		c6.3,2.2,9.4,6,9.4,11.6c0,3.8-1.7,6.9-5.1,9.3c-3.4,2.4-7.8,3.6-13.1,3.6c-3.6,0-6.8-0.6-9.6-1.9c-2.8-1.3-5-3-6.6-5.2
		c-1.6-2.2-2.4-4.5-2.4-7h12.2c0.1,1.9,0.7,3.3,1.9,4.2c1.2,0.9,2.8,1.3,4.7,1.3c1.8,0,3.1-0.4,4-1.1
		C838,538.4,838.4,537.4,838.4,536.3z"/>
	<path class="st1" d="M864.4,512.7l10.5,15v0.7l-10.5,15h-8l8.9-15.4l-8.9-15.4H864.4z M880.3,512.7l10.5,15v0.7l-10.5,15h-8
		l8.9-15.4l-8.9-15.4H880.3z"/>
	<path class="st1" d="M919.3,524.4l-21-7.1v-11.8l33.9,13.9v10.3l-33.9,13.9v-11.8L919.3,524.4z"/>
	<path class="st1" d="M342.9,619.3l21.1,7.1v11.8l-34.1-13.9v-10.3l34.1-13.9V612L342.9,619.3z"/>
	<path class="st1" d="M376.5,647.6h-9.2l19.2-61h9.3L376.5,647.6z"/>
	<path class="st1" d="M421.6,631.1c0-1.1-0.6-2-1.7-2.7c-1.2-0.7-3.4-1.4-6.6-2.1s-5.9-1.7-8-2.8c-2.1-1.2-3.7-2.6-4.8-4.3
		c-1.1-1.7-1.7-3.6-1.7-5.7c0-3.8,1.6-7,4.7-9.5s7.3-3.7,12.4-3.7c5.5,0,9.9,1.2,13.3,3.7c3.3,2.5,5,5.8,5,9.8h-13
		c0-3.3-1.8-5-5.3-5c-1.4,0-2.5,0.4-3.4,1.1c-0.9,0.8-1.4,1.7-1.4,2.8c0,1.2,0.6,2.1,1.7,2.8c1.1,0.7,2.9,1.3,5.4,1.8
		c2.5,0.5,4.7,1,6.5,1.7c6.3,2.2,9.4,6,9.4,11.6c0,3.8-1.7,6.9-5.1,9.3c-3.4,2.4-7.8,3.6-13.1,3.6c-3.6,0-6.8-0.6-9.6-1.9
		c-2.8-1.3-5-3-6.6-5.2c-1.6-2.2-2.4-4.5-2.4-7h12.2c0.1,1.9,0.7,3.3,1.9,4.2c1.2,0.9,2.8,1.3,4.7,1.3c1.8,0,3.1-0.4,4-1.1
		C421.2,633.2,421.6,632.2,421.6,631.1z"/>
	<path class="st1" d="M457.9,633.5c1.8,0,3.2-0.5,4.2-1.5c1-1,1.5-2.4,1.5-4.1h12.2c0,4.6-1.6,8.3-4.9,11.3
		c-3.3,2.9-7.5,4.4-12.7,4.4c-6.1,0-10.9-1.9-14.3-5.7c-3.5-3.8-5.2-9.1-5.2-15.8v-0.5c0-4.2,0.8-7.9,2.3-11.2
		c1.6-3.2,3.8-5.7,6.7-7.4c2.9-1.7,6.4-2.6,10.4-2.6c5.4,0,9.7,1.5,12.9,4.5c3.2,3,4.8,7.1,4.8,12.2h-12.2c0-2.2-0.5-3.8-1.6-5
		c-1.1-1.2-2.5-1.7-4.2-1.7c-3.4,0-5.3,2.1-5.9,6.4c-0.2,1.4-0.3,3.2-0.3,5.6c0,4.2,0.5,7.1,1.5,8.7
		C454.1,632.7,455.7,633.5,457.9,633.5z"/>
	<path class="st1" d="M506.5,612.8l-4.3-0.3c-4.1,0-6.7,1.3-7.9,3.9v26.4h-13v-41.7h12.2l0.4,5.4c2.2-4.1,5.2-6.1,9.1-6.1
		c1.4,0,2.6,0.2,3.6,0.5L506.5,612.8z"/>
	<path class="st1" d="M529.2,624.6l6.9-23.5h13.9l-17,48.7l-0.7,1.8c-2.4,5.4-6.7,8.1-12.8,8.1c-1.7,0-3.5-0.3-5.4-0.8v-9.3h1.7
		c1.8,0,3.2-0.3,4.2-0.8c1-0.5,1.7-1.5,2.1-2.8l1-2.8l-14.5-42.2h13.9L529.2,624.6z"/>
	<path class="st1" d="M592.2,622.2c0,6.5-1.5,11.7-4.4,15.5c-2.9,3.9-6.9,5.8-11.8,5.8c-3.8,0-7-1.4-9.5-4.2v19.5h-13v-57.8h12.2
		l0.4,3.9c2.5-3.1,5.8-4.6,9.8-4.6c5.1,0,9.1,1.9,12,5.7c2.9,3.8,4.3,9,4.3,15.6V622.2z M579.2,621.4c0-7.4-2.2-11.1-6.5-11.1
		c-3.1,0-5.1,1.1-6.2,3.3v16.4c1.1,2.3,3.2,3.5,6.2,3.5c4.1,0,6.3-3.6,6.4-10.7V621.4z"/>
	<path class="st1" d="M613.1,590.7v10.4h6.9v9h-6.9v19.1c0,1.6,0.3,2.7,0.8,3.3s1.7,0.9,3.4,0.9c1.3,0,2.4-0.1,3.2-0.2v9.3
		c-2.3,0.7-4.8,1.1-7.3,1.1c-4.5,0-7.8-1.1-9.9-3.2c-2.1-2.1-3.2-5.3-3.2-9.6v-20.7h-5.3v-9h5.3v-10.4H613.1z"/>
	<path class="st1" d="M646.7,619.2l-21-7.1v-11.8l33.9,13.9v10.3l-33.9,13.9v-11.8L646.7,619.2z"/>
</g>
</svg>
