<?xml version="1.0" encoding="utf-8"?>
<!-- Generator: Adobe Illustrator 24.0.1, SVG Export Plug-In . SVG Version: 6.00 Build 0)  -->
<svg version="1.1" id="New_Layer" xmlns="http://www.w3.org/2000/svg" xmlns:xlink="http://www.w3.org/1999/xlink" x="0px" y="0px"
	 viewBox="0 0 1000 1000" style="enable-background:new 0 0 1000 1000;" xml:space="preserve">
<style type="text/css">
	.st0{fill-rule:evenodd;clip-rule:evenodd;fill:#B3E5FC;}
	.st1{fill-rule:evenodd;clip-rule:evenodd;fill:#DCE6EA;}
	.st2{fill-rule:evenodd;clip-rule:evenodd;fill:#FFFFFF;}
	.st3{fill-rule:evenodd;clip-rule:evenodd;fill:#E55B2C;}
	.st4{fill-rule:evenodd;clip-rule:evenodd;fill:#F6E431;}
	.st5{fill-rule:evenodd;clip-rule:evenodd;fill:#E6B028;}
	.st6{fill:none;stroke:#474245;stroke-width:5.22;stroke-linecap:round;stroke-miterlimit:10;}
	.st7{fill-rule:evenodd;clip-rule:evenodd;fill:#AAAAAE;}
	.st8{fill-rule:evenodd;clip-rule:evenodd;fill:#24201F;}
	.st9{fill:none;stroke:#474245;stroke-width:4.36;stroke-linecap:round;stroke-miterlimit:10;}
	.st10{fill-rule:evenodd;clip-rule:evenodd;fill:#FADF33;}
</style>
<title>OMUNMO1</title>
<g>
	
		<image style="overflow:visible;opacity:0.3;" width="1023" height="1023" xlink:href="A438071ECF8C2CDD.png"  transform="matrix(1 0 0 1 -13 37)">
	</image>
	<g>
		<path class="st0" d="M498,97.4c-249.1,0-451,201.9-451,451s202,451,451,451s451-201.9,451-451S747.1,97.4,498,97.4"/>
	</g>
</g>
<path class="st1" d="M860.1,817.5c-0.7-37.2-31.3-66.7-68.5-66.1c-25.7,0.5-48.9,15.5-59.8,38.9c-23.9-21.3-60.6-19.1-81.9,4.8
	c-1.2,1.4-2.4,2.9-3.5,4.4c-33.5-13.5-71.7,2.7-85.2,36.2c-13.5,33.5,2.7,71.7,36.2,85.2c15,6,31.6,6.3,46.8,0.8
	c0,0.2-0.1,0.5-0.2,0.7c-3.4,17.1,0.4,34.9,10.7,49C736.7,941.1,808,887.6,860.1,817.5"/>
<path class="st1" d="M134.3,749.8c0-1.6-0.1-3.1-0.3-4.7c0.8,1.4,1.7,2.7,2.7,4.1C135.9,749.4,135.1,749.6,134.3,749.8z M194.4,844
	c25.9,13.7,58.1,3.9,71.9-22.1c13.7-25.9,3.9-58.1-22.1-71.9c-4.7-2.5-9.7-4.3-15-5.3c0.4-0.7,0.8-1.4,1.2-2
	c14.3-27,4-60.4-22.9-74.7c-15.1-8-33-8.6-48.5-1.6c-8.8-25.3-36.3-38.7-61.6-29.9c-4.9,1.7-9.5,4.1-13.6,7.3
	c-7.6-8.8-18.2-14.5-29.8-15.9c14.2,79.5,49.6,153.8,102.4,214.9c8.5-1.5,16.4-5.2,23-10.8C183.6,837,188.7,841,194.4,844"/>
<polyline class="st1" points="477.4,555.1 418.7,887.4 600.6,876.4 531.4,551.6 477.4,555.1 "/>
<path class="st1" d="M633,855.5c5.2-14.3-1-30.2-14.5-37.2c16.2-18.3,14.6-46.2-3.7-62.4s-46.2-14.6-62.4,3.7
	c-3.7,4.2-6.6,9-8.5,14.2c-0.9,2.5-1.6,5.1-2,7.7c-23-12.3-51.5-3.6-63.8,19.4c-11.5,21.4-4.7,48.1,15.5,61.5
	c-17.3,14.3-19.7,40-5.3,57.2c0.9,1,1.8,2,2.7,2.9c-1.5,2.5-2.7,5-3.7,7.7c-8.6,23.8,3.7,50.1,27.5,58.8
	c23.8,8.6,50.1-3.7,58.8-27.5c2.9-7.9,3.5-16.4,1.9-24.6l0.5,0.2c22.8,8.3,48.1-3.5,56.4-26.3c5.4-14.7,2.5-31.2-7.6-43.2
	C628.5,864.5,631.3,860.3,633,855.5"/>
<path class="st1" d="M890.7,645.4c-1.6,2.1-3,4.4-4.2,6.7c-1.6-1.6-3.2-3-5-4.3c-20.6-15.5-49.9-11.3-65.3,9.3
	c-12.9,17.2-12.4,41,1.3,57.6c-20.5,8.6-30.1,32.2-21.5,52.6c0.5,1.2,1.1,2.4,1.7,3.6c-18.5,16.9-19.8,45.6-2.9,64.1
	c10,10.9,24.6,16.3,39.2,14.4C889.2,788,926.5,712.4,941.6,631C923.3,623.8,902.4,629.7,890.7,645.4"/>
<path class="st1" d="M457,804.1c2.3-3.4,4.1-7.2,5.3-11.1c5.9-19.4-3.3-39.3-20.5-44.6c-15.6-4.7-32.4,4.2-39.8,20.4
	c-14.5-0.5-28.5,10.1-33.5,26.3c-4,13.2-0.9,26.6,7,35.3c-7.6,3.1-13.4,9.5-15.6,17.4c-4.1,13.5,2.3,27.4,14.3,31.1
	c1,0.3,2.1,0.5,3.2,0.7c0,0.1-0.1,0.2-0.1,0.3c-4.4,14.5,2.5,29.5,15.4,33.4s26.9-4.7,31.4-19.2c0.8-2.6,1.2-5.2,1.3-7.9l1,0.3
	c20.6,6.3,43.1-7.5,50.1-30.8C483,834.3,474.3,812.5,457,804.1"/>
<path class="st1" d="M398.8,937.6c35.7,5.7,69.3-18.5,75-54.2c5.7-35.7-18.5-69.3-54.2-75c-15.9-2.6-32.2,0.8-45.8,9.6
	c0-0.2,0-0.5,0-0.8c-0.9-34.7-29.8-62-64.4-61.1c-22.3,0.6-42.7,13-53.4,32.6c-21.2-10.7-47.2-2.2-57.9,19
	c-2.4,4.7-3.9,9.8-4.4,15.1c-16.7-6.1-35.2-4.9-51,3.4c52.3,66.8,122.3,117.6,202,146.5c0.8,0,1.6,0,2.5,0
	C369.7,972.1,389.9,958.4,398.8,937.6"/>
<path class="st2" d="M848.2,832.8c-28.9-23.5-71.3-19.1-94.7,9.8c-0.3,0.4-0.6,0.7-0.9,1.1c-18.5-26.1-54.7-32.2-80.8-13.7
	c-1.6,1.1-3.1,2.3-4.5,3.6c-29.6-20.7-70.4-13.4-91.1,16.2c-20.7,29.6-13.4,70.4,16.2,91.1c13.2,9.2,29.4,13.3,45.4,11.3l-0.3,0.7
	c-3.7,8.3-5.6,17.3-5.5,26.4C716.9,952.8,792.1,901.9,848.2,832.8"/>
<path class="st2" d="M211.1,878.8l0.7-0.3c30.5-16.4,41.9-54.5,25.5-85c-10.6-19.7-30.9-32.3-53.3-33c0-23.8-19.3-43.1-43.1-43.1
	c-5.3,0-10.5,1-15.5,2.9c-3.8-32-31.1-56-63.3-55.7c27.7,103.6,91.3,193.9,179.5,254.9C237.3,902.4,226.3,887.7,211.1,878.8"/>
<polyline class="st2" points="484.7,618 439.1,850.4 580.2,842.7 526.5,615.5 484.7,618 "/>
<path class="st2" d="M575.4,970.3c0.2,0,0.3,0.1,0.5,0.2c22.8,8.3,48.1-3.5,56.4-26.3c5.3-14.7,2.5-31.2-7.6-43.2
	c12.5-11.1,13.6-30.2,2.5-42.6c-2.5-2.8-5.4-5.1-8.7-6.8c16.2-18.3,14.6-46.2-3.7-62.4s-46.2-14.6-62.4,3.7c-3.7,4.2-6.6,9-8.5,14.2
	c-0.9,2.5-1.6,5.1-2,7.7c-2-1-4-1.9-6-2.7c-24.5-8.9-51.5,3.7-60.4,28.2c-7.4,20.4,0.1,43.3,18.2,55.4
	c-17.3,14.3-19.7,39.9-5.3,57.2c0.9,1,1.8,2,2.7,2.9c-1.5,2.5-2.7,5.1-3.7,7.7c-4.3,11.7-3.6,24.6,1.9,35.8c3,0.1,5.9,0.1,8.9,0.1
	c25.5,0,50.9-2.1,76-6.4C576.5,985.8,576.9,977.9,575.4,970.3"/>
<path class="st2" d="M925,669.7c-20.9,5.3-35.4,24.2-35.2,45.7c-21.3-6.2-43.6,6.1-49.8,27.4c-0.4,1.3-0.7,2.6-0.9,3.9
	c-2.8,0.2-5.6,0.6-8.4,1.3c-24.3,6.2-39,30.9-32.8,55.2c5.3,21,24.8,35.3,46.5,34.1c41.3-49.3,71.5-107,88.6-169
	C930.3,668.6,927.6,669,925,669.7"/>
<path class="st2" d="M467,827.3c0.9-4,1.2-8.1,0.9-12.2c-1.5-20.2-17.2-35.5-35.1-34.2c-16.2,1.2-28.7,15.6-29.8,33.3
	c-13.7,4.8-23,19.7-21.8,36.5c1,13.8,8.8,25.2,19.3,30.4c-6,5.6-9,13.6-8.3,21.8c1,14.1,12,24.8,24.5,23.8c1.1-0.1,2.2-0.3,3.2-0.5
	c0,0.1,0,0.2,0,0.3c1.1,15.2,12.9,26.7,26.4,25.7s23.5-14.1,22.3-29.3c-0.2-2.7-0.7-5.3-1.6-7.8l1,0c21.5-1.6,37.5-22.5,35.7-46.8
	C502.1,846.2,486.1,828.9,467,827.3"/>
<path class="st2" d="M437.8,992.7c36.1-1,64.6-31.1,63.6-67.2s-31.1-64.6-67.2-63.6c-11.9,0.3-23.5,3.9-33.6,10.4v-0.8
	c-0.9-34.7-29.8-62-64.4-61.1c-22.3,0.6-42.7,13-53.4,32.6c-21.2-10.7-47.1-2.3-57.9,19c-2.4,4.7-3.9,9.9-4.4,15.1
	c-10.9-4-22.7-4.9-34.1-2.6c65.6,62.8,148.8,104.3,238.4,119c0.3-0.6,0.5-1.1,0.8-1.7C429.6,992.5,433.7,992.8,437.8,992.7"/>
<path class="st2" d="M645.7,941.2c-12,0.3-23.6,3.9-33.7,10.4c0-0.3,0-0.5,0-0.8c-0.9-34.7-29.8-62-64.4-61.1
	c-22.3,0.6-42.7,13-53.4,32.6c-21.2-10.7-47.2-2.2-57.9,19c-2.4,4.7-3.9,9.8-4.4,15.1c-26.2-9.6-55.5-0.9-72.2,21.4
	c108.8,34.9,226.8,27.4,330.2-21.1C677.6,946.3,661.8,940.7,645.7,941.2"/>
<path class="st2" d="M733.5,347.6c0.2-0.3,0.5-0.6,0.7-1c0.5,0.6,1,1.1,1.5,1.7C735,348,734.3,347.8,733.5,347.6z M784.7,326.6
	c-1.7,0.3-3.4,0.9-5,1.6c-0.1-1-0.2-2-0.4-3c-2.7-13.9-16.2-23.1-30.2-20.3c-7.4,1.4-13.8,6-17.5,12.6c-8.9-9-23.5-9.1-32.5-0.2
	c-3.4,3.3-5.6,7.6-6.5,12.2c-13.4-2.3-26.3,6.3-29.2,19.6h148.1c0.2-12.4-9.8-22.7-22.2-22.8C787.7,326.2,786.2,326.3,784.7,326.6"
	/>
<path class="st2" d="M269.4,440.8c0.2-0.2,0.4-0.5,0.5-0.8c0.4,0.5,0.8,0.9,1.2,1.3C270.6,441.1,270,440.9,269.4,440.8z
	 M309.3,424.4c-1.3,0.3-2.6,0.7-3.9,1.2c-0.1-0.8-0.2-1.5-0.3-2.3c-2.1-10.9-12.7-18-23.6-15.9c-5.8,1.1-10.7,4.7-13.6,9.8
	c-6.9-7.1-18.3-7.2-25.4-0.2c-2.6,2.6-4.4,5.9-5.1,9.6c-10.5-1.8-20.5,4.9-22.8,15.3h115.6c0-1.2-0.1-2.4-0.3-3.6
	C328.1,428.8,318.9,422.5,309.3,424.4C309.3,424.4,309.3,424.4,309.3,424.4"/>
<path class="st3" d="M515.7,714c17.9-44.8,58.2-101.4,57.6-126.8s-30-60.8-62.3-60s-59.9,37.2-59.2,63S515.7,714,515.7,714"/>
<path class="st4" d="M514.8,681.7c14.6-36.6,47.6-82.8,47.1-103.6s-24.5-49.7-50.9-49s-48.9,30.4-48.4,51.5S514.8,681.8,514.8,681.7
	"/>
<path class="st2" d="M514,646.5c11.2-28.2,36.7-63.8,36.3-79.8s-19-38.3-39.3-37.8s-37.7,23.4-37.3,39.7S514,646.5,514,646.5"/>
<path class="st3" d="M462.3,662.5c18.1-26.5,52.6-57.3,55.8-73.9s-10.6-43.8-31.7-48s-44.2,15.4-47.6,32.3S462.3,662.5,462.3,662.5"
	/>
<path class="st4" d="M466.5,641.5c14.8-21.6,43-46.8,45.6-60.4s-8.7-35.8-25.9-39.2s-36.2,12.6-38.9,26.4S466.5,641.5,466.5,641.5"
	/>
<path class="st2" d="M471.1,618.5c11.4-16.7,33.1-36.1,35.2-46.5s-6.7-27.6-20-30.2s-27.9,9.7-30,20.3S471,618.5,471.1,618.5"/>
<path class="st3" d="M527.5,608c-0.1-20.4,6.8-48.9,2.5-58.8s-21.4-19-33.9-13.6s-17.6,24-13.2,34.1S527.5,608,527.5,608"/>
<path class="st4" d="M522.1,595.5c-0.1-16.7,5.5-40,2-48s-17.5-15.6-27.7-11.1s-14.3,19.7-10.8,27.8S522.1,595.5,522.1,595.5"/>
<path class="st2" d="M516.2,581.8c-0.1-12.8,4.2-30.8,1.5-37s-13.5-12-21.4-8.6s-11.1,15.1-8.3,21.5S516.2,581.8,516.2,581.8"/>
<path class="st5" d="M671.1,174.1c-90.1,119.3-123.3,16.2-173.1,16.6c-26.1,0.2-45,107.5-173.1-16.6C324.2,78.5,401.1,0.4,496.7-0.3
	s173.7,76.2,174.4,171.8C671.1,172.3,671.1,173.2,671.1,174.1"/>
<path class="st5" d="M325,174.1c19,108,71.1,121.2,99.6,234.1c61.8,41.1,57,31.6,156.5,8.1c14.2-103.9,90.1-166.6,90.1-242.2
	C675.9,61.1,339.2,83.2,325,174.1"/>
<path class="st6" d="M419.8,207c0,0,32.8,75.3,42.7,103.3s10.2,94.7,10.2,94.7"/>
<path class="st6" d="M588.2,207c0,0-32.8,75.3-42.7,103.3s-10.2,94.7-10.2,94.7"/>
<path class="st7" d="M443.3,460.4v53.4c0,16.4,10.7,29.7,23.8,29.7h71.4c13.1,0,23.8-13.3,23.8-29.7v-53.4H443.3"/>
<path class="st8" d="M413.7,394.9v86.6c0,16.4,13.3,29.7,29.7,29.7h118.8c16.4,0,29.7-13.3,29.8-29.7c0,0,0,0,0,0v-86.6H413.7"/>
<path class="st9" d="M469.5,234.5c0,12.5-7.7,22.7-17.3,22.7S435,247,435,234.5s7.7-22.6,17.3-22.6S469.5,222,469.5,234.5z"/>
<path class="st9" d="M504,234.5c0,12.5-7.7,22.7-17.3,22.7s-17.2-10.2-17.2-22.7s7.7-22.6,17.3-22.6S504,222,504,234.5z"/>
<path class="st9" d="M538.6,234.5c0,12.5-7.7,22.7-17.3,22.7S504,247,504,234.5s7.7-22.6,17.3-22.6S538.6,222,538.6,234.5z"/>
<path class="st9" d="M573.1,234.5c0,12.5-7.7,22.7-17.3,22.7s-17.3-10.2-17.3-22.7s7.7-22.6,17.3-22.6S573.1,222,573.1,234.5z"/>
<path class="st10" d="M443.3,32.8C486,1.3,562.2,28.1,590.5,48.6c39.2,28.5,68.2,91.4,63.7,132.1s-21.7,62.2-37.7,100
	c-5.7,13.5,19.5-41-11.1-114.5c-22.8-54.8-88.8-68.8-132.5-73.9C442.1,88.7,400.8,64.1,443.3,32.8"/>
</svg>
