<?xml version="1.0" encoding="utf-8"?>
<!-- Generator: Adobe Illustrator 24.0.1, SVG Export Plug-In . SVG Version: 6.00 Build 0)  -->
<svg version="1.1" xmlns="http://www.w3.org/2000/svg" xmlns:xlink="http://www.w3.org/1999/xlink" x="0px" y="0px"
	 viewBox="0 0 400 400" style="enable-background:new 0 0 400 400;" xml:space="preserve">
<style type="text/css">
	.st0{fill:url(#SVGID_1_);}
	.st1{fill:url(#SVGID_2_);}
	.st2{fill:#EAD6C3;}
	.st3{fill:url(#SVGID_3_);}
	.st4{fill:url(#SVGID_4_);}
	.st5{fill:url(#SVGID_5_);}
	.st6{fill:#EDD4C3;}
	.st7{opacity:0.2;}
	.st8{fill:#CAEB8A;}
	.st9{fill:url(#SVGID_6_);}
	.st10{fill:url(#SVGID_7_);}
	.st11{fill:url(#SVGID_8_);}
	.st12{fill:url(#SVGID_9_);}
	.st13{fill:url(#SVGID_10_);}
	.st14{fill:#F50057;}
	.st15{fill:url(#SVGID_11_);}
	.st16{fill:#1F1C38;}
</style>
<g id="BACKGROUND">
</g>
<g id="OBJECTS">
	<g>
		<g>
			<linearGradient id="SVGID_1_" gradientUnits="userSpaceOnUse" x1="312.4474" y1="32.1893" x2="300.4073" y2="350.0496">
				<stop  offset="0" style="stop-color:#CAEB8A"/>
				<stop  offset="0.4328" style="stop-color:#C8EA8B"/>
				<stop  offset="0.5888" style="stop-color:#C1E78E"/>
				<stop  offset="0.6999" style="stop-color:#B6E094"/>
				<stop  offset="0.7898" style="stop-color:#A5D89D"/>
				<stop  offset="0.8667" style="stop-color:#8FCDA7"/>
				<stop  offset="0.9337" style="stop-color:#74BFB5"/>
				<stop  offset="0.9939" style="stop-color:#55AFC4"/>
				<stop  offset="1" style="stop-color:#51ADC6"/>
			</linearGradient>
			<path class="st0" d="M400,44.81v320.01H200v-8.03h187.35c0.01,0,0.01,0,0.01,0V51.13c-4.9-2.33-9.75-4.43-14.54-6.32H400z"/>
			<linearGradient id="SVGID_2_" gradientUnits="userSpaceOnUse" x1="106.8385" y1="24.2736" x2="94.7962" y2="342.1905">
				<stop  offset="0" style="stop-color:#CAEB8A"/>
				<stop  offset="0.4328" style="stop-color:#C8EA8B"/>
				<stop  offset="0.5888" style="stop-color:#C1E78E"/>
				<stop  offset="0.6999" style="stop-color:#B6E094"/>
				<stop  offset="0.7898" style="stop-color:#A5D89D"/>
				<stop  offset="0.8667" style="stop-color:#8FCDA7"/>
				<stop  offset="0.9337" style="stop-color:#74BFB5"/>
				<stop  offset="0.9939" style="stop-color:#55AFC4"/>
				<stop  offset="1" style="stop-color:#51ADC6"/>
			</linearGradient>
			<path class="st1" d="M200,356.79v8.03H0V44.81h27.18c-4.79,1.89-9.64,3.99-14.54,6.32v305.66c0,0,0,0,0.01,0H200z"/>
			<path class="st2" d="M387.35,356.79H200C299,320.09,385.99,356.22,387.35,356.79z"/>
			<path class="st2" d="M200,356.79H12.65C14.01,356.22,101,320.09,200,356.79z"/>
			<linearGradient id="SVGID_3_" gradientUnits="userSpaceOnUse" x1="200" y1="193.0585" x2="387.3631" y2="193.0585">
				<stop  offset="0" style="stop-color:#F9E6D9"/>
				<stop  offset="0.121" style="stop-color:#FCF1EA"/>
				<stop  offset="0.2698" style="stop-color:#FEF9F6"/>
				<stop  offset="0.4751" style="stop-color:#FFFEFD"/>
				<stop  offset="1" style="stop-color:#FFFFFF"/>
			</linearGradient>
			<path class="st3" d="M387.36,51.13v305.66c0,0,0,0-0.01,0c-1.36-0.57-88.35-36.7-187.35,0V51.13c0,0,4.74-2.77,13.35-6.32
				c25.95-10.72,87.05-28.68,159.48,0C377.61,46.69,382.46,48.79,387.36,51.13z"/>
			<linearGradient id="SVGID_4_" gradientUnits="userSpaceOnUse" x1="12.6369" y1="193.0585" x2="200" y2="193.0585">
				<stop  offset="0" style="stop-color:#F9E6D9"/>
				<stop  offset="0.121" style="stop-color:#FCF1EA"/>
				<stop  offset="0.2698" style="stop-color:#FEF9F6"/>
				<stop  offset="0.4751" style="stop-color:#FFFEFD"/>
				<stop  offset="1" style="stop-color:#FFFFFF"/>
			</linearGradient>
			<path class="st4" d="M200,51.13v305.66c-99-36.7-185.99-0.57-187.35,0c-0.01,0-0.01,0-0.01,0V51.13
				c4.9-2.33,9.75-4.43,14.54-6.32c72.42-28.68,133.53-10.72,159.48,0C195.26,48.36,200,51.13,200,51.13z"/>
			<g>
				<linearGradient id="SVGID_5_" gradientUnits="userSpaceOnUse" x1="276.4512" y1="205.5962" x2="219.7236" y2="300.5925">
					<stop  offset="0" style="stop-color:#7B6ED6"/>
					<stop  offset="0.4765" style="stop-color:#7A70D7"/>
					<stop  offset="0.6481" style="stop-color:#7677DA"/>
					<stop  offset="0.7705" style="stop-color:#7082E0"/>
					<stop  offset="0.8694" style="stop-color:#6693E8"/>
					<stop  offset="0.9531" style="stop-color:#5AA9F2"/>
					<stop  offset="1" style="stop-color:#51B9FA"/>
				</linearGradient>
				<rect x="212.61" y="205.27" class="st5" width="76.07" height="87.06"/>
				<rect x="213.73" y="305.19" class="st6" width="109.23" height="6.08"/>
				<rect x="299.86" y="265.95" class="st6" width="73.77" height="5.46"/>
				<rect x="299.86" y="246.08" class="st6" width="73.77" height="5.46"/>
				<rect x="299.86" y="225.14" class="st6" width="73.77" height="5.46"/>
				<rect x="299.86" y="205.28" class="st6" width="73.77" height="5.46"/>
				<rect x="212.62" y="163.41" class="st6" width="161.02" height="5.46"/>
				<rect x="212.62" y="143.54" class="st6" width="161.02" height="5.46"/>
				<rect x="212.07" y="123.76" class="st6" width="161.02" height="5.46"/>
				<rect x="212.62" y="184.34" class="st6" width="142.99" height="5.46"/>
				<rect x="299.86" y="286.88" class="st6" width="46.19" height="5.46"/>
				<g>
					<g class="st7">
						<rect x="215.83" y="268.95" width="63.28" height="19.27"/>
					</g>
					<g>
						<rect x="218.83" y="265.95" class="st8" width="63.28" height="19.27"/>
					</g>
				</g>
			</g>
			<g>
				<linearGradient id="SVGID_6_" gradientUnits="userSpaceOnUse" x1="99.1203" y1="33.7162" x2="-8.8811" y2="233.5188">
					<stop  offset="0" style="stop-color:#7B6ED6"/>
					<stop  offset="0.4765" style="stop-color:#7A70D7"/>
					<stop  offset="0.6481" style="stop-color:#7677DA"/>
					<stop  offset="0.7705" style="stop-color:#7082E0"/>
					<stop  offset="0.8694" style="stop-color:#6693E8"/>
					<stop  offset="0.9531" style="stop-color:#5AA9F2"/>
					<stop  offset="1" style="stop-color:#51B9FA"/>
				</linearGradient>
				<rect x="23.49" y="71.34" class="st9" width="76.51" height="63.04"/>
				<rect x="24.61" y="309.13" class="st6" width="161.02" height="5.46"/>
				<rect x="110.74" y="269.02" class="st6" width="73.77" height="5.46"/>
				<rect x="23.49" y="249.16" class="st6" width="161.02" height="5.46"/>
				<rect x="23.49" y="228.22" class="st6" width="161.02" height="5.46"/>
				<rect x="23.49" y="208.36" class="st6" width="161.02" height="5.46"/>
				<rect x="23.49" y="166.48" class="st6" width="161.02" height="5.46"/>
				<rect x="23.49" y="146.62" class="st6" width="161.02" height="5.46"/>
				<rect x="23.49" y="187.42" class="st6" width="142.99" height="5.46"/>
				<rect x="110.74" y="289.96" class="st6" width="46.19" height="5.46"/>
				<rect x="106.73" y="129.29" class="st6" width="77.78" height="5.46"/>
				<g>
					<g class="st7">
						<rect x="26.71" y="272.02" width="63.28" height="19.27"/>
					</g>
					<g>
						<rect x="29.71" y="269.02" class="st8" width="63.28" height="19.27"/>
					</g>
				</g>
				<rect x="106.73" y="109.31" class="st6" width="77.78" height="5.46"/>
				<rect x="106.73" y="88.58" class="st6" width="77.78" height="5.46"/>
				<rect x="106.73" y="71.34" class="st6" width="77.78" height="5.46"/>
			</g>
			<g>
				<linearGradient id="SVGID_7_" gradientUnits="userSpaceOnUse" x1="321.2461" y1="36.7707" x2="258.8144" y2="141.319">
					<stop  offset="0" style="stop-color:#7B6ED6"/>
					<stop  offset="0.4765" style="stop-color:#7A70D7"/>
					<stop  offset="0.6481" style="stop-color:#7677DA"/>
					<stop  offset="0.7705" style="stop-color:#7082E0"/>
					<stop  offset="0.8694" style="stop-color:#6693E8"/>
					<stop  offset="0.9531" style="stop-color:#5AA9F2"/>
					<stop  offset="1" style="stop-color:#51B9FA"/>
				</linearGradient>
				<rect x="212.61" y="59.33" class="st10" width="160.47" height="49.98"/>
			</g>
		</g>
		<linearGradient id="SVGID_8_" gradientUnits="userSpaceOnUse" x1="200" y1="46.9401" x2="213.3451" y2="46.9401">
			<stop  offset="0" style="stop-color:#3C0887"/>
			<stop  offset="0.3227" style="stop-color:#3F0987"/>
			<stop  offset="0.5338" style="stop-color:#470E87"/>
			<stop  offset="0.7129" style="stop-color:#561588"/>
			<stop  offset="0.8732" style="stop-color:#6B1F89"/>
			<stop  offset="1" style="stop-color:#822A8A"/>
		</linearGradient>
		<path class="st11" d="M200,43.78h13.35C204.74,47.33,200,50.1,200,50.1V43.78z"/>
		<linearGradient id="SVGID_9_" gradientUnits="userSpaceOnUse" x1="186.6549" y1="46.9401" x2="200" y2="46.9401">
			<stop  offset="0" style="stop-color:#3C0887"/>
			<stop  offset="0.3227" style="stop-color:#3F0987"/>
			<stop  offset="0.5338" style="stop-color:#470E87"/>
			<stop  offset="0.7129" style="stop-color:#561588"/>
			<stop  offset="0.8732" style="stop-color:#6B1F89"/>
			<stop  offset="1" style="stop-color:#822A8A"/>
		</linearGradient>
		<path class="st12" d="M200,43.78v6.32c0,0-4.74-2.77-13.35-6.32H200z"/>
		<g>
			<g class="st7">
				<polygon points="155.25,26 155.25,155.12 123.61,131.97 91.99,155.12 91.99,26 				"/>
			</g>
			<g>
				<linearGradient id="SVGID_10_" gradientUnits="userSpaceOnUse" x1="122.2554" y1="26.1874" x2="130.6827" y2="144.7718">
					<stop  offset="0" style="stop-color:#31D1D6"/>
					<stop  offset="0.3733" style="stop-color:#32CED8"/>
					<stop  offset="0.6175" style="stop-color:#36C6DF"/>
					<stop  offset="0.824" style="stop-color:#3CB7EB"/>
					<stop  offset="1" style="stop-color:#45A3FA"/>
				</linearGradient>
				<polygon class="st13" points="158.25,23 158.25,152.12 126.61,128.97 94.99,152.12 94.99,23 				"/>
			</g>
		</g>
	</g>
	<g>
		<path class="st14" d="M364.44,388.98H199.78c-9.22,0-16.7-7.48-16.7-16.7v-18.54c0-9.22,7.48-16.7,16.7-16.7h164.66
			c9.22,0,16.7,7.48,16.7,16.7v18.54C381.14,381.5,373.66,388.98,364.44,388.98z"/>
		<g>
			<g class="st7">
				<path d="M358.02,382.23H198.89c-3.89,0-7.07-3.18-7.07-7.07v-18.29c0-3.89,3.18-7.07,7.07-7.07h159.13
					c3.89,0,7.07,3.18,7.07,7.07v18.29C365.09,379.04,361.91,382.23,358.02,382.23z"/>
			</g>
			<g>
				<linearGradient id="SVGID_11_" gradientUnits="userSpaceOnUse" x1="194.8177" y1="363.0087" x2="368.0914" y2="363.0087">
					<stop  offset="0" style="stop-color:#F9E6D9"/>
					<stop  offset="0.121" style="stop-color:#FCF1EA"/>
					<stop  offset="0.2698" style="stop-color:#FEF9F6"/>
					<stop  offset="0.4751" style="stop-color:#FFFEFD"/>
					<stop  offset="1" style="stop-color:#FFFFFF"/>
				</linearGradient>
				<path class="st15" d="M361.02,379.23H201.89c-3.89,0-7.07-3.18-7.07-7.07v-18.29c0-3.89,3.18-7.07,7.07-7.07h159.13
					c3.89,0,7.07,3.18,7.07,7.07v18.29C368.09,376.04,364.91,379.23,361.02,379.23z"/>
			</g>
		</g>
		<g>
			<path class="st16" d="M220.34,350.3c-4.38,0-7.95,3.57-7.95,7.96c0,1.46,0.4,2.84,1.09,4.02l-7.4,7.4
				c-0.78,0.78-0.78,2.05,0,2.84c0.39,0.39,0.9,0.58,1.41,0.58s1.02-0.19,1.41-0.58l7.41-7.41c1.18,0.7,2.56,1.1,4.02,1.1
				c4.38,0,7.95-3.57,7.95-7.95C228.29,353.86,224.72,350.3,220.34,350.3z M220.34,362.2c-2.18,0-3.94-1.77-3.94-3.94
				c0-2.18,1.76-3.95,3.94-3.95c2.18,0,3.94,1.77,3.94,3.95C224.28,360.42,222.51,362.2,220.34,362.2z"/>
		</g>
	</g>
</g>
<g id="DESIGNED_BY_FREEPIK">
</g>
</svg>
