<?xml version="1.0" encoding="utf-8"?>
<!-- Generator: Adobe Illustrator 24.0.1, SVG Export Plug-In . SVG Version: 6.00 Build 0)  -->
<svg version="1.1" id="Слой_1" xmlns="http://www.w3.org/2000/svg" xmlns:xlink="http://www.w3.org/1999/xlink" x="0px" y="0px"
	 viewBox="0 0 776.9 243.4" style="enable-background:new 0 0 776.9 243.4;" xml:space="preserve">
<style type="text/css">
	.st0{fill:#FFD255;}
	.st1{fill:#FFAF57;}
</style>
<title>логотип</title>
<path class="st0" d="M145,243.4h-36.7v-76.2H36.9v76.2H0.3V65.7h36.6v72h71.4v-72H145V243.4z"/>
<path class="st0" d="M271.4,166.4h-70.3V214h82.5v29.4H164.5V65.7h118.9v29.7h-82.3v42.3h70.3V166.4z"/>
<path class="st0" d="M329.2,214H407v29.4H292.6V65.7h36.6V214z"/>
<path class="st0" d="M452.1,180.8v62.6h-36.6V65.7h69.3c13.3,0,25.1,2.4,35.2,7.3c9.7,4.5,17.8,11.7,23.4,20.8
	c5.5,9.3,8.4,19.9,8.2,30.7c0,17.4-6,31.2-17.9,41.2c-11.9,10-28.4,15.1-49.5,15.1H452.1z M452.1,151.1h32.7
	c9.7,0,17.1-2.3,22.2-6.8c5.1-4.6,7.6-11.1,7.6-19.5c0-8.7-2.6-15.7-7.7-21.1c-5.1-5.4-12.2-8.1-21.2-8.3h-33.6V151.1z"/>
<path class="st0" d="M625.5,145.8l37-80.1h40L644.2,179v64.5h-37.2V179L548.6,65.7h40.2L625.5,145.8z"/>
<path class="st1" d="M736.8,107.3c-4-0.2-7.9-1.8-11-4.3c-3.3-2.6-5.2-6.6-5.3-10.8c-0.6-8.1-3.2-16.4-5.3-22.1
	c-16.5-13-19.4-36.9-6.4-53.4c13-16.5,36.9-19.4,53.4-6.4c16.5,13,19.4,36.9,6.4,53.4c-2.2,2.8-4.9,5.4-7.8,7.5
	c-2.6,6.7-4.3,13.8-5,21c0,8.4-8,15.2-17.7,15.2C737.8,107.4,737.3,107.4,736.8,107.3z M741.3,5.3c-19.3-1.3-36,13.3-37.2,32.6
	c-0.8,11.6,4.3,22.8,13.5,30l0.4,0.3l0.2,0.4c2.2,5.9,5,14.8,5.6,23.4v0.1c0.1,3.3,1.6,6.4,4.2,8.5c2.9,2.4,6.6,3.7,10.4,3.7
	c8,0,14.6-5.4,14.6-12.1V92c0.7-7.7,2.5-15.2,5.3-22.4l0.2-0.5l0.4-0.3c15.9-11,19.8-32.8,8.8-48.6C761.6,11.5,751.9,6,741.3,5.3
	L741.3,5.3z"/>
<polygon class="st1" points="729.7,94.4 724.5,52.9 733.2,60 738.5,54 743.2,59.6 751.2,52.7 746.5,94.3 743.4,93.9 747.2,60.2 
	742.8,64 738.4,58.8 733.5,64.3 728.5,60.3 732.8,94 "/>
<rect x="732.8" y="95.5" transform="matrix(1.221729e-03 -1 1 1.221729e-03 628.313 847.125)" class="st1" width="10.9" height="27"/>
<rect x="729.5" y="83.4" transform="matrix(1.221729e-03 -1 1 1.221729e-03 636.1175 839.359)" class="st1" width="17.5" height="35.7"/>
</svg>
