<?xml version="1.0" encoding="utf-8"?>
<!-- Generator: Adobe Illustrator 24.0.1, SVG Export Plug-In . SVG Version: 6.00 Build 0)  -->
<svg version="1.1" id="Слой_1" xmlns="http://www.w3.org/2000/svg" xmlns:xlink="http://www.w3.org/1999/xlink" x="0px" y="0px"
	 viewBox="0 0 400 400" style="enable-background:new 0 0 400 400;" xml:space="preserve">
<style type="text/css">
	.st0{fill:url(#SVGID_1_);}
	.st1{fill:url(#SVGID_2_);}
	.st2{fill:url(#SVGID_3_);}
	.st3{fill:url(#SVGID_4_);}
	.st4{fill:url(#SVGID_5_);}
	.st5{fill:#706865;}
	.st6{fill:#BDAFAA;}
	.st7{fill:#FFFFFF;}
	.st8{fill:#40C4FF;}
	.st9{fill:#CFCFCF;}
	.st10{fill:#EEA886;}
	.st11{fill:#DB9C7C;}
	.st12{fill:#323657;}
	.st13{fill:#4DA8F2;}
	.st14{fill:#EFAA88;}
	.st15{fill:#424773;}
	.st16{fill:#292C47;}
	.st17{fill:#D88A51;}
	.st18{fill:#E2D2CA;}
	.st19{fill:#DFE1E8;}
	.st20{fill:#CF8C6C;}
	.st21{fill:#555C94;}
	.st22{fill:#354C70;}
	.st23{fill:#DEB135;}
	.st24{fill:#F2C344;}
	.st25{fill:#D9D0C4;}
	.st26{fill:#FFB355;}
	.st27{fill:#EEA987;}
	.st28{fill:#FFD255;}
	.st29{fill:#3C5780;}
	.st30{fill:#FCCCA2;}
	.st31{fill:#C48A6F;}
	.st32{fill:#E8734D;}
	.st33{fill:#293B57;}
	.st34{fill:#5C5049;}
	.st35{fill:#FAB46C;}
	.st36{fill:#D4C3BD;}
	.st37{fill:#DE9673;}
	.st38{fill:#E6D3CC;}
	.st39{fill:#DED1C5;}
	.st40{fill:#BC8551;}
	.st41{fill:#A77860;}
	.st42{fill:#23344A;}
	.st43{fill:#807066;}
</style>
<g>
	<linearGradient id="SVGID_1_" gradientUnits="userSpaceOnUse" x1="240.5019" y1="240.7357" x2="232.1534" y2="229.9864">
		<stop  offset="0" style="stop-color:#FF9F55"/>
		<stop  offset="1" style="stop-color:#FFD255"/>
	</linearGradient>
	<path class="st0" d="M208.27,250.67v-2.14c22.31,0,42.1-13.38,50.4-34.08l1.99,0.8C252.02,236.77,231.46,250.67,208.27,250.67z"/>
</g>
<g>
	<linearGradient id="SVGID_2_" gradientUnits="userSpaceOnUse" x1="236.1447" y1="264.6438" x2="225.5119" y2="250.9532">
		<stop  offset="0" style="stop-color:#FF9F55"/>
		<stop  offset="1" style="stop-color:#FFD255"/>
	</linearGradient>
	<path class="st1" d="M208.27,266.48v-2.14c16.45,0,31.95-5.39,44.82-15.58l1.33,1.68C241.17,260.94,225.21,266.48,208.27,266.48z"
		/>
</g>
<g>
	<linearGradient id="SVGID_3_" gradientUnits="userSpaceOnUse" x1="281.253" y1="254.6344" x2="273.1393" y2="244.1873">
		<stop  offset="0" style="stop-color:#FF9F55"/>
		<stop  offset="1" style="stop-color:#FFD255"/>
	</linearGradient>
	<path class="st2" d="M260.92,270.16l-1.2-1.77c14.46-9.77,25.81-23.35,32.82-39.27l1.96,0.86
		C287.33,246.27,275.72,260.17,260.92,270.16z"/>
</g>
<g>
	<linearGradient id="SVGID_4_" gradientUnits="userSpaceOnUse" x1="258.8643" y1="258.579" x2="131.4536" y2="94.5274">
		<stop  offset="0" style="stop-color:#FF9F55"/>
		<stop  offset="1" style="stop-color:#FFD255"/>
	</linearGradient>
	<path class="st3" d="M155.53,307.81l-38.03-27.07l8.51-19.06c-6.04-7.27-11.09-15.34-15.02-24.01l-20.88-0.66l-7.75-46.02
		l19.51-7.47c0.87-9.47,3-18.75,6.32-27.61L93.91,140.7l27.06-38.03l19.06,8.51c7.27-6.04,15.34-11.09,24.01-15.02l0.66-20.87
		l46.02-7.76l7.46,19.51c9.47,0.87,18.75,3,27.61,6.32l15.21-14.28l38.03,27.06l-8.51,19.06c6.05,7.28,11.1,15.36,15.02,24.01
		l20.87,0.66l7.75,46.02l-19.5,7.46c-0.38,4.16-1.02,8.34-1.89,12.43l-0.23,1.08l-51.34-12.65l0.18-0.99
		c3.77-20.56-4.79-41.68-21.82-53.79c-24.26-17.27-58.05-11.57-75.32,12.69c-17.26,24.26-11.57,58.05,12.69,75.32
		c5.07,3.61,10.64,6.29,16.55,7.96l0.94,0.27l-9.84,52l-1.09-0.26c-4.31-1.02-8.6-2.32-12.77-3.89L155.53,307.81z M120.17,280.01
		l35.18,25.03l14.91-13.99l0.63,0.24c3.93,1.5,7.97,2.77,12.03,3.78l9.06-47.88c-5.79-1.75-11.26-4.44-16.26-8
		c-25.22-17.95-31.14-53.08-13.19-78.3c17.95-25.23,53.08-31.14,78.3-13.19c17.42,12.4,26.32,33.87,22.85,54.93l47.25,11.64
		c0.78-3.88,1.35-7.83,1.69-11.76l0.06-0.67l19.12-7.32l-7.17-42.57l-20.46-0.65l-0.27-0.61c-3.97-8.91-9.16-17.2-15.41-24.64
		l-0.43-0.51l8.34-18.68L261.2,81.84l-14.91,13.99l-0.63-0.24c-9.07-3.47-18.6-5.65-28.33-6.49l-0.67-0.06l-7.32-19.12l-42.57,7.18
		l-0.65,20.46l-0.61,0.27c-8.93,3.98-17.22,9.17-24.63,15.41l-0.51,0.43l-18.68-8.34l-25.03,35.18l13.99,14.91l-0.24,0.63
		c-3.47,9.07-5.65,18.59-6.49,28.32l-0.06,0.67l-19.12,7.32l7.17,42.57l20.47,0.65l0.27,0.61c3.98,8.92,9.16,17.21,15.41,24.63
		l0.43,0.51L120.17,280.01z"/>
</g>
<linearGradient id="SVGID_5_" gradientUnits="userSpaceOnUse" x1="317.625" y1="334.2355" x2="125.2086" y2="86.4837">
	<stop  offset="0" style="stop-color:#FF9F55"/>
	<stop  offset="1" style="stop-color:#FFD255"/>
</linearGradient>
<path class="st4" d="M329.26,173.06l-3.74-22.15l-20.67-0.65c-3.96-8.87-9.16-17.27-15.57-24.89l8.42-18.86l-36.61-26.05
	l-15.06,14.14c-3.8-1.46-7.66-2.68-11.56-3.67l-9.31,50.09c5.23,1.69,10.3,4.2,15.02,7.55c18.01,12.81,25.99,34.47,22.25,54.86
	l49.29,12.14c0.91-4.3,1.56-8.63,1.93-12.97l19.31-7.39L329.26,173.06z M163.4,161.51c4.28-6.02,9.55-10.91,15.42-14.62
	l-25.15-44.08c-4.7,2.83-9.21,6.04-13.47,9.62L121.34,104l-13.02,18.3l-13.02,18.3l14.14,15.07c-3.56,9.3-5.73,18.93-6.56,28.61
	l-19.32,7.4l3.74,22.15l3.73,22.15l20.67,0.65c3.96,8.87,9.16,17.26,15.57,24.88l-8.42,18.86l18.3,13.03l18.31,13.02l15.06-14.14
	c4.35,1.66,8.78,3.03,13.26,4.08l9.45-49.94c-5.89-1.67-11.6-4.36-16.88-8.12C151.56,220.68,145.76,186.29,163.4,161.51z"/>
<rect x="197.99" y="282.15" class="st5" width="2.28" height="103.59"/>
<rect x="146.79" y="282.15" class="st5" width="2.28" height="103.59"/>
<path class="st6" d="M184.73,368.64H160.9c-14.13,0-25.58-11.45-25.58-25.58v-78.62c0-14.13,11.45-25.58,25.58-25.58h23.84
	c14.13,0,25.58,11.45,25.58,25.58v78.62C210.31,357.19,198.86,368.64,184.73,368.64z"/>
<path class="st7" d="M182.98,363.57h-20.33c-13.96,0-25.27-11.31-25.27-25.27v-72.07c0-13.96,11.31-25.27,25.27-25.27h20.33
	c13.96,0,25.27,11.31,25.27,25.27v72.07C208.25,352.25,196.94,363.57,182.98,363.57z"/>
<rect x="161.64" y="237.89" class="st5" width="22.35" height="5.05"/>
<path class="st8" d="M93.12,82.9c1.45-3.79,2.33-7.71,2.67-11.65l7.86-3.01l-1.52-9.02l-1.52-9.02l-8.41-0.27
	c-1.61-3.61-3.73-7.03-6.34-10.13l3.43-7.68l-7.45-5.3l-7.45-5.3l-6.13,5.76c-3.79-1.45-7.71-2.33-11.65-2.67l-3.01-7.86l-9.02,1.52
	l-9.02,1.52l-0.27,8.41c-3.61,1.61-7.03,3.73-10.13,6.34l-7.68-3.43l-5.3,7.45l-5.3,7.45l5.76,6.13c-1.45,3.79-2.33,7.71-2.67,11.65
	L2.1,66.8l1.52,9.02l1.52,9.02l8.41,0.27c1.61,3.61,3.73,7.03,6.34,10.13l-3.43,7.68l7.45,5.3l7.45,5.3l6.13-5.76
	c3.79,1.45,7.71,2.33,11.65,2.67l3.01,7.86l9.02-1.52l9.02-1.52l0.27-8.41c3.61-1.61,7.03-3.73,10.13-6.34l7.68,3.43l5.3-7.45
	l5.3-7.45L93.12,82.9z M39.88,85.79c-10.09-7.18-12.45-21.18-5.27-31.27c7.18-10.09,21.18-12.45,31.27-5.27
	c10.09,7.18,12.45,21.18,5.27,31.27C63.96,90.61,49.97,92.97,39.88,85.79z"/>
<g>
	<g>
		<path class="st9" d="M171.79,298.26l-1.48-3.88c-1.51-0.18-3-0.52-4.43-1.01l-3.03,2.84l-8.39-5.97l1.69-3.79
			c-0.94-1.19-1.75-2.48-2.41-3.85l-4.15-0.13l-1.71-10.16l3.88-1.48c0.18-1.51,0.52-3,1.01-4.43l-2.84-3.03l5.97-8.39l3.79,1.69
			c1.19-0.94,2.48-1.75,3.85-2.41l0.13-4.15l10.16-1.71l1.48,3.88c1.51,0.18,3,0.52,4.43,1.01l3.02-2.84l8.39,5.97l-1.69,3.79
			c0.94,1.19,1.75,2.48,2.41,3.85l4.15,0.13l1.71,10.16l-3.88,1.48c-0.18,1.51-0.52,3-1.01,4.43l2.84,3.02l-5.97,8.39l-3.79-1.69
			c-1.19,0.94-2.48,1.75-3.85,2.41l-0.13,4.15L171.79,298.26z M165.38,290.9l0.63,0.24c1.65,0.63,3.38,1.03,5.15,1.18l0.67,0.06
			l1.33,3.48l6.7-1.13l0.12-3.73l0.61-0.27c1.62-0.72,3.13-1.67,4.48-2.8l0.51-0.43l3.4,1.52l3.94-5.54l-2.55-2.72l0.24-0.63
			c0.63-1.65,1.03-3.38,1.18-5.15l0.06-0.67l3.48-1.33l-1.13-6.7l-3.73-0.12l-0.27-0.61c-0.72-1.62-1.67-3.13-2.8-4.48l-0.43-0.51
			l1.52-3.4l-5.54-3.94l-2.72,2.55l-0.63-0.24c-1.65-0.63-3.38-1.03-5.15-1.18l-0.67-0.06l-1.33-3.48l-6.7,1.13l-0.12,3.73
			l-0.61,0.27c-1.62,0.72-3.13,1.67-4.48,2.8l-0.51,0.43l-3.4-1.52l-3.94,5.54l2.55,2.72l-0.24,0.63c-0.63,1.65-1.03,3.38-1.18,5.15
			l-0.06,0.67l-3.48,1.33l1.13,6.7l3.73,0.12l0.27,0.61c0.72,1.62,1.67,3.13,2.8,4.48l0.43,0.51l-1.52,3.4l5.54,3.94L165.38,290.9z"
			/>
	</g>
	<g>
		<path class="st9" d="M177.64,283.83l-0.89-1.94c1.49-0.68,2.78-1.75,3.73-3.09c0.96-1.35,1.55-2.94,1.7-4.58l2.13,0.2
			c-0.19,2.02-0.91,3.96-2.09,5.63C181.05,281.68,179.47,282.99,177.64,283.83z M166.15,282.77l-0.05-0.03
			c-3.03-2.15-4.84-5.67-4.84-9.41c0-0.36,0.02-0.72,0.05-1.08l2.13,0.2c-0.03,0.29-0.04,0.59-0.04,0.88c0,3.04,1.48,5.91,3.95,7.68
			L166.15,282.77z M178.26,265.66c-1.6-1.14-3.48-1.74-5.43-1.74h0c-1.35,0-2.71,0.3-3.93,0.86l-0.89-1.95
			c1.5-0.69,3.17-1.05,4.82-1.05c0,0,0,0,0,0c2.4,0,4.71,0.74,6.67,2.13L178.26,265.66z"/>
	</g>
</g>
<g>
	<path class="st9" d="M187.65,321.62l-0.82-2.14c-0.62-0.09-1.23-0.23-1.82-0.42l-1.67,1.57l-5.08-3.61l0.93-2.09
		c-0.37-0.5-0.7-1.03-0.99-1.59l-2.29-0.07l-1.03-6.14l2.14-0.82c0.09-0.62,0.23-1.23,0.42-1.82l-1.57-1.67l3.61-5.08l2.09,0.93
		c0.5-0.37,1.03-0.7,1.59-0.99l0.07-2.29l6.14-1.04l0.82,2.14c0.62,0.09,1.23,0.23,1.83,0.42l1.67-1.57l5.08,3.61l-0.93,2.09
		c0.37,0.5,0.7,1.03,0.99,1.59l2.29,0.07l1.04,6.14l-2.14,0.82c-0.09,0.62-0.23,1.23-0.42,1.83l1.57,1.67l-3.61,5.08l-2.09-0.93
		c-0.5,0.37-1.03,0.7-1.59,0.99l-0.07,2.29L187.65,321.62z M184.5,316.6l0.63,0.24c0.82,0.31,1.68,0.51,2.56,0.59l0.67,0.06
		l0.66,1.73l2.69-0.45l0.06-1.85l0.61-0.27c0.81-0.36,1.56-0.83,2.23-1.39l0.51-0.43l1.69,0.76l1.58-2.22l-1.27-1.35l0.24-0.63
		c0.31-0.82,0.51-1.68,0.59-2.56l0.06-0.67l1.73-0.66l-0.45-2.69l-1.85-0.06l-0.27-0.61c-0.36-0.81-0.83-1.56-1.39-2.23l-0.43-0.51
		l0.76-1.69l-2.22-1.58l-1.35,1.27l-0.63-0.24c-0.82-0.31-1.68-0.51-2.56-0.59l-0.67-0.06l-0.66-1.73l-2.69,0.45l-0.06,1.85
		l-0.61,0.27c-0.81,0.36-1.56,0.83-2.23,1.39l-0.51,0.43l-1.69-0.76l-1.58,2.22l1.27,1.35l-0.24,0.63
		c-0.31,0.82-0.51,1.68-0.59,2.56l-0.06,0.67l-1.73,0.66l0.45,2.69l1.85,0.06l0.27,0.61c0.36,0.81,0.83,1.56,1.39,2.23l0.43,0.51
		l-0.76,1.69l2.22,1.58L184.5,316.6z M188.5,314.55c-1.35,0-2.67-0.42-3.79-1.22l0,0c-2.95-2.1-3.64-6.2-1.54-9.15
		c2.1-2.95,6.2-3.64,9.15-1.54c2.95,2.1,3.64,6.2,1.54,9.15c-1.02,1.43-2.53,2.37-4.25,2.67
		C189.23,314.51,188.86,314.55,188.5,314.55z M188.52,303.56c-1.38,0-2.75,0.65-3.61,1.86c-1.41,1.99-0.95,4.75,1.04,6.16l0,0
		c0.96,0.68,2.13,0.95,3.3,0.76c1.16-0.2,2.18-0.83,2.87-1.8c1.41-1.99,0.95-4.75-1.04-6.16
		C190.3,303.83,189.4,303.56,188.52,303.56z"/>
</g>
<g>
	<g>
		<g>
			<g>
				<path class="st10" d="M132.93,328.33c0,0,0.51,0.84,0.58,1.53c0.05,0.54,0.51,1.36,0.71,1.81c0.2,0.45,0.84,2.48,0.86,3.01
					c0.01,0.22-0.47,1.58-0.4,2.02c0.07,0.44,0.32,1.3-0.07,1.36c-0.39,0.06-0.84-0.65-0.84-0.65s0.04,0.4-0.29,0.55
					c-0.64,0.3-0.99,0.04-0.99,0.04s-0.24,0.44-0.54,0.5c-0.66,0.13-0.98-0.13-0.98-0.13s-0.29,0.25-0.74,0.24
					c-0.58-0.01-0.83-0.51-0.83-0.51s-0.74,0.15-0.95-0.19c-0.21-0.34-0.18-0.71-0.27-1.02c-0.09-0.31-0.02-3.12,0.93-5.15
					c0.96-2.02-0.24-4-0.24-4L132.93,328.33z"/>
			</g>
		</g>
	</g>
	<g>
		<g>
			<path class="st11" d="M133.86,337.14c0,0,0.07-2.52-0.6-3.06c-0.66-0.54-0.74,0.37-0.74,0.37s0.09-0.9-0.64-1.02
				c-0.73-0.12-0.76,0.95-0.76,0.95s-0.12-0.69-0.88-0.55c-0.76,0.14-0.58,1.03-0.58,1.03s-0.73-0.87-1.2-0.03
				c-0.8,1.41-0.03,3.07-0.03,3.07s0.22,0.38,0.95,0.19c0,0,0.49,0.98,1.57,0.27c0,0,1.11,0.61,1.52-0.37
				C132.47,337.99,133.7,338.57,133.86,337.14z"/>
		</g>
	</g>
	<path class="st12" d="M141.48,291.99c0,0-4.32,14.39-5.78,19.7c-0.46,1.67-1.57,17.57-1.76,18.21c-0.2,0.64-5.67,1.52-5.67,1.52
		s0.66-19.89,0.73-20.98c0.06-1.08,6.04-23.3,7.78-24.09c1.3-0.59,1.99-0.1,3.63,1.12C142.72,289.18,141.48,291.99,141.48,291.99z"
		/>
	<g>
		
			<rect x="182.87" y="268.53" transform="matrix(0.8367 -0.5476 0.5476 0.8367 -116.4663 147.288)" class="st13" width="11.81" height="0.88"/>
	</g>
	<path class="st14" d="M195.01,269.08c0,0-0.09,0.56-0.25,0.78c0,0-0.32,0.39-0.54,0.67c-0.07,0.09-0.12,0.17-0.16,0.23
		c-0.13,0.24-0.35,0.79-0.82,1.27c-0.47,0.48-2.3,2-2.3,2l-1.57-1.33l-1.63-0.73c0,0,0.91-3.97,1.3-4.47
		c0.04-0.05,0.08-0.09,0.12-0.14c0.37-0.39,0.81-0.52,1.02-0.7c0.08-0.07,0.92-0.67,1.22-0.59c0.42,0.11,0.66,0.35,0.75,0.63
		c0,0,0.8,0.25,1.12,0.72c0,0,0.75,0.2,0.97,0.9C194.24,268.32,194.98,268.61,195.01,269.08z"/>
	<g>
		<g>
			<path class="st15" d="M137.98,390.26c0,0-0.39,2.73-0.44,3.14c-0.05,0.41-4.38-0.24-4.38-0.24l-0.35-3.25
				C132.81,389.91,137.44,389.87,137.98,390.26z"/>
		</g>
	</g>
	<g>
		<g>
			<path class="st16" d="M137.58,393.05c0,0,1.37,1.65,2.7,2.36c1.33,0.72,3.41,1,4.2,1.74c0.57,0.54,2.06,2.84-3.45,2.8
				c-5.51-0.05-8.17,0.33-8.76-0.56c-0.59-0.89,0.85-6.53,0.85-6.53S134.43,393.34,137.58,393.05z"/>
		</g>
	</g>
	<g>
		<g>
			<path class="st15" d="M169,390.26c0,0-0.39,2.73-0.44,3.14c-0.05,0.41-4.38-0.24-4.38-0.24l-0.35-3.25
				C163.83,389.91,168.46,389.87,169,390.26z"/>
		</g>
	</g>
	<g>
		<g>
			<path class="st16" d="M168.6,393.05c0,0,1.37,1.65,2.7,2.36c1.33,0.72,6.21,1.31,6.99,2.05c0.57,0.54,1.51,2.69-6.25,2.49
				c-5.51-0.14-8.17,0.33-8.76-0.56c-0.59-0.89,0.85-6.53,0.85-6.53S165.38,393.37,168.6,393.05z"/>
		</g>
	</g>
	<g>
		<g>
			<path class="st16" d="M141.56,320.05c0,0-4.07,6.46-3.76,12.31c0.3,5.84-1.48,12.22-2.09,18.32c-0.68,6.8-3.47,22.91-3.57,26.55
				c-0.1,3.64,0.43,15.26,0.43,15.26l5.58,0.13c0,0,4.69-28.16,5.9-31.03c1.21-2.87,7.23-23.36,7.44-25.66
				C151.7,333.64,141.56,320.05,141.56,320.05z"/>
		</g>
	</g>
	<g>
		<g>
			<path class="st16" d="M162.98,320.93c0,0,3.07,16.01,3.47,19.59c0.4,3.58,0.67,17.31,0.88,19.54c0.2,2.23,1.89,29.18,2.43,32.57
				h-7.14c0,0-5.48-19.64-5.48-28.93s-4.23-20.2-6.96-26.33s-8.98-6.28-10.66-17.65C139.52,319.72,160.71,317.32,162.98,320.93z"/>
		</g>
	</g>
	<g>
		<g>
			<path class="st10" d="M148.35,265.71c0,0,5.46-2.04,7.98,2.12c2.52,4.16,2.28,12.48-0.48,13.5c-2.75,1.02-6.89,0.49-8.3-2.11
				c-1.41-2.6-2.68-6.36-2.62-8.87C145,267.83,146.92,266.44,148.35,265.71z"/>
		</g>
	</g>
	<g>
		<g>
			<path class="st10" d="M155.26,281.52c0,0-0.23,1.47,0.15,2.2c0.38,0.73-7.07,0.75-7.07,0.75s-0.6-3.95-1.75-7.29
				C145.44,273.84,155.26,281.52,155.26,281.52z"/>
		</g>
	</g>
	<g>
		<g>
			<path class="st17" d="M146.58,277.18c0,0,0.51,0.85,2.61,0.52c2.1-0.33,4.66-3.12,5.54-3.43c0.88-0.31,0.88-0.82,0.88-0.82
				l0.55,0.8l0.93,0.06c0,0-0.85-2.5,0.43-3.52c1.28-1.02-1.33-8.09-8.06-5.73c0,0-5.17,1.43-4.98,4.37
				C144.67,272.37,145.43,275.71,146.58,277.18z"/>
		</g>
	</g>
	<g>
		<g>
			<path class="st18" d="M155.85,283.63c0,0-0.02-1.39-0.65-1.52c-0.63-0.13-6.94-0.74-7.71-0.44v1.62
				C147.48,283.29,148.97,284.21,155.85,283.63z"/>
		</g>
	</g>
	<g>
		<g>
			<path class="st10" d="M155.48,272.38c-0.12-0.49-1.37-1.9-1.85-0.39c-0.48,1.51,0.73,3.54,1.4,3.36
				C155.7,275.18,155.78,273.63,155.48,272.38z"/>
		</g>
	</g>
	<g>
		<g>
			<path class="st12" d="M166.29,285.74c-4.33-0.57-10.44-2.1-10.44-2.1l-8.37-0.34c0,0-7.68,1.69-10.7,3.06
				c-0.29,0.13-0.29,6.85-1.08,8.61l2.51,5.29c0,0,1.45,10.48,1.75,15.14c0.14,2.14-2.99,20.06-2.99,20.06s3.35,0.99,9.06,1.62
				c5.71,0.63,19.98-0.23,20.07-0.9c0.09-0.67-2.76-25.11-2.89-26.38c-0.19-1.94,0.67-12.27,0.67-12.27
				c1.32-1.02,12.89-6.4,16.05-9.2c0.85-0.75,4.41-4.22,5.43-5.42c3.59-4.25,6.53-7.89,6.89-8.67c0.41-0.45-4.02-2.83-4.42-2.96
				c-0.34-0.11-5.07,6.21-6.94,8.24c-0.83,0.9-4.3,3.42-4.3,3.42S169,285.89,166.29,285.74z"/>
		</g>
	</g>
	<g>
		<g>
			<path class="st17" d="M146.8,266.2c0,0-6.96,0.55-0.21,10.98L146.8,266.2z"/>
		</g>
	</g>
	<polygon class="st19" points="193.96,266.1 194.53,265.22 193.48,265.36 	"/>
</g>
<g>
	<g>
		<polygon class="st8" points="350.44,236.68 315.86,236.68 315.86,261.74 315.86,267.02 321.14,261.74 350.44,261.74 		"/>
	</g>
</g>
<g>
	<g>
		<g>
			<path class="st10" d="M316.23,293.54c0,0,0.75-1.85,0.87-2.13c0.12-0.28,0.84-0.73,1.71-1.18c0.87-0.45,2.25-0.67,2.4-0.59
				c0.15,0.08,0.34,0.1,0.53,0.49c0.19,0.39,0.14,0.82,0.14,0.82s0.46,0.37,0.35,0.9c0,0,0.42,0.37,0.2,0.95c0,0,0.4,0.37,0.2,0.78
				c0,0-0.72,0.46-0.94,0.7c-0.22,0.25-1.78,1.09-3.41,1.68C318.28,295.96,316.56,295.99,316.23,293.54z"/>
		</g>
	</g>
	<g>
		<g>
			<path class="st20" d="M318.87,292.53c0,0,0.02,1-0.12,1.29c-0.14,0.28,2.03,0.91,2.03,0.91S320.09,292.54,318.87,292.53z"/>
		</g>
	</g>
	<g>
		<g>
			<polygon class="st21" points="278.39,390.51 279.33,387.56 283.34,388.21 282.74,390.87 			"/>
		</g>
	</g>
	<g>
		<g>
			<polygon class="st21" points="311.25,390.16 311.47,391.78 315.86,391.05 315.63,388.63 			"/>
		</g>
	</g>
	<g>
		<g>
			<g>
				<path class="st22" d="M301.74,344.71c0,0-0.65,3.52-1.4,7.43c-0.13,0.68-0.26,1.37-0.4,2.06c-0.73,3.77-1.47,7.39-1.75,8.14
					c-0.62,1.7-14.06,26.33-14.06,26.33s-5.49-0.42-5.7-1.12c0,0,11.27-26.74,11.2-27.71c-0.06-0.97,1.38-28.38,1.38-28.38
					S301.44,343.12,301.74,344.71z"/>
			</g>
		</g>
	</g>
	<g>
		<g>
			<g>
				<path class="st22" d="M307.88,329.88c0,0,5.26,26.92,5.71,28.99c0.45,2.06,2.44,29.64,2.44,29.64s-1.18,2.44-5.55,1.52
					c0,0-5.95-29.63-6.45-30.63c-1.95-3.85-11.5-22.52-12.43-25.19c-0.93-2.66-0.65-5.77-0.65-5.77S298.05,324.45,307.88,329.88z"/>
			</g>
		</g>
	</g>
	<g>
		<g>
			<g>
				<path class="st23" d="M305.67,295.01c0,0,2.31,5.75,2.89,5.58c0.58-0.17,7.21-7.95,7.21-7.95s3.03,3.78,2.63,4.22
					c-0.57,0.61-8.39,13.62-9.47,13.38c-1.08-0.24-5.89-8.19-5.89-8.19S302.76,296.05,305.67,295.01z"/>
			</g>
		</g>
	</g>
	<g>
		<g>
			<g>
				<path class="st24" d="M295.81,284.03c0,0,5.98,4.57,7.63,6.38c1.65,1.81,6.21,9.33,5.88,11.59c-1.26,8.67-1.86,16.06-1.9,21.98
					c-0.03,5.15,1.61,6.47,0.59,6.54c-1.17,0.09-16.22,5.54-18.45,6.21c0,0,1.46-18.15,2.2-20.24
					C292.5,314.4,289.39,292.46,295.81,284.03z"/>
			</g>
		</g>
	</g>
	<g>
		<g>
			<path class="st25" d="M334.33,275.36l1.34,6.76l1.34,6.76c0,0-7.68-2.4-16.39-0.67l-0.59-2.98l-0.6-3
				C328.14,280.5,334.33,275.36,334.33,275.36z"/>
		</g>
	</g>
	<g>
		<g>
			<path class="st26" d="M311.47,391.78c0,0,3.31-0.64,3.43-0.74c0.12-0.1,0.83-1.41,1.34-1.18c0.51,0.23,0.52,1.82,1.02,2.09
				c0.5,0.27,4.45,2.94,4.94,3.43c0.49,0.49,3.48,0.2,3.82,1.04c0.34,0.85,0.37,2.84-4.09,2.37c-4.47-0.47-9.57,0.26-10.53-0.27
				C310.44,398,311.16,393.07,311.47,391.78z"/>
		</g>
	</g>
	<g>
		<g>
			<path class="st26" d="M278.33,390.44c0,0,3.37-0.1,3.5-0.18c0.13-0.08,1.04-1.26,1.51-0.95c0.47,0.31,0.22,1.88,0.67,2.23
				c0.45,0.35,3.93,3.62,4.33,4.17c0.4,0.56,3.4,0.75,3.61,1.64c0.2,0.89-0.09,2.86-4.42,1.69c-4.33-1.18-9.49-1.28-10.35-1.95
				C276.32,396.41,277.83,391.66,278.33,390.44z"/>
		</g>
	</g>
	<g>
		<g>
			<g>
				<path class="st27" d="M304.53,331.13c0,0,0.4,1.64,1.05,1.99c0.65,0.36-3.02,3.86-3.02,3.86s-1.49-3.25-1.45-3.58
					C301.15,333.08,304.53,331.13,304.53,331.13z"/>
			</g>
		</g>
	</g>
	<g>
		<g>
			<g>
				<path class="st28" d="M293.15,291.12c0,0-4.29,20.42-4.64,22.51c-0.33,1.98,12.58,20.87,12.58,20.87l4.29-2.55
					c0,0-10.42-18.95-10.41-19.82c0.02-0.86,5-17.32,5-17.32s2.08-3.58-1.61-5.32C294.67,287.74,293.15,291.12,293.15,291.12z"/>
			</g>
		</g>
	</g>
	<g>
		<g>
			<path class="st29" d="M307.04,332.54c0,0,1.4,6.94,1.31,9.07c-0.09,2.13-8.01-3.35-7.61-5.46L307.04,332.54z"/>
		</g>
	</g>
	<g>
		<g>
			<g>
				<g>
					<path class="st10" d="M295.81,284.03c0,0,10.89,11.9,10.22,10.58c-2.39-4.7-4.06-5.5-4.03-6.37c0.03-0.67,0.24-2.61,0.29-3.27
						c0.08-1.25,0.22-2.28,0.22-2.28s-5.41-7.6-5.17-5.01C297.58,280.27,295.81,284.03,295.81,284.03z"/>
				</g>
			</g>
		</g>
	</g>
	<g>
		<g>
			<g>
				<g>
					<path class="st10" d="M306.18,270.03c0,0,1.5,3.52,1.52,4.34c0.02,0.82-0.19,1.45-0.06,2.4c0.13,0.98,0.95,3.04,0.85,3.61
						c-0.12,0.69-1.57,0.33-1.77,1.46c-0.2,1.13-1.25,3.27-1.78,3.31c-1.35,0.11-6.51-2-6.84-3.08c-0.33-1.08-2.2-7.1-2.78-8.25
						c-0.58-1.15,9.1-7.42,9.98-5.61C306.18,270.03,306.18,270.03,306.18,270.03z"/>
				</g>
			</g>
		</g>
	</g>
	<g>
		<g>
			<path class="st30" d="M293.02,272.63c-0.68-2.98,2.75-3.35,2.75-3.35s2.23-2.6,7.57-2.29c5.34,0.31,4.53,7.28,4.53,7.28
				s-3.7-0.55-5.3-0.15c0,0-0.2,2.98-0.02,3.72l-2.02-0.18c0,0,0.23-2.64-0.74-2.77c-0.97-0.13-1.29,5.59-3.09,6.85
				c0,0-0.02-0.4-0.24-0.8l0,0l0,0c-0.36-0.63-0.92-1.68-1.4-2.92C294.26,276.31,293.37,274.16,293.02,272.63z"/>
		</g>
	</g>
	<g>
		<g>
			<g>
				<g>
					<path class="st10" d="M301.13,275.54c0,0-0.75-2.02-2.52-0.71c-1.29,0.95,0.04,4.36,1.29,4.34
						C301.15,279.15,301.66,277.3,301.13,275.54z"/>
				</g>
			</g>
		</g>
	</g>
	<g>
		<g>
			<path class="st31" d="M297.81,281.13c0,0,0.26,1.07,0.55,1.32c0.29,0.25,1.64,1.35,4,2.09l-0.23,2.14
				C302.13,286.68,297.58,284.89,297.81,281.13z"/>
		</g>
	</g>
	<g>
		<g>
			<path class="st32" d="M321.83,295.6l0.77-0.37l-3.48-7.39l-1.95,0.92l2.95,6.27C320.45,295.73,321.14,295.93,321.83,295.6z"/>
		</g>
	</g>
	<g>
		<g>
			<path class="st11" d="M320.97,289.74c0,0-2.18,1.2-2.03,1.57c0.15,0.38,0.43,0.42,0.43,0.42l-0.67,0.9c0,0-0.11,0.85,0.85,0.72
				c0,0-0.19,0.78,0.72,0.55c0,0,0.11,0.57,0.55,0.54c0.44-0.03,1.81-0.86,1.81-0.86s0.21-0.3-0.2-0.78c0,0,0.24-0.55-0.2-0.95
				c0,0,0.13-0.47-0.35-0.9c0,0,0.2-1.06-0.66-1.31C321.21,289.63,321.07,289.69,320.97,289.74z"/>
		</g>
	</g>
	<g>
		<g>
			<polygon class="st32" points="314.59,289.46 322.28,288.02 321.03,281.72 313.4,283.46 			"/>
		</g>
	</g>
	<g>
		<g>
			<path class="st10" d="M317.16,291.36c0,0,1.71-0.05,2.65,0.33c0.21,0.09,0.4,0.21,0.4,0.44c0,0.23-0.33,0.52-1.07,0.58
				c-0.74,0.06-1.67,0.47-1.67,0.47S316.7,293.03,317.16,291.36z"/>
		</g>
	</g>
	<g>
		<g>
			<path class="st33" d="M300.35,352.14c-0.13,0.68-0.26,1.37-0.4,2.06l-4.36-11.55C296.16,343.81,300.35,352.14,300.35,352.14z"/>
		</g>
	</g>
</g>
<polygon class="st8" points="27.03,251.85 53.82,251.85 53.82,271.27 53.82,275.36 49.73,271.27 27.03,271.27 "/>
<g>
	<g>
		<polygon class="st34" points="86.47,386.08 81.08,350.25 82.12,350.09 87.51,385.92 		"/>
	</g>
	<g>
		<polygon class="st34" points="79.89,386.08 74.5,350.25 75.54,350.09 80.93,385.92 		"/>
	</g>
	<g>
		<polygon class="st34" points="47.49,386.08 46.45,385.92 51.84,350.09 52.88,350.25 		"/>
	</g>
	<path class="st35" d="M82.77,350.62l4.22-44.4c0,0-7.38-0.97-11.84-0.73l-6.7,45.12H82.77z"/>
	<rect x="68.44" y="348.36" class="st35" width="14.32" height="2.26"/>
	<path class="st35" d="M59.07,348.81l-2.24-42.31c0,0,18.68-2.03,30.15-0.28L59.07,348.81z"/>
	<path class="st30" d="M73.99,292.8c0,0,2.88-8.46-2.62-11.08c-5.5-2.62-10.18,1.17-11.06,3.22c-0.88,2.05-0.65,5.78,0.1,8.38
		c0.75,2.6,0.64,6.56-0.99,7.88c-1.64,1.32-3.66,3.52-3.56,8c0.06,2.78,10.93-7.1,10.93-7.1L73.99,292.8z"/>
	<path class="st36" d="M66.65,383.82c0,0-0.17,5.98,0.68,6.34s4.08-1.72,5.51-3.77c1.42-2.06-1.79-6.84-2.31-9.48
		c-0.22-1.11-2.73-3.09-3.96-2.52c-1.22,0.57-2.12,2.03-2.12,2.03S67.57,378.54,66.65,383.82z"/>
	<g>
		<path class="st37" d="M64.45,376.41c0,0,1.06,2.04,1.6,3.62c0.55,1.58,0.65,5.97,0.99,6.27c0.34,0.3,3.05-1.06,3.41-2.7
			c0.36-1.64-0.74-4.91-1.78-6.64c-1.04-1.72-2.11-2.58-2.11-2.58S64.72,374.74,64.45,376.41z"/>
	</g>
	<polygon class="st36" points="70.53,376.9 73.43,381.15 72.88,381.53 70.64,378.24 	"/>
	<path class="st37" d="M60.05,329.96c0,0,1.42,2.4,0,4.15c-1.42,1.75-10.99,6.55-10.92,9.33c0.07,2.78,1.82,7.12,2.45,8.22
		c0.63,1.1,2.95,5.67,4.16,8.35c1.21,2.68,8.19,15.48,9.55,18.36c1.36,2.89,0.52-11.54,0.52-11.54l-6.98-20.46l16.3-15.88
		C75.15,330.48,73.17,326.09,60.05,329.96z"/>
	<path class="st28" d="M66.26,302.86c0,0-4.52,1-6.32,2.05c-1.8,1.05-5.78,5.88-5.78,7.95c0,2.08,17.44,4.01,17.44,4.01l3.31,12.07
		c0,0,8.81-2.15,9.86-3.94c1.05-1.78-3.47-14.48-4.1-17.16c-0.63-2.68-3.93-4.48-7.6-4.99C69.39,302.35,66.26,302.86,66.26,302.86z"
		/>
	<path class="st10" d="M76.95,330.36c0,0-0.32,2.06,0.52,2.94c0.84,0.87,4.71,5.97,2.66,10.98c-1.88,4.6-5.53,4.51-5.53,4.51h-5.64
		c0,0,1.64,8.28,1.11,13.74c-0.53,5.46-3.02,17.92-3.07,18.55c-0.05,0.63-2.39,2.6-3.07,1.6c0,0-0.06-7.5-0.43-10.34
		c-0.37-2.83-1.93-14.17-2.4-15.85c-0.47-1.68-3.25-6.77-3.25-7.29s-2.72-8.74,3.21-10.84C66.99,336.26,69.08,330.4,76.95,330.36z"
		/>
	<path class="st38" d="M61.12,388.46c0,0-3.89,4.54-3.45,5.36c0.44,0.82,4.26,1.23,6.66,0.53c2.4-0.7,2.91-6.44,4.16-8.82
		c0.52-1-0.18-4.12-1.49-4.45c-1.31-0.33-2.92,0.25-2.92,0.25S65.16,384.94,61.12,388.46z"/>
	<g>
		<path class="st10" d="M64.08,381.32c0,0-0.46,2.25-1.03,3.83c-0.57,1.57-3.25,5.05-3.17,5.5c0.08,0.45,3.04,1.09,4.35,0.05
			c1.31-1.05,2.52-4.28,2.79-6.28c0.27-2-0.01-3.34-0.01-3.34S65.34,380.19,64.08,381.32z"/>
	</g>
	<polygon class="st38" points="68.49,385.52 68.08,390.65 67.42,390.6 67.73,386.63 	"/>
	<path class="st12" d="M80.13,344.28c-1.78,4.66-5.53,4.51-5.53,4.51h-5.64c0,0-2.35-3.73-8.12-4.37c-1.28-0.14-2.72-0.13-4.35,0.1
		c-0.02,0-0.04,0.01-0.06,0.01c-7.66,1.13-6.18,3.95-6.16,4.02c-0.64-1.55-1.31-4.03-1.14-5.36c0.73-6.06,9.49-7.33,10.92-9.08
		c1.42-1.75,0-4.15,0-4.15c13.12-3.87,15.09,0.52,15.09,0.52c0.58-0.08,2.05-0.93,2.68-0.93c0,0,0.66,1.43,1.12,2.73
		C79.35,333.42,82.06,339.22,80.13,344.28z"/>
	<polygon class="st39" points="74.69,310.9 76.63,328.95 51.08,328.95 49.14,310.9 	"/>
	<rect x="74.4" y="327.32" class="st39" width="4.27" height="1.62"/>
	<rect x="33.47" y="328.95" class="st40" width="81.38" height="2.46"/>
	<path class="st10" d="M69.08,283.16c0,0,5.72,1.69,4.91,9.64c-0.82,7.94-4.56,7.54-4.91,7.59c-0.35,0.06-4.79,0.35-6.19-9.29
		C61.49,281.47,69.08,283.16,69.08,283.16z"/>
	<path class="st10" d="M71.81,298.93c0,0-0.3,2.63,0.2,4.27c0.51,1.64-6.67,1.68-6.66,0.34c0-1.53,0.73-2.8,0.05-5.42
		C64.71,295.49,71.81,298.93,71.81,298.93z"/>
	<path class="st30" d="M67.61,286.7c0,0,3.11,4.95,6.38,6.1c0,0,1.79-8.3-5.6-10.04c-7.38-1.74-6.23,8.39-5.68,11.09
		C62.72,293.84,64.26,289.87,67.61,286.7z"/>
	<path class="st41" d="M66.25,299.27c0,0,2.26,2.36,5.16,0.25c0,0-0.24,1.51-2.32,1.7C67,301.41,66.25,299.27,66.25,299.27z"/>
	<path class="st42" d="M63.43,285.96c0,0,1.64-3.17,4.4-3.31c2.76-0.14,4.41,2.26,4.41,2.26s-1.08-2.7-4.41-2.7
		S63.43,285.96,63.43,285.96z"/>
	<path class="st10" d="M72.75,302.82c0,0-0.1,5.5-4.46,5.66c-4.36,0.16-3.45-5.27-3.45-5.27S68.02,301.92,72.75,302.82z"/>
	<rect x="113.04" y="331.41" class="st43" width="1.81" height="62.02"/>
	<rect x="33.47" y="331.41" class="st43" width="1.81" height="62.02"/>
</g>
<g>
	<g>
		<path class="st28" d="M336.22,117.55c-4.53-1.32-8.46-3.93-11.17-7.46c-3.07-4.01-4.23-8.73-3.26-13.29
			c1.25-9.12,0.4-19-0.58-25.85c-9.16-11.08-12.25-25.88-8.24-39.69c6.66-22.94,30.73-36.19,53.67-29.53
			c22.94,6.66,36.19,30.73,29.53,53.67c-3.62,12.49-12.52,22.56-24.47,27.71c-4.97,7.94-8.52,15.41-10.55,22.23
			c-2.06,9.31-12.52,14.97-23.34,12.63C337.27,117.84,336.74,117.7,336.22,117.55z M365.65,5.12c-21.06-6.11-43.17,6.05-49.28,27.12
			c-3.72,12.83-0.78,26.59,7.87,36.81l0.33,0.39l0.07,0.5c1.04,7.11,1.99,17.63,0.64,27.4l-0.02,0.13
			c-0.77,3.55,0.15,7.26,2.6,10.46c2.51,3.28,6.31,5.61,10.7,6.56c8.94,1.94,17.53-2.54,19.14-9.98l0.01-0.07l0.02-0.06
			c2.17-7.27,5.96-15.23,11.27-23.64l0.3-0.47l0.52-0.22c11.21-4.66,19.57-14.01,22.95-25.64C398.88,33.34,386.72,11.23,365.65,5.12
			z"/>
	</g>
	<g>
		<polygon class="st28" points="331.39,101.45 335.52,54.08 343.49,64.07 350.85,58.69 354.71,65.99 365.31,60.25 350.13,105.38 
			346.77,104.25 359.08,67.65 353.25,70.81 349.63,63.97 342.83,68.93 338.28,63.22 334.92,101.75 		"/>
	</g>
	<g>
		
			<rect x="322.02" y="113.58" transform="matrix(0.9773 0.2118 -0.2118 0.9773 33.0192 -68.735)" class="st28" width="30.73" height="12.38"/>
	</g>
	<g>
		
			<rect x="318.96" y="101.14" transform="matrix(0.9773 0.2118 -0.2118 0.9773 31.2244 -69.3285)" class="st28" width="40.61" height="19.93"/>
	</g>
</g>
</svg>
