<?xml version="1.0" encoding="utf-8"?>
<!-- Generator: Adobe Illustrator 24.0.1, SVG Export Plug-In . SVG Version: 6.00 Build 0)  -->
<svg version="1.1" id="Layer_1" xmlns="http://www.w3.org/2000/svg" xmlns:xlink="http://www.w3.org/1999/xlink" x="0px" y="0px"
	 viewBox="0 0 400 400" style="enable-background:new 0 0 400 400;" xml:space="preserve">
<style type="text/css">
	.st0{opacity:0.2;}
	.st1{fill:url(#SVGID_1_);}
	.st2{fill:url(#SVGID_2_);}
	.st3{fill:url(#SVGID_3_);}
	.st4{fill:#FFFFFF;}
	.st5{fill:url(#SVGID_4_);}
	.st6{fill:url(#SVGID_5_);}
	.st7{opacity:0.3;fill:url(#SVGID_6_);}
	.st8{fill:url(#SVGID_7_);}
	.st9{fill:url(#SVGID_8_);}
	.st10{fill:#BCBEC0;}
	.st11{fill:url(#SVGID_9_);}
	.st12{fill:url(#SVGID_10_);}
	.st13{opacity:0.2;fill:#231F20;}
	.st14{fill:url(#SVGID_11_);}
	.st15{fill:#B086CC;}
	.st16{fill:url(#SVGID_12_);}
	.st17{fill:url(#SVGID_13_);}
	.st18{fill:url(#SVGID_14_);}
	.st19{fill:url(#SVGID_15_);}
	.st20{fill:url(#SVGID_16_);}
	.st21{fill:url(#SVGID_17_);}
	.st22{fill:url(#SVGID_18_);}
	.st23{fill:url(#SVGID_19_);}
	.st24{fill:url(#SVGID_20_);}
	.st25{fill:url(#SVGID_21_);}
	.st26{fill:url(#SVGID_22_);}
	.st27{fill:url(#SVGID_23_);}
</style>
<g>
	<g>
		<g class="st0">
			<path d="M224.42,396.49L25.36,281.56c-7.86-4.54-6.88-12.47,2.2-17.71l112.97-65.23c9.08-5.24,22.81-5.81,30.67-1.27
				l199.06,114.93c7.86,4.54,6.88,12.47-2.2,17.71l-112.97,65.23C246.01,400.46,232.28,401.03,224.42,396.49z"/>
		</g>
		<linearGradient id="SVGID_1_" gradientUnits="userSpaceOnUse" x1="27.9091" y1="296.7457" x2="397.4566" y2="296.7457">
			<stop  offset="0.0556" style="stop-color:#9F79B8"/>
			<stop  offset="0.2575" style="stop-color:#A17BBA"/>
			<stop  offset="0.3569" style="stop-color:#A783BF"/>
			<stop  offset="0.4338" style="stop-color:#B290C9"/>
			<stop  offset="0.4949" style="stop-color:#C1A1D5"/>
			<stop  offset="0.5067" style="stop-color:#C4A5D7"/>
			<stop  offset="0.5196" style="stop-color:#CDB3DD"/>
			<stop  offset="0.5329" style="stop-color:#DBC8E7"/>
			<stop  offset="0.5466" style="stop-color:#EFE7F4"/>
			<stop  offset="0.5556" style="stop-color:#FFFFFF"/>
			<stop  offset="0.5678" style="stop-color:#ECE0F3"/>
			<stop  offset="0.5801" style="stop-color:#DDC8EA"/>
			<stop  offset="0.5915" style="stop-color:#D4B9E5"/>
			<stop  offset="0.601" style="stop-color:#D1B4E3"/>
			<stop  offset="0.658" style="stop-color:#B395D6"/>
			<stop  offset="0.7155" style="stop-color:#9C7DCB"/>
			<stop  offset="0.7687" style="stop-color:#8E6EC5"/>
			<stop  offset="0.8131" style="stop-color:#8969C3"/>
			<stop  offset="1" style="stop-color:#B086CC"/>
		</linearGradient>
		<path class="st1" d="M224.42,396.31L25.36,281.38c-3.5-2.02-5.25-4.72-5.31-7.55c0-0.09,0-9.77,0-9.86
			c0.06-3.44,2.61,2.53,7.51-0.3l112.97-65.23c9.08-5.24,22.81-5.81,30.67-1.27l199.06,114.93c2.62,1.52,4.53-4.92,5.21-2.87
			c0.23,0.68,0.08,9.7,0.1,10.41c0.08,3.52-2.47,7.26-7.51,10.17l-112.97,65.23C246.01,400.28,232.28,400.85,224.42,396.31z"/>
		<linearGradient id="SVGID_2_" gradientUnits="userSpaceOnUse" x1="20.0482" y1="287.0671" x2="375.5711" y2="287.0671">
			<stop  offset="0" style="stop-color:#2F054A"/>
			<stop  offset="1" style="stop-color:#5824B0"/>
		</linearGradient>
		<path class="st2" d="M224.42,386.63L25.36,271.7c-7.86-4.54-6.88-12.47,2.2-17.71l112.97-65.23c9.08-5.24,22.81-5.81,30.67-1.27
			l199.06,114.93c7.86,4.54,6.88,12.47-2.2,17.71l-112.97,65.23C246.01,390.6,232.28,391.17,224.42,386.63z"/>
		<linearGradient id="SVGID_3_" gradientUnits="userSpaceOnUse" x1="24.0243" y1="287.0673" x2="371.5948" y2="287.0673">
			<stop  offset="0" style="stop-color:#3D065F"/>
			<stop  offset="1" style="stop-color:#5F27BD"/>
		</linearGradient>
		<path class="st3" d="M237.74,385.72c-4.48,0-8.5-0.9-11.33-2.53L27.34,268.26c-1.24-0.72-3.32-2.22-3.32-4.25
			c0-2.12,2.06-4.58,5.52-6.57l112.97-65.23c4.19-2.42,9.79-3.8,15.36-3.8c4.48,0,8.5,0.9,11.33,2.53l199.06,114.93
			c1.24,0.72,3.32,2.22,3.32,4.25c0,2.12-2.06,4.58-5.52,6.57L253.1,381.92C248.92,384.34,243.32,385.72,237.74,385.72z"/>
		<path class="st4" d="M368.06,318.49l-112.97,65.23c-9.08,5.24-22.81,5.81-30.67,1.27L25.36,270.06c-3.26-1.88-4.98-4.35-5.25-6.97
			c-0.41,3.21,1.31,6.34,5.25,8.61l199.06,114.93c7.86,4.54,21.59,3.97,30.67-1.27l112.97-65.23c5.31-3.07,7.83-7.05,7.45-10.74
			C375.1,312.6,372.59,315.88,368.06,318.49z"/>
		
			<radialGradient id="SVGID_4_" cx="1120.4349" cy="-1941.3132" r="49.6921" gradientTransform="matrix(0.9456 -0.3253 0.1921 0.5584 -550.5136 1678.6171)" gradientUnits="userSpaceOnUse">
			<stop  offset="0" style="stop-color:#972A74"/>
			<stop  offset="0.0413" style="stop-color:#8A266A"/>
			<stop  offset="0.1941" style="stop-color:#601B4A"/>
			<stop  offset="0.35" style="stop-color:#3D112F"/>
			<stop  offset="0.5074" style="stop-color:#220A1B"/>
			<stop  offset="0.6667" style="stop-color:#0F040C"/>
			<stop  offset="0.8293" style="stop-color:#040103"/>
			<stop  offset="1" style="stop-color:#000000"/>
		</radialGradient>
		<path class="st5" d="M183.04,213.95c5.27,15.32-11.49,34.98-37.45,43.91c-25.95,8.93-51.26,3.74-56.54-11.58
			c-5.27-15.32,11.49-34.98,37.45-43.91C152.45,193.44,177.76,198.62,183.04,213.95z"/>
		
			<linearGradient id="SVGID_5_" gradientUnits="userSpaceOnUse" x1="-540.8192" y1="468.2952" x2="-702.8643" y2="345.797" gradientTransform="matrix(0.866 0.5 -1.5 0.2887 1367.2793 463.9515)">
			<stop  offset="0" style="stop-color:#3D065F"/>
			<stop  offset="1" style="stop-color:#12054E"/>
			<stop  offset="1" style="stop-color:#10054D"/>
		</linearGradient>
		<path class="st6" d="M259.8,344.3L98.15,250.97c-3.24-1.87-2.83-5.13,0.91-7.29l60.69-35.04c3.74-2.16,9.39-2.39,12.63-0.52
			l161.65,93.33c3.24,1.87,2.83,5.13-0.91,7.29l-60.69,35.04C268.69,345.93,263.03,346.17,259.8,344.3z"/>
		<linearGradient id="SVGID_6_" gradientUnits="userSpaceOnUse" x1="171.0426" y1="205.3734" x2="261.8218" y2="347.837">
			<stop  offset="0.0556" style="stop-color:#9F79B8"/>
			<stop  offset="0.2502" style="stop-color:#A17BBA"/>
			<stop  offset="0.3461" style="stop-color:#A883C0"/>
			<stop  offset="0.4204" style="stop-color:#B490CC"/>
			<stop  offset="0.4836" style="stop-color:#C5A3DC"/>
			<stop  offset="0.5392" style="stop-color:#DBBBF0"/>
			<stop  offset="0.5606" style="stop-color:#E6C6FA"/>
			<stop  offset="0.5967" style="stop-color:#D6B6F1"/>
			<stop  offset="0.6872" style="stop-color:#B595DD"/>
			<stop  offset="0.7735" style="stop-color:#9D7DCF"/>
			<stop  offset="0.8529" style="stop-color:#8E6EC6"/>
			<stop  offset="0.9192" style="stop-color:#8969C3"/>
		</linearGradient>
		<path class="st7" d="M163.28,215.46l10.36,5.98c1.32,0.76,3.45,0.76,4.76,0.01c1.31-0.76,1.3-1.99-0.01-2.75l-10.36-5.98
			c-1.32-0.76-3.45-0.76-4.76-0.01C161.96,213.47,161.96,214.7,163.28,215.46z M181.02,225.7l4.91,2.83
			c1.32,0.76,3.45,0.76,4.76,0.01c1.31-0.76,1.3-1.99-0.01-2.75l-4.91-2.83c-1.32-0.76-3.45-0.76-4.76-0.01
			C179.69,223.71,179.7,224.94,181.02,225.7z M193.3,232.79l4.91,2.83c1.32,0.76,3.45,0.76,4.76,0.01c1.31-0.76,1.3-1.99-0.01-2.75
			l-4.91-2.83c-1.32-0.76-3.45-0.76-4.76-0.01C191.98,230.8,191.98,232.03,193.3,232.79z M205.59,239.88l4.91,2.83
			c1.32,0.76,3.45,0.76,4.76,0.01c1.31-0.76,1.3-1.99-0.01-2.75l-4.91-2.83c-1.32-0.76-3.45-0.76-4.76-0.01
			C204.26,237.89,204.27,239.12,205.59,239.88z M217.87,246.97l4.91,2.83c1.32,0.76,3.45,0.76,4.76,0.01
			c1.31-0.76,1.3-1.99-0.01-2.75l-4.91-2.83c-1.32-0.76-3.45-0.76-4.76-0.01C216.55,244.98,216.55,246.21,217.87,246.97z
			 M230.15,254.07l4.91,2.83c1.32,0.76,3.45,0.76,4.76,0.01c1.31-0.76,1.3-1.99-0.01-2.75l-4.91-2.83
			c-1.32-0.76-3.45-0.76-4.76-0.01C228.83,252.08,228.84,253.31,230.15,254.07z M242.44,261.16l4.91,2.83
			c1.32,0.76,3.45,0.76,4.76,0.01c1.31-0.76,1.3-1.99-0.01-2.75l-4.91-2.83c-1.32-0.76-3.45-0.76-4.76-0.01
			C241.11,259.17,241.12,260.4,242.44,261.16z M254.72,268.25l4.91,2.83c1.32,0.76,3.45,0.76,4.76,0.01
			c1.31-0.76,1.3-1.99-0.01-2.75l-4.91-2.83c-1.32-0.76-3.45-0.76-4.76-0.01C253.4,266.26,253.4,267.49,254.72,268.25z
			 M267.01,275.34l4.91,2.83c1.32,0.76,3.45,0.76,4.76,0.01c1.31-0.76,1.3-1.99-0.01-2.75l-4.91-2.83
			c-1.32-0.76-3.45-0.76-4.76-0.01C265.68,273.35,265.69,274.58,267.01,275.34z M279.29,282.43l4.91,2.83
			c1.32,0.76,3.45,0.76,4.76,0.01c1.31-0.76,1.3-1.99-0.01-2.75l-4.91-2.83c-1.32-0.76-3.45-0.76-4.76-0.01
			C277.96,280.44,277.97,281.67,279.29,282.43z M291.57,289.53l4.91,2.83c1.32,0.76,3.45,0.76,4.76,0.01
			c1.31-0.76,1.3-1.98-0.01-2.75l-4.91-2.83c-1.32-0.76-3.45-0.76-4.76-0.01S290.26,288.77,291.57,289.53z M303.86,296.62l4.91,2.83
			c1.32,0.76,3.45,0.76,4.76,0.01c1.31-0.76,1.3-1.99-0.01-2.75l-4.91-2.83c-1.32-0.76-3.45-0.76-4.76-0.01
			C302.53,294.63,302.54,295.86,303.86,296.62z M316.4,303.86l4.91,2.83c1.32,0.76,3.45,0.76,4.76,0.01
			c1.31-0.76,1.3-1.99-0.01-2.75l-4.91-2.83c-1.32-0.76-3.45-0.76-4.76-0.01C315.07,301.87,315.08,303.1,316.4,303.86z
			 M152.23,222.22l4.25,2.45c1.5,0.87,3.92,0.87,5.41,0.01l4.22-2.44c1.49-0.86,1.48-2.26-0.02-3.12l-4.25-2.45
			c-1.5-0.87-3.92-0.87-5.41-0.01l-4.22,2.44C150.73,219.95,150.73,221.35,152.23,222.22z M174.18,231.77l4.22-2.44
			c1.49-0.86,1.48-2.26-0.02-3.12l-4.25-2.45c-1.5-0.87-3.92-0.87-5.41-0.01l-4.22,2.44c-1.49,0.86-1.48,2.26,0.02,3.12l4.25,2.45
			C170.26,232.63,172.69,232.63,174.18,231.77z M176.8,236.4l4.25,2.45c1.5,0.87,3.92,0.87,5.41,0.01l4.22-2.44
			c1.49-0.86,1.48-2.26-0.02-3.12l-4.25-2.45c-1.5-0.87-3.92-0.87-5.41-0.01l-4.22,2.44C175.29,234.14,175.3,235.54,176.8,236.4z
			 M189.09,243.49l4.25,2.45c1.5,0.87,3.92,0.87,5.41,0.01l4.22-2.44c1.49-0.86,1.48-2.26-0.02-3.12l-4.25-2.45
			c-1.5-0.87-3.92-0.87-5.41-0.01l-4.22,2.44C187.58,241.23,187.59,242.63,189.09,243.49z M215.23,247.49l-4.25-2.45
			c-1.5-0.87-3.92-0.87-5.41-0.01l-4.22,2.44c-1.49,0.86-1.48,2.26,0.02,3.12l4.25,2.45c1.5,0.87,3.92,0.87,5.41,0.01l4.22-2.44
			C216.74,249.75,216.73,248.35,215.23,247.49z M227.52,254.58l-4.25-2.45c-1.5-0.87-3.92-0.87-5.41-0.01l-4.22,2.44
			c-1.49,0.86-1.48,2.26,0.02,3.12l4.25,2.45c1.5,0.87,3.92,0.87,5.41,0.01l4.22-2.44C229.02,256.84,229.02,255.44,227.52,254.58z
			 M239.8,261.67l-4.25-2.45c-1.5-0.87-3.92-0.87-5.41-0.01l-4.22,2.44c-1.49,0.86-1.48,2.26,0.02,3.12l4.25,2.45
			c1.5,0.87,3.92,0.87,5.41,0.01l4.22-2.44C241.31,263.93,241.3,262.54,239.8,261.67z M252.09,268.76l-4.25-2.45
			c-1.5-0.87-3.92-0.87-5.41-0.01l-4.22,2.44c-1.49,0.86-1.48,2.26,0.02,3.12l4.25,2.45c1.5,0.87,3.92,0.87,5.41,0.01l4.22-2.44
			C253.59,271.03,253.59,269.63,252.09,268.76z M264.37,275.85l-4.25-2.45c-1.5-0.87-3.92-0.87-5.41-0.01l-4.22,2.44
			c-1.49,0.86-1.48,2.26,0.02,3.12l4.25,2.45c1.5,0.87,3.92,0.87,5.41,0.01l4.22-2.44C265.88,278.12,265.87,276.72,264.37,275.85z
			 M276.65,282.95l-4.25-2.45c-1.5-0.87-3.92-0.87-5.41-0.01l-4.22,2.44c-1.49,0.86-1.48,2.26,0.02,3.12l4.25,2.45
			c1.5,0.87,3.92,0.87,5.41,0.01l4.22-2.44C278.16,285.21,278.15,283.81,276.65,282.95z M275.07,293.14l4.25,2.45
			c1.5,0.87,3.92,0.87,5.41,0.01l4.22-2.44c1.49-0.86,1.48-2.26-0.02-3.12l-4.25-2.45c-1.5-0.87-3.92-0.87-5.41-0.01l-4.22,2.44
			C273.57,290.87,273.57,292.27,275.07,293.14z M301.22,297.13l-4.25-2.45c-1.5-0.87-3.92-0.87-5.41-0.01l-4.22,2.44
			c-1.49,0.86-1.48,2.26,0.02,3.12l4.25,2.45c1.5,0.87,3.92,0.87,5.41,0.01l4.22-2.44C302.73,299.4,302.72,298,301.22,297.13z
			 M319.21,307.52l-9.7-5.6c-1.5-0.87-3.92-0.87-5.41-0.01l-4.22,2.44c-1.49,0.86-1.48,2.26,0.02,3.12l9.7,5.6
			c1.5,0.87,3.92,0.87,5.41,0.01l4.22-2.44C320.72,309.78,320.71,308.38,319.21,307.52z M140.86,228.79l9.7,5.6
			c1.5,0.87,3.92,0.87,5.41,0.01l4.22-2.44c1.49-0.86,1.48-2.26-0.02-3.12l-9.7-5.6c-1.5-0.87-3.92-0.87-5.41-0.01l-4.22,2.44
			C139.35,226.52,139.36,227.92,140.86,228.79z M158.59,239.03l4.25,2.45c1.5,0.87,3.92,0.87,5.41,0.01l4.22-2.44
			c1.49-0.86,1.48-2.26-0.02-3.12l-4.25-2.45c-1.5-0.87-3.92-0.87-5.41-0.01l-4.22,2.44C157.08,236.76,157.09,238.16,158.59,239.03z
			 M175.12,248.57c1.5,0.87,3.92,0.87,5.41,0.01l4.22-2.44c1.49-0.86,1.48-2.26-0.02-3.12l-4.25-2.45c-1.5-0.87-3.92-0.87-5.41-0.01
			l-4.22,2.44c-1.49,0.86-1.48,2.26,0.02,3.12L175.12,248.57z M187.41,255.66c1.5,0.87,3.92,0.87,5.41,0.01l4.22-2.44
			c1.49-0.86,1.48-2.26-0.02-3.12l-4.25-2.45c-1.5-0.87-3.92-0.87-5.41-0.01l-4.22,2.44c-1.49,0.86-1.48,2.26,0.02,3.12
			L187.41,255.66z M199.65,254.74l-4.22,2.44c-1.49,0.86-1.48,2.26,0.02,3.12l4.25,2.45c1.5,0.87,3.92,0.87,5.41,0.01l4.22-2.44
			c1.49-0.86,1.48-2.26-0.02-3.12l-4.25-2.45C203.56,253.88,201.14,253.88,199.65,254.74z M212.19,261.68l-4.74,2.74
			c-1.35,0.78-1.34,2.04,0.02,2.82l4.77,2.75c1.36,0.78,3.54,0.79,4.89,0.01l4.74-2.74c1.35-0.78,1.34-2.04-0.02-2.82l-4.77-2.75
			C215.73,260.91,213.54,260.9,212.19,261.68z M224.48,268.77l-4.74,2.74c-1.35,0.78-1.34,2.04,0.02,2.82l4.77,2.75
			c1.36,0.78,3.54,0.79,4.89,0.01l4.74-2.74c1.35-0.78,1.34-2.04-0.02-2.82l-4.77-2.75C228.01,268,225.82,268,224.48,268.77z
			 M236.76,275.87l-4.74,2.74c-1.35,0.78-1.34,2.04,0.02,2.82l4.77,2.75c1.36,0.78,3.54,0.79,4.89,0.01l4.74-2.74
			c1.35-0.78,1.34-2.04-0.02-2.82l-4.77-2.75C240.3,275.09,238.11,275.09,236.76,275.87z M249.04,282.96l-4.74,2.74
			c-1.35,0.78-1.34,2.04,0.02,2.82l4.77,2.75c1.35,0.78,3.54,0.79,4.89,0.01l4.74-2.74c1.35-0.78,1.34-2.04-0.02-2.82l-4.77-2.75
			C252.58,282.19,250.39,282.18,249.04,282.96z M261.33,290.05l-4.74,2.74c-1.35,0.78-1.34,2.04,0.02,2.82l4.77,2.75
			c1.35,0.78,3.54,0.79,4.89,0.01l4.74-2.74c1.35-0.78,1.34-2.04-0.02-2.82l-4.77-2.75C264.86,289.28,262.67,289.27,261.33,290.05z
			 M278.55,305.47l4.74-2.74c1.35-0.78,1.34-2.04-0.02-2.82l-4.77-2.75c-1.36-0.78-3.54-0.79-4.89-0.01l-4.74,2.74
			c-1.35,0.78-1.34,2.04,0.02,2.82l4.77,2.75C275.01,306.24,277.2,306.24,278.55,305.47z M290.83,312.56l4.74-2.74
			c1.35-0.78,1.34-2.04-0.02-2.82l-4.77-2.75c-1.36-0.78-3.54-0.79-4.89-0.01l-4.74,2.74c-1.35,0.78-1.34,2.04,0.02,2.82l4.77,2.75
			C287.3,313.33,289.49,313.34,290.83,312.56z M308.1,314.24l-4.77-2.75c-1.35-0.78-3.54-0.79-4.89-0.01l-4.74,2.74
			c-1.35,0.78-1.34,2.04,0.02,2.82l4.77,2.75c1.36,0.78,3.54,0.79,4.89,0.01l4.74-2.74C309.46,316.28,309.45,315.02,308.1,314.24z
			 M129.22,235.2l15.4,8.89c1.36,0.78,3.54,0.79,4.89,0.01l4.74-2.74c1.35-0.78,1.34-2.04-0.02-2.82l-15.4-8.89
			c-1.36-0.78-3.54-0.79-4.89-0.01l-4.74,2.74C127.86,233.16,127.86,234.42,129.22,235.2z M152.13,248.43l4.77,2.75
			c1.36,0.78,3.54,0.79,4.89,0.01l4.74-2.74c1.35-0.78,1.34-2.04-0.02-2.82l-4.77-2.75c-1.35-0.78-3.54-0.79-4.89-0.01l-4.74,2.74
			C150.77,246.39,150.78,247.65,152.13,248.43z M164.42,255.53l4.77,2.75c1.36,0.78,3.54,0.79,4.89,0.01l4.74-2.74
			c1.35-0.78,1.34-2.04-0.02-2.82l-4.77-2.75c-1.35-0.78-3.54-0.79-4.89-0.01l-4.74,2.74C163.05,253.48,163.06,254.74,164.42,255.53
			z M176.7,262.62l4.77,2.75c1.35,0.78,3.54,0.79,4.89,0.01l4.74-2.74c1.35-0.78,1.34-2.04-0.02-2.82l-4.77-2.75
			c-1.35-0.78-3.54-0.79-4.89-0.01l-4.74,2.74C175.34,260.57,175.35,261.84,176.7,262.62z M198.65,272.47l4.74-2.74
			c1.35-0.78,1.34-2.04-0.02-2.82l-4.77-2.75c-1.36-0.78-3.55-0.79-4.89-0.01l-4.74,2.74c-1.35,0.78-1.34,2.04,0.02,2.82l4.77,2.75
			C195.11,273.25,197.3,273.25,198.65,272.47z M210.93,279.57l4.74-2.74c1.35-0.78,1.34-2.04-0.02-2.82l-4.77-2.75
			c-1.36-0.78-3.54-0.79-4.89-0.01l-4.74,2.74c-1.35,0.78-1.34,2.04,0.02,2.82l4.77,2.75C207.39,280.34,209.58,280.34,210.93,279.57
			z M223.21,286.66l4.74-2.74c1.35-0.78,1.34-2.04-0.02-2.82l-4.77-2.75c-1.36-0.78-3.54-0.79-4.89-0.01l-4.74,2.74
			c-1.35,0.78-1.34,2.04,0.02,2.82l4.77,2.75C219.68,287.43,221.87,287.43,223.21,286.66z M235.5,293.75l4.74-2.74
			c1.35-0.78,1.34-2.04-0.02-2.82l-4.77-2.75c-1.35-0.78-3.54-0.79-4.89-0.01l-4.74,2.74c-1.35,0.78-1.34,2.04,0.02,2.82l4.77,2.75
			C231.96,294.52,234.15,294.53,235.5,293.75z M247.78,300.84l4.74-2.74c1.35-0.78,1.34-2.04-0.02-2.82l-4.77-2.75
			c-1.36-0.78-3.54-0.79-4.89-0.01l-4.74,2.74c-1.35,0.78-1.34,2.04,0.02,2.82l4.77,2.75C244.25,301.62,246.44,301.62,247.78,300.84
			z M260.07,307.93l4.74-2.74c1.35-0.78,1.34-2.04-0.02-2.82l-4.77-2.75c-1.35-0.78-3.54-0.79-4.89-0.01l-4.74,2.74
			c-1.35,0.78-1.34,2.04,0.02,2.82l4.77,2.75C256.53,308.71,258.72,308.71,260.07,307.93z M262.69,312.26l4.77,2.75
			c1.36,0.78,3.55,0.79,4.89,0.01l4.74-2.74c1.35-0.78,1.34-2.04-0.02-2.82l-4.77-2.75c-1.35-0.78-3.54-0.79-4.89-0.01l-4.74,2.74
			C261.33,310.22,261.33,311.48,262.69,312.26z M296.72,320.81l-12.13-7c-1.35-0.78-3.54-0.79-4.89-0.01l-4.74,2.74
			c-1.35,0.78-1.34,2.04,0.02,2.82l12.13,7c1.36,0.78,3.54,0.79,4.89,0.01l4.74-2.74C298.08,322.85,298.07,321.59,296.72,320.81z
			 M117.89,242.11l21.85,12.62c1.53,0.88,4,0.89,5.53,0.01l4.11-2.37c1.52-0.88,1.51-2.31-0.02-3.19l-21.85-12.62
			c-1.53-0.88-4-0.89-5.53-0.01l-4.11,2.37C116.35,239.8,116.36,241.23,117.89,242.11z M147.89,259.43l4.13,2.39
			c1.53,0.88,4,0.89,5.53,0.01l4.11-2.37c1.52-0.88,1.51-2.31-0.02-3.19l-4.13-2.39c-1.53-0.88-4-0.89-5.53-0.01l-4.11,2.37
			C146.35,257.12,146.36,258.55,147.89,259.43z M160.17,266.53l4.13,2.39c1.53,0.88,4,0.89,5.53,0.01l4.11-2.37
			c1.52-0.88,1.51-2.31-0.02-3.19l-4.13-2.39c-1.53-0.88-4-0.89-5.53-0.01l-4.11,2.37C158.63,264.21,158.64,265.64,160.17,266.53z
			 M172.46,273.62l4.13,2.39c1.53,0.88,4,0.89,5.53,0.01l4.11-2.37c1.52-0.88,1.51-2.31-0.02-3.19l-4.13-2.39
			c-1.53-0.88-4-0.89-5.53-0.01l-4.11,2.37C170.92,271.31,170.93,272.74,172.46,273.62z M184.74,280.71l4.13,2.39
			c1.53,0.88,4,0.89,5.53,0.01l4.11-2.37c1.52-0.88,1.51-2.31-0.02-3.19l-4.13-2.39c-1.53-0.88-4-0.89-5.53-0.01l-4.11,2.37
			C183.2,278.4,183.21,279.83,184.74,280.71z M197.02,287.8l4.13,2.39c1.53,0.88,4,0.89,5.53,0.01l4.11-2.37
			c1.52-0.88,1.51-2.31-0.02-3.19l-4.13-2.39c-1.53-0.88-4-0.89-5.53-0.01l-4.11,2.37C195.49,285.49,195.49,286.92,197.02,287.8z
			 M209.31,294.9l4.13,2.39c1.53,0.88,4,0.89,5.53,0.01l4.11-2.37c1.52-0.88,1.51-2.31-0.02-3.19l-4.13-2.39
			c-1.53-0.88-4-0.89-5.53-0.01l-4.11,2.37C207.77,292.58,207.78,294.01,209.31,294.9z M221.59,301.99l4.13,2.39
			c1.53,0.88,4,0.89,5.53,0.01l4.11-2.37c1.52-0.88,1.51-2.31-0.02-3.19l-4.13-2.39c-1.53-0.88-4-0.89-5.53-0.01l-4.11,2.37
			C220.05,299.68,220.06,301.1,221.59,301.99z M233.88,309.08l4.13,2.39c1.53,0.88,4,0.89,5.53,0.01l4.11-2.37
			c1.52-0.88,1.51-2.31-0.02-3.19l-4.13-2.39c-1.53-0.88-4-0.89-5.53-0.01l-4.11,2.37C232.34,306.77,232.35,308.2,233.88,309.08z
			 M246.16,316.17l4.13,2.39c1.53,0.88,4,0.89,5.53,0.01l4.11-2.37c1.52-0.88,1.51-2.31-0.02-3.19l-4.13-2.39
			c-1.53-0.88-4-0.89-5.53-0.01l-4.11,2.37C244.62,313.86,244.63,315.29,246.16,316.17z M258.44,323.26l4.13,2.39
			c1.53,0.88,4,0.89,5.53,0.01l4.11-2.37c1.52-0.88,1.51-2.31-0.02-3.19l-4.13-2.39c-1.53-0.88-4-0.89-5.53-0.01l-4.11,2.37
			C256.91,320.95,256.91,322.38,258.44,323.26z M284.75,327.35l-4.13-2.39c-1.53-0.88-4-0.89-5.53-0.01l-4.11,2.37
			c-1.52,0.88-1.51,2.31,0.02,3.19l4.13,2.39c1.53,0.88,4,0.89,5.53,0.01l4.11-2.37C286.29,329.66,286.28,328.23,284.75,327.35z
			 M125.71,248.66l-9.59-5.53c-1.53-0.88-4-0.89-5.53-0.01l-4.11,2.37c-1.52,0.88-1.51,2.31,0.02,3.19l9.59,5.53
			c1.53,0.88,4,0.89,5.53,0.01l4.11-2.37C127.25,250.98,127.24,249.55,125.71,248.66z M138,255.76l-4.13-2.39
			c-1.53-0.88-4-0.89-5.53-0.01l-4.11,2.37c-1.52,0.88-1.51,2.31,0.02,3.19l4.13,2.39c1.53,0.88,4,0.89,5.53,0.01l4.11-2.37
			C139.53,258.07,139.53,256.64,138,255.76z M150.28,262.85l-4.13-2.39c-1.53-0.88-4-0.89-5.53-0.01l-4.11,2.37
			c-1.52,0.88-1.51,2.31,0.02,3.19l4.13,2.39c1.53,0.88,4,0.89,5.53,0.01l4.11-2.37C151.82,265.16,151.81,263.73,150.28,262.85z
			 M236.27,312.49l-77.84-44.94c-1.53-0.88-4-0.89-5.53-0.01l-4.11,2.37c-1.52,0.88-1.51,2.31,0.02,3.19l77.84,44.94
			c1.53,0.88,4,0.89,5.53,0.01l4.11-2.37C237.81,314.81,237.8,313.38,236.27,312.49z M248.55,319.59l-4.13-2.39
			c-1.53-0.88-4-0.89-5.53-0.01l-4.11,2.37c-1.52,0.88-1.51,2.31,0.02,3.19l4.13,2.39c1.53,0.88,4,0.89,5.53,0.01l4.11-2.37
			C250.09,321.9,250.08,320.47,248.55,319.59z M260.84,326.68l-4.13-2.39c-1.53-0.88-4-0.89-5.53-0.01l-4.11,2.37
			c-1.52,0.88-1.51,2.31,0.02,3.19l4.13,2.39c1.53,0.88,4,0.89,5.53,0.01l4.11-2.37C262.37,328.99,262.37,327.56,260.84,326.68z
			 M273.37,333.92l-4.13-2.39c-1.53-0.88-4-0.89-5.53-0.01l-4.11,2.37c-1.52,0.88-1.51,2.31,0.02,3.19l4.13,2.39
			c1.53,0.88,4,0.89,5.53,0.01l4.11-2.37C274.91,336.23,274.91,334.8,273.37,333.92z"/>
		<g>
			
				<linearGradient id="SVGID_7_" gradientUnits="userSpaceOnUse" x1="5105.5679" y1="-49.698" x2="4735.707" y2="271.5648" gradientTransform="matrix(-1 0 0 1 5144.1714 0)">
				<stop  offset="0" style="stop-color:#3D065F"/>
				<stop  offset="1" style="stop-color:#5F27BD"/>
			</linearGradient>
			<path class="st8" d="M367.11,300.9l-191.8-110.8c-7.43-4.29-13.45-15.79-13.45-25.69V13.95c0-9.9,6.02-14.45,13.45-10.16
				l191.8,110.8c7.43,4.29,13.45,15.79,13.45,25.69v150.46C380.55,300.64,374.54,305.19,367.11,300.9z"/>
			
				<linearGradient id="SVGID_8_" gradientUnits="userSpaceOnUse" x1="1344.3955" y1="287.8418" x2="1167.9158" y2="14.2464" gradientTransform="matrix(1 0 0 1 -985.5782 0)">
				<stop  offset="0.0303" style="stop-color:#7C1DC9"/>
				<stop  offset="0.2138" style="stop-color:#6E41D2"/>
				<stop  offset="0.6184" style="stop-color:#4C9BE8"/>
				<stop  offset="1" style="stop-color:#2AF6FF"/>
			</linearGradient>
			<path class="st9" d="M368.84,293.17L179.09,183.56c-5.98-3.8-9.67-11.39-9.67-19.15V13.22c0-1.84,2-2.98,3.59-2.05
				c0.18,0.11,0.33,0.19,0.42,0.25l189.91,109.71c7.11,4.1,9.67,11.39,9.67,19.15v150.84c0,1.97-2.13,3.21-3.85,2.23
				C369.02,293.27,368.91,293.21,368.84,293.17z"/>
			<path class="st10" d="M363.33,121.12L173.43,11.41c-0.09-0.05-0.24-0.14-0.42-0.25c-1.59-0.93-3.59,0.21-3.59,2.05v151.19
				c0,7.77,3.7,15.35,9.67,19.15l189.75,109.61c0.07,0.04,0.18,0.1,0.31,0.18c1.71,0.98,3.85-0.26,3.85-2.23V140.28
				C373,132.51,370.45,125.23,363.33,121.12z M371.49,291.12c0,0.66-0.55,1.06-1.07,1.06c-0.18,0-0.36-0.05-0.52-0.14L179.84,182.26
				c-5.4-3.43-8.92-10.45-8.92-17.84V13.22c0-0.54,0.46-0.87,0.88-0.87c0.15,0,0.3,0.04,0.44,0.12l190.33,109.96
				c7.37,4.25,8.92,12.05,8.92,17.84V291.12z"/>
			
				<linearGradient id="SVGID_9_" gradientUnits="userSpaceOnUse" x1="1413.3668" y1="309.2166" x2="1231.5577" y2="18.7104" gradientTransform="matrix(1 0 0 1 -985.5782 0)">
				<stop  offset="0.0556" style="stop-color:#9F79B8"/>
				<stop  offset="0.2575" style="stop-color:#A17BBA"/>
				<stop  offset="0.3569" style="stop-color:#A783BF"/>
				<stop  offset="0.4338" style="stop-color:#B290C9"/>
				<stop  offset="0.4949" style="stop-color:#C1A1D5"/>
				<stop  offset="0.5067" style="stop-color:#C4A5D7"/>
				<stop  offset="0.5196" style="stop-color:#CDB3DD"/>
				<stop  offset="0.5329" style="stop-color:#DBC8E7"/>
				<stop  offset="0.5466" style="stop-color:#EFE7F4"/>
				<stop  offset="0.5556" style="stop-color:#FFFFFF"/>
				<stop  offset="0.5678" style="stop-color:#ECE0F3"/>
				<stop  offset="0.5801" style="stop-color:#DDC8EA"/>
				<stop  offset="0.5915" style="stop-color:#D4B9E5"/>
				<stop  offset="0.601" style="stop-color:#D1B4E3"/>
				<stop  offset="0.6124" style="stop-color:#CFB2E2"/>
				<stop  offset="0.7562" style="stop-color:#BE9AD6"/>
				<stop  offset="0.8892" style="stop-color:#B48BCF"/>
				<stop  offset="1" style="stop-color:#B086CC"/>
			</linearGradient>
			<path class="st11" d="M370.92,112.56L179.12,1.76c-2.94-1.7-5.66-2.01-7.87-1.15c-0.28,0.11-4.03,2.1-4.29,2.25
				c-0.01,0-0.01,0.01-0.01,0.01c2.29-1.11,5.2-0.9,8.36,0.92l191.8,110.8c7.43,4.29,13.45,15.79,13.45,25.69v150.46
				c0,6.18-2.35,10.27-5.91,11.44c0.29,0.02,0.65-0.1,1.18-0.4c0.17-0.1,4.24-2.39,4.4-2.51c2.55-1.79,4.14-5.46,4.14-10.55V138.25
				C384.37,128.35,378.35,116.85,370.92,112.56z"/>
			
				<radialGradient id="SVGID_10_" cx="1361.4902" cy="130.7375" r="30.8982" gradientTransform="matrix(1 0 0 1 -985.5782 0)" gradientUnits="userSpaceOnUse">
				<stop  offset="0" style="stop-color:#FFFFFF"/>
				<stop  offset="1" style="stop-color:#000000"/>
			</radialGradient>
			<path class="st12" d="M367.75,114.26L175.95,3.46c-3.04-1.76-5.84-2.01-8.1-1.03c1.92-0.31,4.13,0.16,6.49,1.52l191.8,110.8
				c7.43,4.29,13.45,15.79,13.45,25.69V290.9c0,5.84-2.1,9.8-5.35,11.2c4.15-0.66,6.96-4.92,6.96-11.68V139.95
				C381.2,130.05,375.18,118.55,367.75,114.26z"/>
		</g>
	</g>
	<path class="st13" d="M337.22,133.86L200.79,56.34c-0.35,18.16-0.03,75.07-0.13,93.66c-0.16,30.11-4.67,53.82-39.43,81.03
		c-11.06,8.66-59.86,35.24-99.45,56.05c-16.06,8.44-17.28,12-25.41,18.88c-7.87,6.67-19.95,12.87-23.48,14.92l135.52,78.37
		c2.53-1.5,15.72-8.12,24.38-15.45c8.12-6.88,9.34-14.22,25.41-22.66c39.59-20.81,107.43-62.47,119.48-69.69
		c15.45-9.27,19.4-15.11,19.4-39.48C337.08,233.26,336.86,151.69,337.22,133.86z"/>
	<linearGradient id="SVGID_11_" gradientUnits="userSpaceOnUse" x1="122.3717" y1="373.8802" x2="283.7357" y2="98.9838">
		<stop  offset="0.0556" style="stop-color:#E6E7E8"/>
		<stop  offset="0.0769" style="stop-color:#ECEDEE"/>
		<stop  offset="0.1212" style="stop-color:#F3F4F5"/>
		<stop  offset="0.2172" style="stop-color:#E6E7E8"/>
		<stop  offset="0.5808" style="stop-color:#FAFAFB"/>
		<stop  offset="0.6869" style="stop-color:#E6E7E8"/>
		<stop  offset="1" style="stop-color:#E6E7E8"/>
	</linearGradient>
	<path class="st14" d="M337.22,124.93L200.79,47.41c-0.35,18.16-0.03,75.07-0.13,93.66c-0.16,30.11-4.67,53.82-39.43,81.03
		c-11.06,8.66-59.86,35.24-99.45,56.05c-16.06,8.44-18.66,19.21-26.78,26.09c-7.87,6.67-16.6,8.49-20.13,10.55l135.52,78.37
		c2.53-1.5,12.37-3.74,21.03-11.07c8.12-6.88,10.72-17.65,26.78-26.09c39.59-20.81,88.39-47.39,99.45-56.05
		c34.76-27.21,39.26-50.92,39.43-81.03C337.18,200.21,336.86,142.76,337.22,124.93z"/>
	<g>
		<g>
			<path class="st15" d="M257.26,187.61c-0.12,0-0.24-0.03-0.35-0.09l-0.14-0.08c-0.33-0.19-0.44-0.61-0.25-0.94
				c0.01-0.02,0.03-0.05,0.04-0.07v-3.47c0-0.38,0.31-0.69,0.69-0.69c0.38,0,0.69,0.31,0.69,0.69v3.96c0,0.25-0.13,0.47-0.34,0.6
				C257.49,187.58,257.37,187.61,257.26,187.61z M253.55,185.46c-0.12,0-0.24-0.03-0.34-0.09l-3.56-2.07
				c-0.33-0.19-0.44-0.61-0.25-0.94c0.19-0.33,0.61-0.44,0.94-0.25l3.56,2.07c0.33,0.19,0.44,0.61,0.25,0.94
				C254.02,185.34,253.79,185.46,253.55,185.46z M246.43,181.32c-0.12,0-0.24-0.03-0.34-0.09l-3.56-2.07
				c-0.33-0.19-0.44-0.61-0.25-0.94c0.19-0.33,0.61-0.44,0.94-0.25l3.56,2.07c0.33,0.19,0.44,0.61,0.25,0.94
				C246.89,181.2,246.66,181.32,246.43,181.32z M257.26,179.53c-0.38,0-0.69-0.31-0.69-0.69v-4.12c0-0.38,0.31-0.69,0.69-0.69
				c0.38,0,0.69,0.31,0.69,0.69v4.12C257.94,179.22,257.64,179.53,257.26,179.53z M239.3,177.19c-0.12,0-0.24-0.03-0.34-0.09
				l-3.56-2.07c-0.33-0.19-0.44-0.61-0.25-0.94c0.19-0.33,0.61-0.44,0.94-0.25l3.56,2.07c0.33,0.19,0.44,0.61,0.25,0.94
				C239.77,177.07,239.54,177.19,239.3,177.19z M232.17,173.05c-0.12,0-0.24-0.03-0.34-0.09l-3.56-2.07
				c-0.33-0.19-0.44-0.61-0.25-0.94c0.19-0.33,0.61-0.44,0.94-0.25l3.56,2.07c0.33,0.19,0.44,0.61,0.25,0.94
				C232.64,172.93,232.41,173.05,232.17,173.05z M257.26,171.29c-0.38,0-0.69-0.31-0.69-0.69v-4.12c0-0.38,0.31-0.69,0.69-0.69
				c0.38,0,0.69,0.31,0.69,0.69v4.12C257.94,170.98,257.64,171.29,257.26,171.29z M225.05,168.92c-0.12,0-0.24-0.03-0.34-0.09
				l-3.56-2.07c-0.33-0.19-0.44-0.61-0.25-0.94c0.19-0.33,0.61-0.44,0.94-0.25l3.56,2.07c0.33,0.19,0.44,0.61,0.25,0.94
				C225.51,168.8,225.28,168.92,225.05,168.92z M217.92,164.78c-0.12,0-0.24-0.03-0.34-0.09l-3.56-2.07
				c-0.21-0.12-0.34-0.35-0.34-0.59v-2.3c0-0.38,0.31-0.69,0.69-0.69c0.38,0,0.69,0.31,0.69,0.69v1.91l3.22,1.87
				c0.33,0.19,0.44,0.61,0.25,0.94C218.38,164.66,218.15,164.78,217.92,164.78z M257.26,163.05c-0.38,0-0.69-0.31-0.69-0.69v-4.12
				c0-0.38,0.31-0.69,0.69-0.69c0.38,0,0.69,0.31,0.69,0.69v4.12C257.94,162.74,257.64,163.05,257.26,163.05z M214.35,156.29
				c-0.38,0-0.69-0.31-0.69-0.69v-4.12c0-0.38,0.31-0.69,0.69-0.69c0.38,0,0.69,0.31,0.69,0.69v4.12
				C215.04,155.99,214.73,156.29,214.35,156.29z M257.26,154.81c-0.38,0-0.69-0.31-0.69-0.69V150c0-0.38,0.31-0.69,0.69-0.69
				c0.38,0,0.69,0.31,0.69,0.69v4.12C257.94,154.5,257.64,154.81,257.26,154.81z M214.35,148.06c-0.38,0-0.69-0.31-0.69-0.69v-4.12
				c0-0.38,0.31-0.69,0.69-0.69c0.38,0,0.69,0.31,0.69,0.69v4.12C215.04,147.75,214.73,148.06,214.35,148.06z M257.26,146.57
				c-0.38,0-0.69-0.31-0.69-0.69v-0.76l-2.23-1.29c-0.33-0.19-0.44-0.61-0.25-0.94c0.19-0.33,0.61-0.44,0.94-0.25l2.57,1.49
				c0.21,0.12,0.34,0.35,0.34,0.59v1.15C257.94,146.26,257.64,146.57,257.26,146.57z M251.12,141.86c-0.12,0-0.24-0.03-0.34-0.09
				l-3.56-2.07c-0.33-0.19-0.44-0.61-0.25-0.94c0.19-0.33,0.61-0.44,0.94-0.25l3.56,2.07c0.33,0.19,0.44,0.61,0.25,0.94
				C251.59,141.74,251.36,141.86,251.12,141.86z M214.35,139.82c-0.38,0-0.69-0.31-0.69-0.69v-4.12c0-0.38,0.31-0.69,0.69-0.69
				c0.38,0,0.69,0.31,0.69,0.69v4.12C215.04,139.51,214.73,139.82,214.35,139.82z M244,137.72c-0.12,0-0.24-0.03-0.34-0.09
				l-3.56-2.07c-0.33-0.19-0.44-0.61-0.25-0.94c0.19-0.33,0.61-0.44,0.94-0.25l3.56,2.07c0.33,0.19,0.44,0.61,0.25,0.94
				C244.46,137.6,244.23,137.72,244,137.72z M236.87,133.59c-0.12,0-0.24-0.03-0.34-0.09l-3.56-2.07c-0.33-0.19-0.44-0.61-0.25-0.94
				c0.19-0.33,0.61-0.44,0.94-0.25l3.56,2.07c0.33,0.19,0.44,0.61,0.25,0.94C237.34,133.47,237.11,133.59,236.87,133.59z
				 M214.35,131.58c-0.38,0-0.69-0.31-0.69-0.69v-4.12c0-0.38,0.31-0.69,0.69-0.69c0.38,0,0.69,0.31,0.69,0.69v4.12
				C215.04,131.27,214.73,131.58,214.35,131.58z M229.74,129.46c-0.12,0-0.24-0.03-0.34-0.09l-3.56-2.07
				c-0.33-0.19-0.44-0.61-0.25-0.94c0.19-0.33,0.61-0.44,0.94-0.25l3.56,2.07c0.33,0.19,0.44,0.61,0.25,0.94
				C230.21,129.33,229.98,129.46,229.74,129.46z M222.62,125.32c-0.12,0-0.24-0.03-0.34-0.09l-3.56-2.07
				c-0.33-0.19-0.44-0.61-0.25-0.94c0.19-0.33,0.61-0.44,0.94-0.25l3.56,2.07c0.33,0.19,0.44,0.61,0.25,0.94
				C223.08,125.2,222.85,125.32,222.62,125.32z M214.35,123.34c-0.38,0-0.69-0.31-0.69-0.69v-2.81c0-0.25,0.13-0.47,0.34-0.59
				c0.22-0.12,0.48-0.12,0.69,0l1.13,0.66c0.33,0.19,0.44,0.61,0.25,0.94c-0.19,0.33-0.61,0.44-0.94,0.25l-0.1-0.06v1.62
				C215.04,123.03,214.73,123.34,214.35,123.34z"/>
		</g>
		<g>
			<path class="st15" d="M323.17,204.09c-0.38,0-0.69-0.31-0.69-0.69v-4.12c0-0.38,0.31-0.69,0.69-0.69c0.38,0,0.69,0.31,0.69,0.69
				v4.12C323.86,203.78,323.55,204.09,323.17,204.09z M320.12,202.96c-0.12,0-0.23-0.03-0.34-0.09l-3.58-2.04
				c-0.33-0.19-0.45-0.61-0.26-0.94c0.19-0.33,0.6-0.44,0.94-0.26l3.58,2.04c0.33,0.19,0.45,0.61,0.26,0.94
				C320.59,202.84,320.36,202.96,320.12,202.96z M312.96,198.88c-0.12,0-0.23-0.03-0.34-0.09l-3.58-2.04
				c-0.33-0.19-0.45-0.61-0.26-0.94c0.19-0.33,0.61-0.44,0.94-0.26l3.58,2.04c0.33,0.19,0.45,0.61,0.26,0.94
				C313.43,198.76,313.2,198.88,312.96,198.88z M323.17,195.85c-0.38,0-0.69-0.31-0.69-0.69v-4.12c0-0.38,0.31-0.69,0.69-0.69
				c0.38,0,0.69,0.31,0.69,0.69v4.12C323.86,195.54,323.55,195.85,323.17,195.85z M305.8,194.81c-0.12,0-0.23-0.03-0.34-0.09
				l-3.58-2.04c-0.33-0.19-0.45-0.61-0.26-0.94c0.19-0.33,0.61-0.45,0.94-0.26l3.58,2.04c0.33,0.19,0.45,0.61,0.26,0.94
				C306.27,194.68,306.04,194.81,305.8,194.81z M298.64,190.73c-0.12,0-0.23-0.03-0.34-0.09l-3.58-2.04
				c-0.33-0.19-0.45-0.61-0.26-0.94c0.19-0.33,0.6-0.45,0.94-0.26l3.58,2.04c0.33,0.19,0.45,0.61,0.26,0.94
				C299.11,190.61,298.88,190.73,298.64,190.73z M323.17,187.61c-0.38,0-0.69-0.31-0.69-0.69v-4.12c0-0.38,0.31-0.69,0.69-0.69
				c0.38,0,0.69,0.31,0.69,0.69v4.12C323.86,187.3,323.55,187.61,323.17,187.61z M291.48,186.66c-0.12,0-0.23-0.03-0.34-0.09
				l-3.58-2.04c-0.33-0.19-0.45-0.61-0.26-0.94c0.19-0.33,0.6-0.45,0.94-0.26l3.58,2.04c0.33,0.19,0.45,0.61,0.26,0.94
				C291.95,186.53,291.72,186.66,291.48,186.66z M284.32,182.58c-0.12,0-0.23-0.03-0.34-0.09l-3.58-2.04
				c-0.33-0.19-0.45-0.61-0.26-0.94c0.19-0.33,0.61-0.45,0.94-0.26l3.58,2.04c0.33,0.19,0.45,0.61,0.26,0.94
				C284.79,182.46,284.56,182.58,284.32,182.58z M319.89,181.28c-0.12,0-0.23-0.03-0.34-0.09l-3.58-2.04
				c-0.33-0.19-0.45-0.61-0.26-0.94c0.19-0.33,0.61-0.45,0.94-0.26l3.58,2.04c0.33,0.19,0.45,0.61,0.26,0.94
				C320.36,181.15,320.13,181.28,319.89,181.28z M277.16,178.5c-0.12,0-0.23-0.03-0.34-0.09l-3.58-2.04
				c-0.33-0.19-0.45-0.61-0.26-0.94c0.19-0.33,0.61-0.45,0.94-0.26l3.58,2.04c0.33,0.19,0.45,0.61,0.26,0.94
				C277.63,178.38,277.4,178.5,277.16,178.5z M312.73,177.2c-0.12,0-0.23-0.03-0.34-0.09l-3.58-2.04c-0.33-0.19-0.45-0.61-0.26-0.94
				c0.19-0.33,0.61-0.45,0.94-0.26l3.58,2.04c0.33,0.19,0.45,0.61,0.26,0.94C313.2,177.08,312.97,177.2,312.73,177.2z M270,174.43
				c-0.12,0-0.23-0.03-0.34-0.09l-3.58-2.04c-0.33-0.19-0.45-0.61-0.26-0.94c0.19-0.33,0.6-0.45,0.94-0.26l3.58,2.04
				c0.33,0.19,0.45,0.61,0.26,0.94C270.47,174.3,270.24,174.43,270,174.43z M305.57,173.12c-0.12,0-0.23-0.03-0.34-0.09l-3.58-2.04
				c-0.33-0.19-0.45-0.61-0.26-0.94c0.19-0.33,0.61-0.44,0.94-0.26l3.58,2.04c0.33,0.19,0.45,0.61,0.26,0.94
				C306.04,173,305.81,173.12,305.57,173.12z M263.66,169.87c-0.38,0-0.69-0.31-0.69-0.69v-4.12c0-0.38,0.31-0.69,0.69-0.69
				c0.38,0,0.69,0.31,0.69,0.69v4.12C264.35,169.56,264.04,169.87,263.66,169.87z M298.41,169.05c-0.12,0-0.23-0.03-0.34-0.09
				l-3.58-2.04c-0.33-0.19-0.45-0.61-0.26-0.94c0.19-0.33,0.6-0.45,0.94-0.26l3.58,2.04c0.33,0.19,0.45,0.61,0.26,0.94
				C298.88,168.92,298.65,169.05,298.41,169.05z M291.25,164.97c-0.12,0-0.23-0.03-0.34-0.09l-3.58-2.04
				c-0.33-0.19-0.45-0.61-0.26-0.94c0.19-0.33,0.61-0.45,0.94-0.26l3.58,2.04c0.33,0.19,0.45,0.61,0.26,0.94
				C291.72,164.85,291.48,164.97,291.25,164.97z M263.66,161.63c-0.38,0-0.69-0.31-0.69-0.69v-4.12c0-0.38,0.31-0.69,0.69-0.69
				c0.38,0,0.69,0.31,0.69,0.69v4.12C264.35,161.32,264.04,161.63,263.66,161.63z M284.09,160.9c-0.12,0-0.23-0.03-0.34-0.09
				l-3.58-2.04c-0.33-0.19-0.45-0.61-0.26-0.94c0.19-0.33,0.61-0.44,0.94-0.26l3.58,2.04c0.33,0.19,0.45,0.61,0.26,0.94
				C284.56,160.77,284.32,160.9,284.09,160.9z M276.92,156.82c-0.12,0-0.23-0.03-0.34-0.09l-3.58-2.04
				c-0.33-0.19-0.45-0.61-0.26-0.94c0.19-0.33,0.6-0.44,0.94-0.26l3.58,2.04c0.33,0.19,0.45,0.61,0.26,0.94
				C277.39,156.69,277.16,156.82,276.92,156.82z M263.66,153.39c-0.38,0-0.69-0.31-0.69-0.69v-4.12c0-0.38,0.31-0.69,0.69-0.69
				c0.38,0,0.69,0.31,0.69,0.69v4.12C264.35,153.08,264.04,153.39,263.66,153.39z M269.76,152.74c-0.12,0-0.23-0.03-0.34-0.09
				l-3.58-2.04c-0.33-0.19-0.45-0.61-0.26-0.94c0.19-0.33,0.6-0.45,0.94-0.26l3.58,2.04c0.33,0.19,0.45,0.61,0.26,0.94
				C270.23,152.62,270,152.74,269.76,152.74z"/>
		</g>
		<g>
			<linearGradient id="SVGID_12_" gradientUnits="userSpaceOnUse" x1="268.6146" y1="109.4057" x2="209.5635" y2="80.5668">
				<stop  offset="0.0354" style="stop-color:#138BBD"/>
				<stop  offset="0.2257" style="stop-color:#169AC7"/>
				<stop  offset="0.5946" style="stop-color:#1FC3DF"/>
				<stop  offset="1" style="stop-color:#2AF6FF"/>
			</linearGradient>
			<path class="st16" d="M219.72,93.89c-0.1-0.17-0.15-0.33-0.15-0.5V80.08l-3.9-2.25c-0.14-0.08-0.26-0.21-0.36-0.38
				c-0.1-0.17-0.15-0.34-0.15-0.52v-1.81c0-0.18,0.05-0.3,0.14-0.36c0.09-0.06,0.21-0.05,0.37,0.04l10.76,6.21
				c0.15,0.09,0.28,0.22,0.38,0.39c0.1,0.17,0.15,0.34,0.15,0.52v1.81c0,0.18-0.05,0.29-0.15,0.35c-0.1,0.06-0.23,0.04-0.38-0.05
				l-3.87-2.24v13.31c0,0.16-0.05,0.27-0.14,0.33c-0.09,0.06-0.21,0.04-0.37-0.05l-1.98-1.14
				C219.93,94.18,219.81,94.06,219.72,93.89z"/>
			<linearGradient id="SVGID_13_" gradientUnits="userSpaceOnUse" x1="268.3499" y1="109.9475" x2="209.2989" y2="81.1086">
				<stop  offset="0.0354" style="stop-color:#138BBD"/>
				<stop  offset="0.2257" style="stop-color:#169AC7"/>
				<stop  offset="0.5946" style="stop-color:#1FC3DF"/>
				<stop  offset="1" style="stop-color:#2AF6FF"/>
			</linearGradient>
			<path class="st17" d="M228.77,84.5c-0.1-0.17-0.15-0.33-0.15-0.5v-1.76c0-0.18,0.05-0.29,0.15-0.35c0.1-0.06,0.22-0.04,0.36,0.04
				l1.94,1.12c0.16,0.09,0.28,0.22,0.38,0.39c0.1,0.17,0.15,0.34,0.15,0.52v1.76c0,0.16-0.05,0.27-0.16,0.32
				c-0.1,0.05-0.23,0.04-0.37-0.04l-1.94-1.12C228.99,84.79,228.87,84.67,228.77,84.5z M228.85,99.16c-0.1-0.17-0.15-0.33-0.15-0.49
				v-11.4c0-0.18,0.05-0.29,0.15-0.34c0.1-0.05,0.22-0.03,0.36,0.05l1.79,1.03c0.14,0.08,0.26,0.21,0.36,0.38
				c0.1,0.17,0.15,0.34,0.15,0.5v11.4c0,0.16-0.05,0.27-0.15,0.33c-0.1,0.06-0.22,0.04-0.36-0.04l-1.79-1.03
				C229.07,99.46,228.95,99.33,228.85,99.16z"/>
			<linearGradient id="SVGID_14_" gradientUnits="userSpaceOnUse" x1="267.9749" y1="110.7157" x2="208.9238" y2="81.8768">
				<stop  offset="0.0354" style="stop-color:#138BBD"/>
				<stop  offset="0.2257" style="stop-color:#169AC7"/>
				<stop  offset="0.5946" style="stop-color:#1FC3DF"/>
				<stop  offset="1" style="stop-color:#2AF6FF"/>
			</linearGradient>
			<path class="st18" d="M236.37,102.52c-0.65-1.14-0.97-2.45-0.97-3.93v-5.46l-1.66-0.96c-0.14-0.08-0.26-0.21-0.36-0.38
				c-0.1-0.17-0.15-0.33-0.15-0.49v-1.43c0-0.16,0.05-0.27,0.15-0.33c0.1-0.06,0.22-0.04,0.36,0.04l1.66,0.96v-4.01
				c0-0.18,0.05-0.29,0.15-0.34c0.1-0.05,0.22-0.03,0.36,0.05l1.75,1.01c0.15,0.09,0.28,0.21,0.37,0.37
				c0.09,0.16,0.14,0.32,0.14,0.5v4.01l2.63,1.52c0.14,0.08,0.26,0.21,0.36,0.38c0.1,0.17,0.15,0.34,0.15,0.5v1.43
				c0,0.16-0.05,0.27-0.15,0.33c-0.1,0.06-0.22,0.04-0.36-0.04l-2.63-1.52v5.2c0,0.69,0.11,1.28,0.32,1.75
				c0.21,0.48,0.56,0.85,1.03,1.13l1.47,0.85c0.15,0.09,0.28,0.21,0.37,0.37c0.09,0.16,0.14,0.32,0.14,0.5v1.52
				c0,0.16-0.05,0.27-0.14,0.33c-0.09,0.06-0.21,0.05-0.37-0.04l-1.73-1C237.98,104.6,237.02,103.66,236.37,102.52z"/>
			<linearGradient id="SVGID_15_" gradientUnits="userSpaceOnUse" x1="267.7529" y1="111.1704" x2="208.7016" y2="82.3313">
				<stop  offset="0.0354" style="stop-color:#138BBD"/>
				<stop  offset="0.2257" style="stop-color:#169AC7"/>
				<stop  offset="0.5946" style="stop-color:#1FC3DF"/>
				<stop  offset="1" style="stop-color:#2AF6FF"/>
			</linearGradient>
			<path class="st19" d="M243.53,107.64c-0.1-0.17-0.15-0.33-0.15-0.5v-16c0-0.18,0.05-0.29,0.15-0.34c0.1-0.05,0.22-0.03,0.36,0.05
				l1.77,1.02c0.15,0.09,0.28,0.21,0.37,0.37c0.09,0.16,0.14,0.32,0.14,0.5v16c0,0.16-0.05,0.27-0.14,0.33
				c-0.09,0.06-0.21,0.05-0.37-0.04l-1.77-1.02C243.75,107.93,243.63,107.81,243.53,107.64z"/>
			<linearGradient id="SVGID_16_" gradientUnits="userSpaceOnUse" x1="266.5346" y1="113.6653" x2="207.483" y2="84.8261">
				<stop  offset="0.0354" style="stop-color:#138BBD"/>
				<stop  offset="0.2257" style="stop-color:#169AC7"/>
				<stop  offset="0.5946" style="stop-color:#1FC3DF"/>
				<stop  offset="1" style="stop-color:#2AF6FF"/>
			</linearGradient>
			<path class="st20" d="M249.96,110.22c-0.92-1.56-1.41-3.31-1.46-5.24l-0.02-0.62c0-2.01,0.46-3.33,1.38-3.96
				c0.92-0.63,2.19-0.47,3.82,0.47c1.67,0.96,2.96,2.29,3.86,3.97c0.91,1.68,1.36,3.49,1.36,5.42v0.51c0,0.16-0.05,0.27-0.15,0.33
				c-0.1,0.05-0.23,0.04-0.38-0.05l-6.99-4.04v0.19c0.03,0.92,0.24,1.79,0.64,2.61c0.4,0.82,0.95,1.43,1.65,1.84
				c0.8,0.46,1.45,0.47,1.96,0.02c0.12-0.1,0.22-0.16,0.29-0.16c0.07,0,0.19,0.05,0.36,0.15l1.85,1.07
				c0.13,0.07,0.23,0.18,0.33,0.31c0.09,0.13,0.14,0.27,0.14,0.42c0,0.39-0.2,0.73-0.6,1.02c-0.4,0.29-0.97,0.42-1.72,0.38
				c-0.75-0.04-1.61-0.35-2.59-0.92C252.13,113.01,250.88,111.78,249.96,110.22z M256,107.61v-0.05c0-0.95-0.21-1.83-0.62-2.64
				c-0.41-0.81-0.98-1.42-1.69-1.84c-0.72-0.41-1.28-0.45-1.69-0.12c-0.41,0.34-0.61,0.98-0.61,1.93v0.05L256,107.61z"/>
		</g>
		<linearGradient id="SVGID_17_" gradientUnits="userSpaceOnUse" x1="215.801" y1="135.1455" x2="321.5712" y2="135.1455">
			<stop  offset="0.0101" style="stop-color:#9F19AB"/>
			<stop  offset="0.4293" style="stop-color:#5F27BD"/>
			<stop  offset="0.904" style="stop-color:#3D065F"/>
		</linearGradient>
		<path class="st21" d="M317.8,135.05v3.32l3.78,2.18v-3.32L317.8,135.05z M317.65,168.93l3.92,2.27v-3.32l-3.92-2.27V168.93z
			 M278.07,119.85l-12.8-7.36v3.32l12.8,7.36V119.85z M314.53,144.15l4.51,2.6v-3.32l-4.51-2.6V144.15z M285.34,116.38l-10.09-5.82
			v3.32l10.09,5.82V116.38z M315.42,133.68l-9.41-5.4v3.32l9.41,5.4V133.68z M303.64,126.91l-15.93-9.15v3.32l15.93,9.15V126.91z
			 M300.08,147.83l-16.38-9.41v3.32l16.38,9.41V147.83z M312.16,139.45l-21.19-12.15v3.32l21.19,12.16V139.45z M291.57,135.3
			l-10.09-5.82v3.32l10.09,5.82V135.3z M288.6,125.93l-8.16-4.71v3.32l8.16,4.71V125.93z M305.87,162.15l9.41,5.4v-3.32l-9.41-5.4
			V162.15z M302.46,152.52l12.13,6.98v-3.32l-12.13-6.98V152.52z M275.1,144.44l10.09,5.82v-3.32l-10.09-5.82V144.44z
			 M293.94,139.99l10.44,5.98v-3.32l-10.44-5.98V139.99z M306.76,147.35l14.81,8.52v-3.32l-14.81-8.52V147.35z M281.33,137.05
			l-8.16-4.71v3.32l8.16,4.71V137.05z M279.1,128.11l-13.84-7.96v3.32l13.84,7.96V128.11z M262.76,137.35l9.97,5.72v-3.32
			l-9.97-5.72V137.35z M287.56,151.63l15.93,9.15v-3.32l-15.93-9.15V151.63z M232.43,119.85l27.95,16.13v-3.32l-27.95-16.13V119.85z
			 M272.87,109.19l-7.61-4.36v3.32l7.61,4.36V109.19z M270.8,130.97l-18.87-10.86v3.32l18.87,10.86V130.97z M230.06,115.16
			l-14.26-8.4v3.32l14.26,8.4V115.16z M249.55,118.75l-19.64-11.33v3.32l19.64,11.33V118.75z M227.54,106.04L215.8,99.1v3.32
			l11.74,6.94V106.04z"/>
		<g>
			<path class="st15" d="M285.06,292.69c-0.12,0-0.25-0.03-0.35-0.1l-1.48-0.89c-0.32-0.2-0.43-0.62-0.23-0.94
				c0.2-0.33,0.62-0.43,0.94-0.23l1.11,0.67c0.58-0.38,1.12-0.74,1.61-1.08c0.31-0.21,0.74-0.13,0.95,0.18
				c0.21,0.31,0.14,0.74-0.18,0.95c-0.6,0.41-1.27,0.86-2,1.34C285.32,292.65,285.19,292.69,285.06,292.69z M280.05,289.68
				c-0.12,0-0.24-0.03-0.35-0.1l-3.53-2.12c-0.32-0.2-0.43-0.62-0.23-0.94c0.2-0.33,0.62-0.43,0.94-0.23l3.53,2.12
				c0.32,0.2,0.43,0.62,0.23,0.94C280.51,289.56,280.28,289.68,280.05,289.68z M290.35,288.9c-0.2,0-0.4-0.09-0.54-0.26
				c-0.24-0.3-0.19-0.73,0.11-0.96c1.09-0.87,2.15-1.74,3.17-2.6c0.29-0.24,0.72-0.21,0.97,0.08c0.25,0.29,0.21,0.72-0.08,0.97
				c-1.03,0.87-2.1,1.74-3.2,2.62C290.65,288.85,290.5,288.9,290.35,288.9z M272.99,285.43c-0.12,0-0.24-0.03-0.35-0.1l-3.53-2.12
				c-0.32-0.2-0.43-0.62-0.23-0.94c0.2-0.33,0.62-0.43,0.94-0.23l3.53,2.12c0.32,0.2,0.43,0.62,0.23,0.94
				C273.45,285.31,273.22,285.43,272.99,285.43z M296.64,283.59c-0.19,0-0.38-0.08-0.51-0.23c-0.25-0.28-0.23-0.72,0.05-0.97
				c1.04-0.93,2.04-1.86,3-2.78c0.27-0.26,0.71-0.25,0.97,0.02c0.26,0.27,0.25,0.71-0.02,0.97c-0.97,0.93-1.98,1.87-3.04,2.81
				C296.97,283.53,296.81,283.59,296.64,283.59z M265.93,281.18c-0.12,0-0.24-0.03-0.35-0.1l-3.53-2.12
				c-0.32-0.2-0.43-0.62-0.23-0.94c0.2-0.33,0.62-0.43,0.94-0.23l3.53,2.12c0.32,0.2,0.43,0.62,0.23,0.94
				C266.39,281.07,266.16,281.18,265.93,281.18z M302.58,277.89c-0.17,0-0.34-0.06-0.48-0.19c-0.27-0.26-0.28-0.7-0.02-0.97
				c0.97-1,1.9-2,2.78-3c0.25-0.29,0.68-0.31,0.97-0.06c0.28,0.25,0.31,0.69,0.06,0.97c-0.9,1.01-1.83,2.02-2.82,3.04
				C302.94,277.82,302.76,277.89,302.58,277.89z M258.87,276.94c-0.12,0-0.24-0.03-0.35-0.1l-3.53-2.12
				c-0.32-0.2-0.43-0.62-0.23-0.94c0.2-0.33,0.62-0.43,0.94-0.23l3.53,2.12c0.32,0.2,0.43,0.62,0.23,0.94
				C259.33,276.82,259.1,276.94,258.87,276.94z M251.81,272.69c-0.12,0-0.24-0.03-0.35-0.1l-3.53-2.12
				c-0.32-0.2-0.43-0.62-0.23-0.94c0.2-0.33,0.62-0.43,0.94-0.23l3.53,2.12c0.32,0.2,0.43,0.62,0.23,0.94
				C252.27,272.57,252.04,272.69,251.81,272.69z M308.04,271.73c-0.15,0-0.3-0.05-0.43-0.15c-0.29-0.24-0.34-0.67-0.1-0.97
				c0.87-1.08,1.7-2.17,2.47-3.25c0.22-0.31,0.65-0.38,0.96-0.16c0.31,0.22,0.38,0.65,0.16,0.96c-0.79,1.1-1.64,2.21-2.52,3.3
				C308.44,271.64,308.24,271.73,308.04,271.73z M244.75,268.44c-0.12,0-0.24-0.03-0.35-0.1l-3.53-2.12
				c-0.32-0.2-0.43-0.62-0.23-0.94c0.2-0.33,0.62-0.43,0.94-0.23l3.53,2.12c0.32,0.2,0.43,0.62,0.23,0.94
				C245.21,268.32,244.98,268.44,244.75,268.44z M312.85,265.04c-0.13,0-0.25-0.03-0.37-0.11c-0.32-0.2-0.42-0.63-0.21-0.95
				c0.73-1.16,1.43-2.33,2.07-3.51c0.18-0.33,0.6-0.45,0.93-0.27c0.33,0.18,0.45,0.6,0.27,0.93c-0.66,1.2-1.37,2.4-2.12,3.58
				C313.29,264.93,313.07,265.04,312.85,265.04z M237.69,264.2c-0.12,0-0.24-0.03-0.35-0.1l-3.53-2.12
				c-0.32-0.2-0.43-0.62-0.23-0.94c0.2-0.33,0.62-0.43,0.94-0.23l3.53,2.12c0.32,0.2,0.43,0.62,0.23,0.94
				C238.15,264.08,237.92,264.2,237.69,264.2z M230.63,259.95c-0.12,0-0.24-0.03-0.35-0.1l-3.53-2.12c-0.32-0.2-0.43-0.62-0.23-0.94
				c0.2-0.33,0.62-0.43,0.94-0.23l3.53,2.12c0.32,0.2,0.43,0.62,0.23,0.94C231.09,259.83,230.86,259.95,230.63,259.95z
				 M316.8,257.83c-0.1,0-0.2-0.02-0.29-0.06c-0.34-0.16-0.49-0.57-0.33-0.91c0.57-1.22,1.1-2.48,1.59-3.75
				c0.14-0.35,0.53-0.53,0.89-0.39c0.35,0.14,0.53,0.54,0.39,0.89c-0.5,1.3-1.05,2.59-1.63,3.83
				C317.31,257.68,317.06,257.83,316.8,257.83z M223.56,255.7c-0.12,0-0.24-0.03-0.35-0.1l-3.53-2.12c-0.32-0.2-0.43-0.62-0.23-0.94
				c0.2-0.33,0.62-0.43,0.94-0.23l3.53,2.12c0.32,0.2,0.43,0.62,0.23,0.94C224.02,255.58,223.8,255.7,223.56,255.7z M216.5,251.45
				c-0.12,0-0.24-0.03-0.35-0.1l-3.53-2.12c-0.32-0.2-0.43-0.62-0.23-0.94c0.2-0.33,0.62-0.43,0.94-0.23l3.53,2.12
				c0.32,0.2,0.43,0.62,0.23,0.94C216.96,251.34,216.74,251.45,216.5,251.45z M319.77,250.15c-0.07,0-0.14-0.01-0.2-0.03
				c-0.36-0.11-0.56-0.5-0.45-0.86c0.4-1.27,0.76-2.6,1.08-3.93c0.09-0.37,0.46-0.59,0.83-0.51c0.37,0.09,0.59,0.46,0.51,0.83
				c-0.33,1.36-0.7,2.71-1.11,4.01C320.33,249.96,320.06,250.15,319.77,250.15z M209.44,247.21c-0.12,0-0.24-0.03-0.35-0.1
				l-3.53-2.12c-0.32-0.2-0.43-0.62-0.23-0.94c0.2-0.33,0.62-0.43,0.94-0.23l3.53,2.12c0.32,0.2,0.43,0.62,0.23,0.94
				C209.9,247.09,209.67,247.21,209.44,247.21z M202.38,242.96c-0.12,0-0.24-0.03-0.35-0.1l-3.53-2.12
				c-0.32-0.2-0.43-0.62-0.23-0.94c0.2-0.33,0.62-0.43,0.94-0.23l3.53,2.12c0.32,0.2,0.43,0.62,0.23,0.94
				C202.84,242.84,202.61,242.96,202.38,242.96z M321.72,242.15c-0.04,0-0.08,0-0.12-0.01c-0.37-0.07-0.62-0.43-0.55-0.8
				c0.24-1.3,0.45-2.65,0.63-4.03c0.05-0.38,0.4-0.64,0.77-0.59c0.38,0.05,0.64,0.39,0.59,0.77c-0.18,1.4-0.4,2.78-0.64,4.1
				C322.33,241.92,322.04,242.15,321.72,242.15z M195.32,238.71c-0.12,0-0.24-0.03-0.35-0.1l-3.53-2.12
				c-0.32-0.2-0.43-0.62-0.23-0.94c0.2-0.33,0.62-0.43,0.94-0.23l3.53,2.12c0.32,0.2,0.43,0.62,0.23,0.94
				C195.78,238.6,195.55,238.71,195.32,238.71z M188.26,234.47c-0.12,0-0.24-0.03-0.35-0.1l-3.53-2.12
				c-0.32-0.2-0.43-0.62-0.23-0.94c0.2-0.33,0.62-0.43,0.94-0.23l3.53,2.12c0.32,0.2,0.43,0.62,0.23,0.94
				C188.72,234.35,188.49,234.47,188.26,234.47z M322.79,233.99c-0.02,0-0.04,0-0.06,0c-0.36-0.03-0.63-0.34-0.63-0.69l-3.19-1.84
				c-0.33-0.19-0.44-0.61-0.25-0.94c0.19-0.33,0.61-0.44,0.94-0.25l3.57,2.06c0.23,0.13,0.36,0.39,0.34,0.65l-0.03,0.39
				C323.45,233.72,323.15,233.99,322.79,233.99z M181.2,230.22c-0.12,0-0.24-0.03-0.35-0.1l-3.53-2.12
				c-0.32-0.2-0.43-0.62-0.23-0.94c0.2-0.33,0.62-0.43,0.94-0.23l3.53,2.12c0.32,0.2,0.43,0.62,0.23,0.94
				C181.66,230.1,181.43,230.22,181.2,230.22z M315.68,229.49c-0.12,0-0.23-0.03-0.34-0.09l-3.57-2.06
				c-0.33-0.19-0.44-0.61-0.25-0.94c0.19-0.33,0.61-0.44,0.94-0.25l3.57,2.06c0.33,0.19,0.44,0.61,0.25,0.94
				C316.15,229.37,315.92,229.49,315.68,229.49z M179.35,225.49c-0.19,0-0.37-0.08-0.51-0.23c-0.25-0.28-0.23-0.72,0.05-0.97
				c1.03-0.93,2.03-1.86,3-2.79c0.28-0.26,0.71-0.25,0.97,0.02c0.26,0.27,0.25,0.71-0.02,0.97c-0.98,0.94-1.99,1.88-3.03,2.81
				C179.68,225.44,179.51,225.49,179.35,225.49z M308.54,225.38c-0.12,0-0.23-0.03-0.34-0.09l-3.57-2.06
				c-0.33-0.19-0.44-0.61-0.25-0.94c0.19-0.33,0.61-0.44,0.94-0.25l3.57,2.06c0.33,0.19,0.44,0.61,0.25,0.94
				C309.01,225.26,308.78,225.38,308.54,225.38z M301.4,221.27c-0.12,0-0.23-0.03-0.34-0.09l-3.57-2.05
				c-0.33-0.19-0.44-0.61-0.25-0.94c0.19-0.33,0.61-0.44,0.94-0.25l3.57,2.05c0.33,0.19,0.44,0.61,0.25,0.94
				C301.87,221.15,301.64,221.27,301.4,221.27z M185.3,219.8c-0.17,0-0.35-0.07-0.48-0.2c-0.27-0.27-0.27-0.7-0.01-0.97
				c0.97-0.99,1.92-1.97,2.83-2.96c0.26-0.28,0.69-0.29,0.97-0.04c0.28,0.26,0.29,0.69,0.04,0.97c-0.92,1-1.88,2-2.86,2.99
				C185.66,219.73,185.48,219.8,185.3,219.8z M294.26,217.16c-0.12,0-0.23-0.03-0.34-0.09l-3.57-2.06
				c-0.33-0.19-0.44-0.61-0.25-0.94c0.19-0.33,0.61-0.44,0.94-0.25l3.57,2.06c0.33,0.19,0.44,0.61,0.25,0.94
				C294.73,217.04,294.5,217.16,294.26,217.16z M190.89,213.75c-0.16,0-0.32-0.06-0.45-0.17c-0.29-0.25-0.32-0.68-0.07-0.97
				c0.91-1.05,1.78-2.1,2.61-3.15c0.24-0.3,0.67-0.34,0.96-0.11c0.3,0.24,0.35,0.67,0.11,0.96c-0.85,1.06-1.73,2.13-2.65,3.19
				C191.27,213.67,191.08,213.75,190.89,213.75z M287.12,213.05c-0.12,0-0.23-0.03-0.34-0.09l-3.57-2.06
				c-0.33-0.19-0.44-0.61-0.25-0.94c0.19-0.33,0.61-0.44,0.94-0.25l3.57,2.06c0.33,0.19,0.44,0.61,0.25,0.94
				C287.59,212.92,287.36,213.05,287.12,213.05z M279.98,208.94c-0.12,0-0.23-0.03-0.34-0.09l-3.57-2.06
				c-0.33-0.19-0.44-0.61-0.25-0.94c0.19-0.33,0.61-0.44,0.94-0.25l3.57,2.06c0.33,0.19,0.44,0.61,0.25,0.94
				C280.45,208.81,280.22,208.94,279.98,208.94z M196.03,207.32c-0.14,0-0.28-0.04-0.41-0.13c-0.31-0.22-0.37-0.65-0.15-0.96
				c0.82-1.11,1.6-2.23,2.35-3.35c0.21-0.32,0.64-0.4,0.95-0.19c0.32,0.21,0.4,0.64,0.19,0.95c-0.76,1.13-1.55,2.26-2.38,3.39
				C196.44,207.22,196.24,207.32,196.03,207.32z M272.84,204.82c-0.12,0-0.23-0.03-0.34-0.09l-3.57-2.06
				c-0.33-0.19-0.44-0.61-0.25-0.94c0.19-0.33,0.61-0.44,0.94-0.25l3.57,2.06c0.33,0.19,0.44,0.61,0.25,0.94
				C273.31,204.7,273.08,204.82,272.84,204.82z M265.7,200.71c-0.12,0-0.23-0.03-0.34-0.09l-3.57-2.06
				c-0.33-0.19-0.44-0.61-0.25-0.94c0.19-0.33,0.61-0.44,0.94-0.25l3.57,2.06c0.33,0.19,0.44,0.61,0.25,0.94
				C266.17,200.59,265.94,200.71,265.7,200.71z M200.61,200.48c-0.12,0-0.25-0.03-0.36-0.1c-0.32-0.2-0.43-0.62-0.23-0.94
				c0.71-1.17,1.4-2.36,2.04-3.54c0.18-0.33,0.6-0.45,0.93-0.27c0.33,0.18,0.46,0.6,0.27,0.93c-0.65,1.2-1.35,2.41-2.07,3.6
				C201.07,200.36,200.84,200.48,200.61,200.48z M258.56,196.6c-0.12,0-0.23-0.03-0.34-0.09l-3.57-2.06
				c-0.33-0.19-0.44-0.61-0.25-0.94c0.19-0.33,0.61-0.44,0.94-0.25l3.57,2.05c0.33,0.19,0.44,0.61,0.25,0.94
				C259.03,196.48,258.8,196.6,258.56,196.6z M204.55,193.25c-0.1,0-0.2-0.02-0.3-0.07c-0.34-0.17-0.48-0.58-0.32-0.92
				c0.59-1.22,1.16-2.47,1.69-3.72c0.15-0.35,0.55-0.51,0.9-0.36c0.35,0.15,0.51,0.55,0.36,0.9c-0.54,1.26-1.12,2.53-1.72,3.78
				C205.05,193.1,204.81,193.25,204.55,193.25z M251.42,192.49c-0.12,0-0.23-0.03-0.34-0.09l-3.57-2.06
				c-0.33-0.19-0.44-0.61-0.25-0.94c0.19-0.33,0.61-0.44,0.94-0.25l3.57,2.06c0.33,0.19,0.44,0.61,0.25,0.94
				C251.89,192.37,251.66,192.49,251.42,192.49z M244.28,188.38c-0.12,0-0.23-0.03-0.34-0.09l-3.57-2.06
				c-0.33-0.19-0.44-0.61-0.25-0.94c0.19-0.33,0.61-0.44,0.94-0.25l3.57,2.06c0.33,0.19,0.44,0.61,0.25,0.94
				C244.75,188.25,244.52,188.38,244.28,188.38z M207.79,185.67c-0.08,0-0.16-0.01-0.24-0.04c-0.36-0.13-0.54-0.53-0.4-0.88
				c0.47-1.26,0.92-2.56,1.33-3.86c0.12-0.36,0.5-0.56,0.86-0.44c0.36,0.12,0.56,0.5,0.45,0.86c-0.42,1.32-0.88,2.64-1.35,3.92
				C208.33,185.5,208.07,185.67,207.79,185.67z M237.14,184.27c-0.12,0-0.23-0.03-0.34-0.09l-3.57-2.06
				c-0.33-0.19-0.44-0.61-0.25-0.94c0.19-0.33,0.61-0.44,0.94-0.25l3.57,2.06c0.33,0.19,0.44,0.61,0.25,0.94
				C237.61,184.14,237.38,184.27,237.14,184.27z M230,180.15c-0.12,0-0.23-0.03-0.34-0.09l-3.57-2.06
				c-0.33-0.19-0.44-0.61-0.25-0.94c0.19-0.33,0.61-0.44,0.94-0.25l3.57,2.06c0.33,0.19,0.44,0.61,0.25,0.94
				C230.47,180.03,230.24,180.15,230,180.15z M210.3,177.83c-0.06,0-0.12-0.01-0.18-0.02c-0.37-0.1-0.58-0.48-0.48-0.84
				c0.35-1.31,0.68-2.64,0.98-3.97c0.08-0.37,0.45-0.6,0.82-0.52c0.37,0.08,0.6,0.45,0.52,0.82c-0.3,1.35-0.64,2.69-1,4.02
				C210.88,177.63,210.6,177.83,210.3,177.83z M222.86,176.04c-0.12,0-0.23-0.03-0.34-0.09l-3.57-2.06
				c-0.33-0.19-0.44-0.61-0.25-0.94c0.19-0.33,0.61-0.44,0.94-0.25l3.57,2.06c0.33,0.19,0.44,0.61,0.25,0.94
				C223.32,175.92,223.09,176.04,222.86,176.04z M215.72,171.93c-0.12,0-0.23-0.03-0.34-0.09l-3.57-2.06
				c-0.33-0.19-0.44-0.61-0.25-0.94c0.19-0.33,0.61-0.44,0.94-0.25l3.57,2.06c0.33,0.19,0.44,0.61,0.25,0.94
				C216.18,171.81,215.95,171.93,215.72,171.93z"/>
		</g>
		<g>
			<path class="st15" d="M127.27,294.3c-0.12,0-0.24-0.03-0.34-0.09l-3.57-2.06c-0.33-0.19-0.44-0.61-0.25-0.94
				c0.19-0.33,0.61-0.44,0.94-0.25l3.22,1.86l1.65-0.95c0.33-0.19,0.75-0.08,0.94,0.25c0.19,0.33,0.08,0.75-0.25,0.94l-1.99,1.15
				C127.51,294.27,127.39,294.3,127.27,294.3z M132.84,291.09c-0.24,0-0.47-0.12-0.59-0.34c-0.19-0.33-0.08-0.75,0.25-0.94
				l3.57-2.06c0.33-0.19,0.75-0.08,0.94,0.25c0.19,0.33,0.08,0.75-0.25,0.94l-3.57,2.06C133.07,291.06,132.95,291.09,132.84,291.09z
				 M120.14,290.18c-0.12,0-0.23-0.03-0.34-0.09l-3.57-2.06c-0.33-0.19-0.44-0.61-0.25-0.94c0.19-0.33,0.61-0.44,0.94-0.25
				l3.57,2.06c0.33,0.19,0.44,0.61,0.25,0.94C120.61,290.06,120.37,290.18,120.14,290.18z M139.97,286.97
				c-0.24,0-0.47-0.12-0.59-0.34c-0.19-0.33-0.08-0.75,0.25-0.94l3.57-2.06c0.33-0.19,0.75-0.08,0.94,0.25
				c0.19,0.33,0.08,0.75-0.25,0.94l-3.57,2.06C140.21,286.94,140.09,286.97,139.97,286.97z M113,286.06c-0.12,0-0.23-0.03-0.34-0.09
				l-3.57-2.06c-0.33-0.19-0.44-0.61-0.25-0.94c0.19-0.33,0.61-0.44,0.94-0.25l3.57,2.06c0.33,0.19,0.44,0.61,0.25,0.94
				C113.47,285.94,113.24,286.06,113,286.06z M147.11,282.85c-0.24,0-0.47-0.12-0.59-0.34c-0.19-0.33-0.08-0.75,0.25-0.94l3.57-2.06
				c0.33-0.19,0.75-0.08,0.94,0.25c0.19,0.33,0.08,0.75-0.25,0.94l-3.57,2.06C147.34,282.82,147.22,282.85,147.11,282.85z
				 M105.87,281.94c-0.12,0-0.23-0.03-0.34-0.09l-3.57-2.06c-0.33-0.19-0.44-0.61-0.25-0.94c0.19-0.33,0.61-0.44,0.94-0.25
				l3.57,2.06c0.33,0.19,0.44,0.61,0.25,0.94C106.33,281.82,106.1,281.94,105.87,281.94z M154.24,278.73
				c-0.24,0-0.47-0.12-0.59-0.34c-0.19-0.33-0.08-0.75,0.25-0.94l3.57-2.06c0.33-0.19,0.75-0.08,0.94,0.25
				c0.19,0.33,0.08,0.75-0.25,0.94l-3.57,2.06C154.48,278.7,154.36,278.73,154.24,278.73z M98.73,277.82
				c-0.12,0-0.23-0.03-0.34-0.09l-2.38-1.37c-0.21-0.12-0.34-0.35-0.34-0.59c0-0.25,0.13-0.47,0.34-0.59l1.19-0.69
				c0.33-0.19,0.75-0.08,0.94,0.25c0.19,0.33,0.08,0.75-0.25,0.94l-0.16,0.09l1.35,0.78c0.33,0.19,0.44,0.61,0.25,0.94
				C99.2,277.7,98.97,277.82,98.73,277.82z M154.63,274.61c-0.12,0-0.23-0.03-0.34-0.09l-3.57-2.06c-0.33-0.19-0.44-0.61-0.25-0.94
				c0.19-0.33,0.61-0.44,0.94-0.25l3.57,2.06c0.33,0.19,0.44,0.61,0.25,0.94C155.1,274.49,154.86,274.61,154.63,274.61z
				 M101.11,273.7c-0.24,0-0.47-0.12-0.59-0.34c-0.19-0.33-0.08-0.75,0.25-0.94l3.57-2.06c0.33-0.19,0.75-0.08,0.94,0.25
				c0.19,0.33,0.08,0.75-0.25,0.94l-3.57,2.06C101.34,273.68,101.23,273.7,101.11,273.7z M147.49,270.49
				c-0.12,0-0.23-0.03-0.34-0.09l-3.57-2.06c-0.33-0.19-0.44-0.61-0.25-0.94c0.19-0.33,0.61-0.44,0.94-0.25l3.57,2.06
				c0.33,0.19,0.44,0.61,0.25,0.94C147.96,270.37,147.73,270.49,147.49,270.49z M108.24,269.59c-0.24,0-0.47-0.12-0.59-0.34
				c-0.19-0.33-0.08-0.75,0.25-0.94l3.57-2.06c0.33-0.19,0.75-0.08,0.94,0.25c0.19,0.33,0.08,0.75-0.25,0.94l-3.57,2.06
				C108.48,269.56,108.36,269.59,108.24,269.59z M140.36,266.37c-0.12,0-0.23-0.03-0.34-0.09l-3.57-2.06
				c-0.33-0.19-0.44-0.61-0.25-0.94c0.19-0.33,0.61-0.44,0.94-0.25l3.57,2.06c0.33,0.19,0.44,0.61,0.25,0.94
				C140.82,266.25,140.59,266.37,140.36,266.37z M115.38,265.47c-0.24,0-0.47-0.12-0.59-0.34c-0.19-0.33-0.08-0.75,0.25-0.94
				l3.57-2.06c0.33-0.19,0.75-0.08,0.94,0.25c0.19,0.33,0.08,0.75-0.25,0.94l-3.57,2.06C115.62,265.44,115.5,265.47,115.38,265.47z
				 M133.22,262.25c-0.12,0-0.23-0.03-0.34-0.09l-3.57-2.06c-0.33-0.19-0.44-0.61-0.25-0.94c0.19-0.33,0.61-0.44,0.94-0.25
				l3.57,2.06c0.33,0.19,0.44,0.61,0.25,0.94C133.69,262.13,133.46,262.25,133.22,262.25z M122.52,261.35
				c-0.24,0-0.47-0.12-0.59-0.34c-0.19-0.33-0.08-0.75,0.25-0.94l3.57-2.06c0.33-0.19,0.75-0.08,0.94,0.25
				c0.19,0.33,0.08,0.75-0.25,0.94l-3.57,2.06C122.75,261.32,122.63,261.35,122.52,261.35z"/>
		</g>
		<g>
			<path class="st15" d="M173.14,357.02c-0.12,0-0.23-0.03-0.34-0.09l-3.57-2.06c-0.33-0.19-0.44-0.61-0.25-0.94
				c0.19-0.33,0.61-0.44,0.94-0.25l3.57,2.06c0.33,0.19,0.44,0.61,0.25,0.94C173.61,356.89,173.38,357.02,173.14,357.02z
				 M176.34,355.19c-0.24,0-0.47-0.12-0.6-0.35c-0.19-0.33-0.08-0.75,0.25-0.94l3.58-2.05c0.32-0.19,0.75-0.08,0.94,0.25
				c0.19,0.33,0.08,0.75-0.25,0.94l-3.58,2.05C176.57,355.16,176.46,355.19,176.34,355.19z M166.01,352.9
				c-0.12,0-0.23-0.03-0.34-0.09l-3.57-2.06c-0.33-0.19-0.44-0.61-0.25-0.94c0.19-0.33,0.61-0.44,0.94-0.25l3.57,2.06
				c0.33,0.19,0.44,0.61,0.25,0.94C166.47,352.77,166.24,352.9,166.01,352.9z M183.49,351.1c-0.24,0-0.47-0.12-0.6-0.35
				c-0.19-0.33-0.07-0.75,0.26-0.94l3.58-2.04c0.33-0.19,0.75-0.08,0.94,0.26c0.19,0.33,0.07,0.75-0.26,0.94l-3.58,2.04
				C183.73,351.07,183.61,351.1,183.49,351.1z M158.87,348.78c-0.12,0-0.23-0.03-0.34-0.09l-3.57-2.06
				c-0.33-0.19-0.44-0.61-0.25-0.94c0.19-0.33,0.61-0.44,0.94-0.25l3.57,2.06c0.33,0.19,0.44,0.61,0.25,0.94
				C159.34,348.65,159.11,348.78,158.87,348.78z M190.65,347.01c-0.24,0-0.47-0.12-0.6-0.35c-0.19-0.33-0.07-0.75,0.26-0.94
				l3.58-2.04c0.32-0.18,0.75-0.07,0.94,0.26c0.19,0.33,0.07,0.75-0.26,0.94l-3.58,2.04C190.88,346.98,190.76,347.01,190.65,347.01z
				 M151.73,344.66c-0.12,0-0.23-0.03-0.34-0.09l-3.57-2.06c-0.33-0.19-0.44-0.61-0.25-0.94c0.19-0.33,0.61-0.44,0.94-0.25
				l3.57,2.06c0.33,0.19,0.44,0.61,0.25,0.94C152.2,344.54,151.97,344.66,151.73,344.66z M196.55,342.92
				c-0.12,0-0.23-0.03-0.34-0.09l-3.57-2.06c-0.33-0.19-0.44-0.61-0.25-0.94c0.19-0.33,0.61-0.44,0.94-0.25l3.57,2.06
				c0.33,0.19,0.44,0.61,0.25,0.94C197.02,342.8,196.79,342.92,196.55,342.92z M144.6,340.54c-0.12,0-0.23-0.03-0.34-0.09
				l-3.57-2.06c-0.33-0.19-0.44-0.61-0.25-0.94c0.19-0.33,0.61-0.44,0.94-0.25l3.57,2.06c0.33,0.19,0.44,0.61,0.25,0.94
				C145.06,340.42,144.83,340.54,144.6,340.54z M189.41,338.8c-0.12,0-0.23-0.03-0.34-0.09l-3.57-2.06
				c-0.33-0.19-0.44-0.61-0.25-0.94c0.19-0.33,0.61-0.44,0.94-0.25l3.57,2.06c0.33,0.19,0.44,0.61,0.25,0.94
				C189.88,338.68,189.65,338.8,189.41,338.8z M137.46,336.42c-0.12,0-0.23-0.03-0.34-0.09l-3.57-2.06
				c-0.33-0.19-0.44-0.61-0.25-0.94c0.19-0.33,0.61-0.44,0.94-0.25l3.57,2.06c0.33,0.19,0.44,0.61,0.25,0.94
				C137.93,336.3,137.7,336.42,137.46,336.42z M182.28,334.68c-0.12,0-0.23-0.03-0.34-0.09l-3.57-2.06
				c-0.33-0.19-0.44-0.61-0.25-0.94c0.19-0.33,0.61-0.44,0.94-0.25l3.57,2.06c0.33,0.19,0.44,0.61,0.25,0.94
				C182.74,334.56,182.51,334.68,182.28,334.68z M130.32,332.3c-0.12,0-0.23-0.03-0.34-0.09l-3.57-2.06
				c-0.33-0.19-0.44-0.61-0.25-0.94c0.19-0.33,0.61-0.44,0.94-0.25l3.57,2.06c0.33,0.19,0.44,0.61,0.25,0.94
				C130.79,332.18,130.56,332.3,130.32,332.3z M175.14,330.56c-0.12,0-0.23-0.03-0.34-0.09l-3.57-2.06
				c-0.33-0.19-0.44-0.61-0.25-0.94c0.19-0.33,0.61-0.44,0.94-0.25l3.57,2.06c0.33,0.19,0.44,0.61,0.25,0.94
				C175.61,330.44,175.38,330.56,175.14,330.56z M123.19,328.18c-0.12,0-0.23-0.03-0.34-0.09l-3.57-2.06
				c-0.33-0.19-0.44-0.61-0.25-0.94c0.19-0.33,0.61-0.44,0.94-0.25l3.57,2.06c0.33,0.19,0.44,0.61,0.25,0.94
				C123.66,328.06,123.42,328.18,123.19,328.18z M168,326.45c-0.12,0-0.23-0.03-0.34-0.09l-3.57-2.06
				c-0.33-0.19-0.44-0.61-0.25-0.94c0.19-0.33,0.61-0.44,0.94-0.25l3.57,2.06c0.33,0.19,0.44,0.61,0.25,0.94
				C168.47,326.32,168.24,326.45,168,326.45z M116.05,324.06c-0.12,0-0.23-0.03-0.34-0.09l-3.57-2.06
				c-0.33-0.19-0.44-0.61-0.25-0.94c0.19-0.33,0.61-0.44,0.94-0.25l3.57,2.06c0.33,0.19,0.44,0.61,0.25,0.94
				C116.52,323.94,116.29,324.06,116.05,324.06z M160.87,322.33c-0.12,0-0.23-0.03-0.34-0.09l-3.57-2.06
				c-0.33-0.19-0.44-0.61-0.25-0.94c0.19-0.33,0.61-0.44,0.94-0.25l3.57,2.06c0.33,0.19,0.44,0.61,0.25,0.94
				C161.34,322.2,161.11,322.33,160.87,322.33z M108.92,319.94c-0.12,0-0.23-0.03-0.34-0.09l-3.57-2.06
				c-0.33-0.19-0.44-0.61-0.25-0.94c0.19-0.33,0.61-0.44,0.94-0.25l3.57,2.06c0.33,0.19,0.44,0.61,0.25,0.94
				C109.38,319.82,109.15,319.94,108.92,319.94z M153.73,318.21c-0.12,0-0.23-0.03-0.34-0.09l-3.57-2.06
				c-0.33-0.19-0.44-0.61-0.25-0.94c0.19-0.33,0.61-0.44,0.94-0.25l3.57,2.06c0.33,0.19,0.44,0.61,0.25,0.94
				C154.2,318.08,153.97,318.21,153.73,318.21z M101.78,315.82c-0.12,0-0.23-0.03-0.34-0.09l-3.57-2.06
				c-0.33-0.19-0.44-0.61-0.25-0.94c0.19-0.33,0.61-0.44,0.94-0.25l3.57,2.06c0.33,0.19,0.44,0.61,0.25,0.94
				C102.25,315.7,102.02,315.82,101.78,315.82z M146.59,314.09c-0.12,0-0.23-0.03-0.34-0.09l-3.57-2.06
				c-0.33-0.19-0.44-0.61-0.25-0.94c0.19-0.33,0.61-0.44,0.94-0.25l3.57,2.06c0.33,0.19,0.44,0.61,0.25,0.94
				C147.06,313.96,146.83,314.09,146.59,314.09z M94.64,311.71c-0.12,0-0.23-0.03-0.34-0.09l-3.57-2.06
				c-0.33-0.19-0.44-0.61-0.25-0.94c0.19-0.33,0.61-0.44,0.94-0.25l3.57,2.06c0.33,0.19,0.44,0.61,0.25,0.94
				C95.11,311.58,94.88,311.71,94.64,311.71z M139.46,309.97c-0.12,0-0.23-0.03-0.34-0.09l-3.57-2.06
				c-0.33-0.19-0.44-0.61-0.25-0.94c0.19-0.33,0.61-0.44,0.94-0.25l3.57,2.06c0.33,0.19,0.44,0.61,0.25,0.94
				C139.93,309.85,139.69,309.97,139.46,309.97z M87.51,307.59c-0.12,0-0.23-0.03-0.34-0.09l-3.57-2.06
				c-0.33-0.19-0.44-0.61-0.25-0.94c0.19-0.33,0.61-0.44,0.94-0.25l3.57,2.06c0.33,0.19,0.44,0.61,0.25,0.94
				C87.98,307.46,87.74,307.59,87.51,307.59z M132.32,305.85c-0.12,0-0.23-0.03-0.34-0.09l-3.57-2.06
				c-0.33-0.19-0.44-0.61-0.25-0.94c0.19-0.33,0.61-0.44,0.94-0.25l3.57,2.06c0.33,0.19,0.44,0.61,0.25,0.94
				C132.79,305.73,132.56,305.85,132.32,305.85z M80.37,303.47c-0.12,0-0.23-0.03-0.34-0.09l-3.57-2.06
				c-0.33-0.19-0.44-0.61-0.25-0.94c0.19-0.33,0.61-0.44,0.94-0.25l3.57,2.06c0.33,0.19,0.44,0.61,0.25,0.94
				C80.84,303.34,80.61,303.47,80.37,303.47z M125.19,301.73c-0.12,0-0.23-0.03-0.34-0.09l-3.57-2.06
				c-0.33-0.19-0.44-0.61-0.25-0.94c0.19-0.33,0.61-0.44,0.94-0.25l3.57,2.06c0.33,0.19,0.44,0.61,0.25,0.94
				C125.65,301.61,125.42,301.73,125.19,301.73z M73.24,299.35c-0.12,0-0.23-0.03-0.34-0.09l-3.57-2.06
				c-0.33-0.19-0.44-0.61-0.25-0.94c0.19-0.33,0.61-0.44,0.94-0.25l3.57,2.06c0.33,0.19,0.44,0.61,0.25,0.94
				C73.7,299.22,73.47,299.35,73.24,299.35z M118.05,297.61c-0.12,0-0.23-0.03-0.34-0.09l-3.57-2.06c-0.33-0.19-0.44-0.61-0.25-0.94
				c0.19-0.33,0.61-0.44,0.94-0.25l3.57,2.06c0.33,0.19,0.44,0.61,0.25,0.94C118.52,297.49,118.29,297.61,118.05,297.61z
				 M66.1,295.23c-0.12,0-0.23-0.03-0.34-0.09l-0.82-0.47c-0.21-0.12-0.34-0.35-0.34-0.6c0-0.25,0.13-0.47,0.35-0.6l2.76-1.58
				c0.32-0.18,0.75-0.08,0.94,0.26c0.19,0.33,0.07,0.75-0.26,0.94l-1.76,1.01c0.18,0.22,0.22,0.53,0.07,0.79
				C66.57,295.11,66.34,295.23,66.1,295.23z M110.91,293.49c-0.12,0-0.23-0.03-0.34-0.09l-3.57-2.06c-0.33-0.19-0.44-0.61-0.25-0.94
				c0.19-0.33,0.61-0.44,0.94-0.25l3.57,2.06c0.33,0.19,0.44,0.61,0.25,0.94C111.38,293.37,111.15,293.49,110.91,293.49z
				 M71.62,291.14c-0.24,0-0.47-0.12-0.6-0.35c-0.19-0.33-0.07-0.75,0.26-0.94l3.58-2.04c0.33-0.18,0.75-0.07,0.94,0.26
				c0.19,0.33,0.07,0.75-0.26,0.94l-3.58,2.04C71.85,291.11,71.74,291.14,71.62,291.14z M103.78,289.37c-0.12,0-0.23-0.03-0.34-0.09
				l-3.57-2.06c-0.33-0.19-0.44-0.61-0.25-0.94c0.19-0.33,0.61-0.44,0.94-0.25l3.57,2.06c0.33,0.19,0.44,0.61,0.25,0.94
				C104.25,289.25,104.01,289.37,103.78,289.37z M78.78,287.05c-0.24,0-0.47-0.12-0.6-0.35c-0.19-0.33-0.08-0.75,0.25-0.94
				l3.58-2.05c0.32-0.19,0.75-0.08,0.94,0.25c0.19,0.33,0.08,0.75-0.25,0.94l-3.58,2.05C79.01,287.02,78.89,287.05,78.78,287.05z
				 M96.64,285.25c-0.12,0-0.23-0.03-0.34-0.09l-3.57-2.06c-0.33-0.19-0.44-0.61-0.25-0.94c0.19-0.33,0.61-0.44,0.94-0.25l3.57,2.06
				c0.33,0.19,0.44,0.61,0.25,0.94C97.11,285.13,96.88,285.25,96.64,285.25z M85.93,282.96c-0.24,0-0.47-0.12-0.6-0.35
				c-0.19-0.33-0.07-0.75,0.26-0.94l3.39-1.94c0.21-0.12,0.47-0.12,0.68,0l0.19,0.11c0.33,0.19,0.44,0.61,0.25,0.94
				c-0.16,0.27-0.47,0.39-0.76,0.33l-3.07,1.76C86.16,282.93,86.05,282.96,85.93,282.96z"/>
		</g>
		<g>
			<path class="st15" d="M166.41,317.19c-0.12,0-0.24-0.03-0.34-0.09l-3.57-2.06c-0.33-0.19-0.44-0.61-0.25-0.94
				c0.19-0.33,0.61-0.44,0.94-0.25l3.22,1.86l1.65-0.95c0.33-0.19,0.75-0.08,0.94,0.25c0.19,0.33,0.08,0.75-0.25,0.94l-1.99,1.15
				C166.65,317.16,166.53,317.19,166.41,317.19z M171.98,313.98c-0.24,0-0.47-0.12-0.59-0.34c-0.19-0.33-0.08-0.75,0.25-0.94
				l3.57-2.06c0.33-0.19,0.75-0.08,0.94,0.25c0.19,0.33,0.08,0.75-0.25,0.94l-3.57,2.06C172.21,313.95,172.09,313.98,171.98,313.98z
				 M159.28,313.07c-0.12,0-0.23-0.03-0.34-0.09l-3.57-2.06c-0.33-0.19-0.44-0.61-0.25-0.94c0.19-0.33,0.61-0.44,0.94-0.25
				l3.57,2.06c0.33,0.19,0.44,0.61,0.25,0.94C159.74,312.95,159.51,313.07,159.28,313.07z M179.11,309.86
				c-0.24,0-0.47-0.12-0.59-0.34c-0.19-0.33-0.08-0.75,0.25-0.94l3.57-2.06c0.33-0.19,0.75-0.08,0.94,0.25
				c0.19,0.33,0.08,0.75-0.25,0.94l-3.57,2.06C179.34,309.83,179.23,309.86,179.11,309.86z M152.14,308.95
				c-0.12,0-0.23-0.03-0.34-0.09l-3.57-2.06c-0.33-0.19-0.44-0.61-0.25-0.94c0.19-0.33,0.61-0.44,0.94-0.25l3.57,2.06
				c0.33,0.19,0.44,0.61,0.25,0.94C152.61,308.83,152.38,308.95,152.14,308.95z M186.25,305.74c-0.24,0-0.47-0.12-0.59-0.34
				c-0.19-0.33-0.08-0.75,0.25-0.94l3.57-2.06c0.33-0.19,0.75-0.08,0.94,0.25c0.19,0.33,0.08,0.75-0.25,0.94l-3.57,2.06
				C186.48,305.71,186.36,305.74,186.25,305.74z M145,304.83c-0.12,0-0.23-0.03-0.34-0.09l-3.57-2.06
				c-0.33-0.19-0.44-0.61-0.25-0.94c0.19-0.33,0.61-0.44,0.94-0.25l3.57,2.06c0.33,0.19,0.44,0.61,0.25,0.94
				C145.47,304.71,145.24,304.83,145,304.83z M193.38,301.62c-0.24,0-0.47-0.12-0.59-0.34c-0.19-0.33-0.08-0.75,0.25-0.94l3.57-2.06
				c0.33-0.19,0.75-0.08,0.94,0.25c0.19,0.33,0.08,0.75-0.25,0.94l-3.57,2.06C193.62,301.59,193.5,301.62,193.38,301.62z
				 M137.87,300.71c-0.12,0-0.23-0.03-0.34-0.09l-2.38-1.37c-0.21-0.12-0.34-0.35-0.34-0.59c0-0.25,0.13-0.47,0.34-0.59l1.19-0.69
				c0.33-0.19,0.75-0.08,0.94,0.25c0.19,0.33,0.08,0.75-0.25,0.94l-0.16,0.09l1.35,0.78c0.33,0.19,0.44,0.61,0.25,0.94
				C138.34,300.59,138.11,300.71,137.87,300.71z M193.77,297.5c-0.12,0-0.23-0.03-0.34-0.09l-3.57-2.06
				c-0.33-0.19-0.44-0.61-0.25-0.94c0.19-0.33,0.61-0.44,0.94-0.25l3.57,2.06c0.33,0.19,0.44,0.61,0.25,0.94
				C194.23,297.38,194,297.5,193.77,297.5z M140.25,296.59c-0.24,0-0.47-0.12-0.59-0.34c-0.19-0.33-0.08-0.75,0.25-0.94l3.57-2.06
				c0.33-0.19,0.75-0.08,0.94,0.25c0.19,0.33,0.08,0.75-0.25,0.94l-3.57,2.06C140.48,296.56,140.36,296.59,140.25,296.59z
				 M186.63,293.38c-0.12,0-0.23-0.03-0.34-0.09l-3.57-2.06c-0.33-0.19-0.44-0.61-0.25-0.94c0.19-0.33,0.61-0.44,0.94-0.25
				l3.57,2.06c0.33,0.19,0.44,0.61,0.25,0.94C187.1,293.26,186.87,293.38,186.63,293.38z M147.38,292.47
				c-0.24,0-0.47-0.12-0.59-0.34c-0.19-0.33-0.08-0.75,0.25-0.94l3.57-2.06c0.33-0.19,0.75-0.08,0.94,0.25
				c0.19,0.33,0.08,0.75-0.25,0.94l-3.57,2.06C147.62,292.44,147.5,292.47,147.38,292.47z M179.49,289.26
				c-0.12,0-0.23-0.03-0.34-0.09l-3.57-2.06c-0.33-0.19-0.44-0.61-0.25-0.94c0.19-0.33,0.61-0.44,0.94-0.25l3.57,2.06
				c0.33,0.19,0.44,0.61,0.25,0.94C179.96,289.14,179.73,289.26,179.49,289.26z M154.52,288.35c-0.24,0-0.47-0.12-0.59-0.34
				c-0.19-0.33-0.08-0.75,0.25-0.94l3.57-2.06c0.33-0.19,0.75-0.08,0.94,0.25c0.19,0.33,0.08,0.75-0.25,0.94l-3.57,2.06
				C154.75,288.32,154.64,288.35,154.52,288.35z M172.36,285.14c-0.12,0-0.23-0.03-0.34-0.09l-3.57-2.06
				c-0.33-0.19-0.44-0.61-0.25-0.94c0.19-0.33,0.61-0.44,0.94-0.25l3.57,2.06c0.33,0.19,0.44,0.61,0.25,0.94
				C172.83,285.02,172.59,285.14,172.36,285.14z M161.66,284.23c-0.24,0-0.47-0.12-0.59-0.34c-0.19-0.33-0.08-0.75,0.25-0.94
				l3.57-2.06c0.33-0.19,0.75-0.08,0.94,0.25c0.19,0.33,0.08,0.75-0.25,0.94l-3.57,2.06C161.89,284.2,161.77,284.23,161.66,284.23z"
				/>
		</g>
		<g>
			<path class="st15" d="M204.41,339.16c-0.12,0-0.24-0.03-0.34-0.09l-3.57-2.06c-0.33-0.19-0.44-0.61-0.25-0.94
				c0.19-0.33,0.61-0.44,0.94-0.25l3.22,1.86l1.65-0.95c0.33-0.19,0.75-0.08,0.94,0.25c0.19,0.33,0.08,0.75-0.25,0.94l-1.99,1.15
				C204.64,339.13,204.52,339.16,204.41,339.16z M209.97,335.95c-0.24,0-0.47-0.12-0.59-0.34c-0.19-0.33-0.08-0.75,0.25-0.94
				l3.57-2.06c0.33-0.19,0.75-0.08,0.94,0.25c0.19,0.33,0.08,0.75-0.25,0.94l-3.57,2.06C210.2,335.92,210.08,335.95,209.97,335.95z
				 M197.27,335.04c-0.12,0-0.23-0.03-0.34-0.09l-3.57-2.06c-0.33-0.19-0.44-0.61-0.25-0.94c0.19-0.33,0.61-0.44,0.94-0.25
				l3.57,2.06c0.33,0.19,0.44,0.61,0.25,0.94C197.74,334.92,197.51,335.04,197.27,335.04z M217.1,331.83
				c-0.24,0-0.47-0.12-0.59-0.34c-0.19-0.33-0.08-0.75,0.25-0.94l3.57-2.06c0.33-0.19,0.75-0.08,0.94,0.25
				c0.19,0.33,0.08,0.75-0.25,0.94l-3.57,2.06C217.34,331.8,217.22,331.83,217.1,331.83z M190.13,330.92
				c-0.12,0-0.23-0.03-0.34-0.09l-3.57-2.06c-0.33-0.19-0.44-0.61-0.25-0.94c0.19-0.33,0.61-0.44,0.94-0.25l3.57,2.06
				c0.33,0.19,0.44,0.61,0.25,0.94C190.6,330.8,190.37,330.92,190.13,330.92z M224.24,327.71c-0.24,0-0.47-0.12-0.59-0.34
				c-0.19-0.33-0.08-0.75,0.25-0.94l3.57-2.06c0.33-0.19,0.75-0.08,0.94,0.25c0.19,0.33,0.08,0.75-0.25,0.94l-3.57,2.06
				C224.47,327.68,224.36,327.71,224.24,327.71z M183,326.8c-0.12,0-0.23-0.03-0.34-0.09l-3.57-2.06c-0.33-0.19-0.44-0.61-0.25-0.94
				c0.19-0.33,0.61-0.44,0.94-0.25l3.57,2.06c0.33,0.19,0.44,0.61,0.25,0.94C183.47,326.68,183.24,326.8,183,326.8z M231.38,323.59
				c-0.24,0-0.47-0.12-0.59-0.34c-0.19-0.33-0.08-0.75,0.25-0.94l3.57-2.06c0.33-0.19,0.75-0.08,0.94,0.25
				c0.19,0.33,0.08,0.75-0.25,0.94l-3.57,2.06C231.61,323.56,231.49,323.59,231.38,323.59z M175.86,322.68
				c-0.12,0-0.23-0.03-0.34-0.09l-2.38-1.37c-0.21-0.12-0.34-0.35-0.34-0.59c0-0.25,0.13-0.47,0.34-0.59l1.19-0.69
				c0.33-0.19,0.75-0.08,0.94,0.25c0.19,0.33,0.08,0.75-0.25,0.94l-0.16,0.09l1.35,0.78c0.33,0.19,0.44,0.61,0.25,0.94
				C176.33,322.56,176.1,322.68,175.86,322.68z M231.76,319.47c-0.12,0-0.23-0.03-0.34-0.09l-3.57-2.06
				c-0.33-0.19-0.44-0.61-0.25-0.94c0.19-0.33,0.61-0.44,0.94-0.25l3.57,2.06c0.33,0.19,0.44,0.61,0.25,0.94
				C232.23,319.35,232,319.47,231.76,319.47z M178.24,318.56c-0.24,0-0.47-0.12-0.59-0.34c-0.19-0.33-0.08-0.75,0.25-0.94l3.57-2.06
				c0.33-0.19,0.75-0.08,0.94,0.25c0.19,0.33,0.08,0.75-0.25,0.94l-3.57,2.06C178.48,318.54,178.36,318.56,178.24,318.56z
				 M224.63,315.35c-0.12,0-0.23-0.03-0.34-0.09l-3.57-2.06c-0.33-0.19-0.44-0.61-0.25-0.94c0.19-0.33,0.61-0.44,0.94-0.25
				l3.57,2.06c0.33,0.19,0.44,0.61,0.25,0.94C225.09,315.23,224.86,315.35,224.63,315.35z M185.38,314.44
				c-0.24,0-0.47-0.12-0.59-0.34c-0.19-0.33-0.08-0.75,0.25-0.94l3.57-2.06c0.33-0.19,0.75-0.08,0.94,0.25
				c0.19,0.33,0.08,0.75-0.25,0.94l-3.57,2.06C185.61,314.42,185.49,314.44,185.38,314.44z M217.49,311.23
				c-0.12,0-0.23-0.03-0.34-0.09l-3.57-2.06c-0.33-0.19-0.44-0.61-0.25-0.94c0.19-0.33,0.61-0.44,0.94-0.25l3.57,2.06
				c0.33,0.19,0.44,0.61,0.25,0.94C217.96,311.11,217.73,311.23,217.49,311.23z M192.51,310.32c-0.24,0-0.47-0.12-0.59-0.34
				c-0.19-0.33-0.08-0.75,0.25-0.94l3.57-2.06c0.33-0.19,0.75-0.08,0.94,0.25c0.19,0.33,0.08,0.75-0.25,0.94l-3.57,2.06
				C192.75,310.3,192.63,310.32,192.51,310.32z M210.35,307.11c-0.12,0-0.23-0.03-0.34-0.09l-3.57-2.06
				c-0.33-0.19-0.44-0.61-0.25-0.94c0.19-0.33,0.61-0.44,0.94-0.25l3.57,2.06c0.33,0.19,0.44,0.61,0.25,0.94
				C210.82,306.99,210.59,307.11,210.35,307.11z M199.65,306.21c-0.24,0-0.47-0.12-0.59-0.34c-0.19-0.33-0.08-0.75,0.25-0.94
				l3.57-2.06c0.33-0.19,0.75-0.08,0.94,0.25c0.19,0.33,0.08,0.75-0.25,0.94l-3.57,2.06C199.88,306.18,199.77,306.21,199.65,306.21z
				"/>
		</g>
		<g>
			<linearGradient id="SVGID_18_" gradientUnits="userSpaceOnUse" x1="260.0869" y1="181.3711" x2="328.7513" y2="218.7932">
				<stop  offset="0.0354" style="stop-color:#FFA98C"/>
				<stop  offset="0.3169" style="stop-color:#FFB892"/>
				<stop  offset="0.8601" style="stop-color:#FEE1A3"/>
				<stop  offset="1" style="stop-color:#FEECA8"/>
			</linearGradient>
			<path class="st22" d="M268.44,190.15l-2.91,0.08c-0.25,0.01-0.54-0.41-0.5-0.7l0.55-3.39c0.02-0.12-0.02-0.27-0.1-0.4l-2.35-3.99
				c-0.2-0.34-0.09-0.67,0.19-0.56l3.25,1.33c0.11,0.05,0.21,0.02,0.26-0.07l1.45-2.54c0.13-0.22,0.49-0.01,0.61,0.35l1.45,4.22
				c0.05,0.14,0.15,0.28,0.26,0.36l3.25,2.42c0.28,0.21,0.39,0.67,0.19,0.78l-2.35,1.27c-0.08,0.04-0.12,0.15-0.1,0.29l0.55,4.03
				c0.05,0.35-0.24,0.42-0.5,0.13l-2.91-3.43C268.66,190.22,268.54,190.15,268.44,190.15z"/>
			<linearGradient id="SVGID_19_" gradientUnits="userSpaceOnUse" x1="259.9448" y1="181.6319" x2="328.6092" y2="219.0539">
				<stop  offset="0.0354" style="stop-color:#FFA98C"/>
				<stop  offset="0.3169" style="stop-color:#FFB892"/>
				<stop  offset="0.8601" style="stop-color:#FEE1A3"/>
				<stop  offset="1" style="stop-color:#FEECA8"/>
			</linearGradient>
			<path class="st23" d="M279.83,196.69l-2.91,0.08c-0.25,0.01-0.54-0.41-0.5-0.7l0.55-3.39c0.02-0.12-0.02-0.27-0.1-0.4l-2.35-3.99
				c-0.2-0.34-0.09-0.67,0.19-0.56l3.25,1.33c0.11,0.05,0.21,0.02,0.26-0.07l1.45-2.54c0.13-0.22,0.49-0.01,0.61,0.35l1.45,4.22
				c0.05,0.14,0.15,0.28,0.26,0.36l3.25,2.42c0.28,0.21,0.39,0.67,0.19,0.78l-2.35,1.27c-0.08,0.04-0.12,0.15-0.1,0.29l0.55,4.03
				c0.05,0.35-0.24,0.42-0.5,0.13l-2.91-3.43C280.04,196.76,279.93,196.69,279.83,196.69z"/>
			<linearGradient id="SVGID_20_" gradientUnits="userSpaceOnUse" x1="259.8026" y1="181.8925" x2="328.4671" y2="219.3147">
				<stop  offset="0.0354" style="stop-color:#FFA98C"/>
				<stop  offset="0.3169" style="stop-color:#FFB892"/>
				<stop  offset="0.8601" style="stop-color:#FEE1A3"/>
				<stop  offset="1" style="stop-color:#FEECA8"/>
			</linearGradient>
			<path class="st24" d="M291.21,203.24l-2.91,0.08c-0.25,0.01-0.54-0.41-0.5-0.7l0.55-3.39c0.02-0.12-0.02-0.27-0.1-0.4l-2.35-3.99
				c-0.2-0.34-0.09-0.67,0.19-0.56l3.25,1.33c0.11,0.05,0.21,0.02,0.26-0.07l1.45-2.54c0.13-0.22,0.49-0.01,0.61,0.35l1.45,4.22
				c0.05,0.14,0.15,0.28,0.26,0.36l3.25,2.42c0.28,0.21,0.39,0.67,0.19,0.78l-2.35,1.27c-0.08,0.04-0.12,0.15-0.1,0.29l0.55,4.03
				c0.05,0.35-0.24,0.42-0.5,0.13l-2.91-3.43C291.43,203.3,291.31,203.23,291.21,203.24z"/>
			<linearGradient id="SVGID_21_" gradientUnits="userSpaceOnUse" x1="259.6613" y1="182.1537" x2="328.3254" y2="219.5756">
				<stop  offset="0.0354" style="stop-color:#FFA98C"/>
				<stop  offset="0.3169" style="stop-color:#FFB892"/>
				<stop  offset="0.8601" style="stop-color:#FEE1A3"/>
				<stop  offset="1" style="stop-color:#FEECA8"/>
			</linearGradient>
			<path class="st25" d="M302.59,209.78l-2.91,0.08c-0.25,0.01-0.54-0.41-0.5-0.7l0.55-3.39c0.02-0.12-0.02-0.27-0.1-0.4l-2.35-3.99
				c-0.2-0.34-0.09-0.67,0.19-0.56l3.25,1.33c0.11,0.05,0.21,0.02,0.26-0.07l1.45-2.54c0.13-0.22,0.49-0.01,0.61,0.35l1.45,4.22
				c0.05,0.14,0.15,0.28,0.26,0.36l3.25,2.42c0.28,0.21,0.39,0.67,0.19,0.78l-2.35,1.27c-0.08,0.04-0.12,0.15-0.1,0.29l0.55,4.03
				c0.05,0.35-0.24,0.42-0.5,0.13l-2.91-3.43C302.81,209.84,302.69,209.77,302.59,209.78z"/>
			<linearGradient id="SVGID_22_" gradientUnits="userSpaceOnUse" x1="259.5184" y1="182.4139" x2="328.1828" y2="219.8361">
				<stop  offset="0.0354" style="stop-color:#FFA98C"/>
				<stop  offset="0.3169" style="stop-color:#FFB892"/>
				<stop  offset="0.8601" style="stop-color:#FEE1A3"/>
				<stop  offset="1" style="stop-color:#FEECA8"/>
			</linearGradient>
			<path class="st26" d="M313.97,216.32l-2.91,0.08c-0.25,0.01-0.54-0.41-0.5-0.7l0.55-3.39c0.02-0.12-0.02-0.27-0.1-0.4l-2.35-3.99
				c-0.2-0.34-0.09-0.67,0.19-0.56l3.25,1.33c0.11,0.05,0.21,0.02,0.26-0.07l1.45-2.54c0.13-0.22,0.49-0.01,0.61,0.35l1.45,4.22
				c0.05,0.14,0.15,0.28,0.26,0.36l3.25,2.42c0.28,0.21,0.39,0.67,0.19,0.78l-2.35,1.27c-0.08,0.04-0.12,0.15-0.1,0.29l0.55,4.03
				c0.05,0.35-0.24,0.42-0.5,0.13l-2.91-3.43C314.19,216.38,314.07,216.32,313.97,216.32z"/>
		</g>
		<path class="st15" d="M239.68,235.59l18.95,2.29l-8.79-17.58C247.2,225.48,243.86,230.54,239.68,235.59z"/>
		
			<linearGradient id="SVGID_23_" gradientUnits="userSpaceOnUse" x1="-2414.7253" y1="2469.2473" x2="-2289.2771" y2="2469.2473" gradientTransform="matrix(0.866 0.5 -1 0.5774 4712.7749 25.0914)">
			<stop  offset="0.0101" style="stop-color:#9F19AB"/>
			<stop  offset="0.4293" style="stop-color:#5F27BD"/>
			<stop  offset="0.904" style="stop-color:#3D065F"/>
		</linearGradient>
		<path class="st27" d="M189.02,283.7l3.45-1.99l-6.94-4.01l-3.45,1.99L189.02,283.7z M217.97,287.89l-38.94-22.48l-3.45,1.99
			l38.94,22.48L217.97,287.89z M204.56,275.59l3.45-1.99l-12.4-7.16l-3.45,1.99L204.56,275.59z M223.59,274.06l-27.9-16.11
			l-3.45,1.99l27.9,16.11L223.59,274.06z M151.2,261.86l27.9,16.11l3.45-1.99l-27.9-16.11L151.2,261.86z M161.27,250.6l27.9,16.11
			l3.45-1.99l-27.9-16.11L161.27,250.6z M245.13,303.57l-24.18-13.96l-3.45,1.99l24.18,13.96L245.13,303.57z M259.01,285.97
			l-38.94-22.48l-3.45,1.99l38.94,22.48L259.01,285.97z M217.09,261.77l-27.9-16.11l-3.45,1.99l27.9,16.11L217.09,261.77z
			 M226.56,275.77l-3.45,1.99l6.94,4.01l3.45-1.99L226.56,275.77z M226.33,301.26l-30.88-17.83l-3.45,1.99l30.88,17.83
			L226.33,301.26z M207.53,277.31l23.56,13.6l3.45-1.99l-23.56-13.6L207.53,277.31z M234.07,292.63l25.22,14.56l3.45-1.99
			l-25.22-14.56L234.07,292.63z M244.66,307.28l7.23,4.18l3.45-1.99l-7.23-4.18L244.66,307.28z M151.67,258.15l-12.36-7.14
			l-3.45,1.99l12.36,7.14L151.67,258.15z M261.98,287.69l-3.45,1.99l15.54,8.97l3.45-1.99L261.98,287.69z M267.36,299.33
			l-30.88-17.83l-3.45,1.99l30.88,17.83L267.36,299.33z M186.21,243.94l-17.32-10l-3.45,1.99l17.32,10L186.21,243.94z
			 M176.06,263.69l-29.35-16.95l-3.45,1.99l29.35,16.95L176.06,263.69z M161.75,246.89l-7.65-4.42l-3.45,1.99l7.65,4.42
			L161.75,246.89z M192.71,256.23l-31.21-18.02l-3.45,1.99l31.21,18.02L192.71,256.23z"/>
		<g>
			<path class="st15" d="M157.52,375.74c-0.12,0-0.24-0.03-0.35-0.09l-1.17-0.68c-0.33-0.19-0.44-0.61-0.25-0.94
				c0.19-0.33,0.61-0.44,0.94-0.25l0.83,0.48c1.11-0.64,2.11-1.29,3.06-1.98c0.3-0.22,0.73-0.16,0.96,0.15
				c0.22,0.31,0.16,0.73-0.15,0.96c-1.09,0.8-2.24,1.54-3.54,2.27C157.76,375.71,157.64,375.74,157.52,375.74z M152.79,372.98
				c-0.12,0-0.24-0.03-0.35-0.09l-3.56-2.08c-0.33-0.19-0.44-0.61-0.25-0.94c0.19-0.33,0.61-0.44,0.94-0.25l3.56,2.08
				c0.33,0.19,0.44,0.61,0.25,0.94C153.26,372.86,153.03,372.98,152.79,372.98z M164.07,370.8c-0.16,0-0.33-0.06-0.46-0.18
				c-0.28-0.25-0.3-0.69-0.05-0.97c0.88-0.97,1.78-2.14,2.55-3.16c0.23-0.3,0.66-0.36,0.96-0.13c0.3,0.23,0.36,0.66,0.13,0.96
				c-0.79,1.04-1.72,2.24-2.63,3.25C164.44,370.72,164.26,370.8,164.07,370.8z M145.68,368.83c-0.12,0-0.24-0.03-0.35-0.09
				l-3.56-2.08c-0.33-0.19-0.44-0.61-0.25-0.94c0.19-0.33,0.61-0.44,0.94-0.25l3.56,2.08c0.33,0.19,0.44,0.61,0.25,0.94
				C146.14,368.7,145.91,368.83,145.68,368.83z M138.56,364.67c-0.12,0-0.24-0.03-0.35-0.09l-3.56-2.08
				c-0.33-0.19-0.44-0.61-0.25-0.94c0.19-0.33,0.61-0.44,0.94-0.25l3.56,2.08c0.33,0.19,0.44,0.61,0.25,0.94
				C139.03,364.55,138.8,364.67,138.56,364.67z M169.09,364.3c-0.12,0-0.23-0.03-0.34-0.09l-3.58-2.04
				c-0.33-0.19-0.44-0.61-0.26-0.94c0.19-0.33,0.61-0.44,0.94-0.26l3.58,2.04c0.33,0.19,0.44,0.61,0.26,0.94
				C169.56,364.18,169.33,364.3,169.09,364.3z M131.45,360.52c-0.12,0-0.24-0.03-0.35-0.09l-3.56-2.08
				c-0.33-0.19-0.44-0.61-0.25-0.94c0.19-0.33,0.61-0.44,0.94-0.25l3.56,2.08c0.33,0.19,0.44,0.61,0.25,0.94
				C131.91,360.4,131.68,360.52,131.45,360.52z M161.93,360.22c-0.12,0-0.23-0.03-0.34-0.09l-3.58-2.04
				c-0.33-0.19-0.44-0.61-0.26-0.94c0.19-0.33,0.61-0.44,0.94-0.26l3.58,2.04c0.33,0.19,0.44,0.61,0.26,0.94
				C162.4,360.1,162.17,360.22,161.93,360.22z M124.33,356.36c-0.12,0-0.24-0.03-0.35-0.09l-3.56-2.08
				c-0.33-0.19-0.44-0.61-0.25-0.94c0.19-0.33,0.61-0.44,0.94-0.25l3.56,2.08c0.33,0.19,0.44,0.61,0.25,0.94
				C124.8,356.24,124.57,356.36,124.33,356.36z M154.78,356.14c-0.12,0-0.23-0.03-0.34-0.09l-3.58-2.04
				c-0.33-0.19-0.44-0.61-0.26-0.94c0.19-0.33,0.61-0.44,0.94-0.26l3.58,2.04c0.33,0.19,0.44,0.61,0.26,0.94
				C155.24,356.01,155.01,356.14,154.78,356.14z M117.21,352.21c-0.12,0-0.24-0.03-0.35-0.09l-3.56-2.08
				c-0.33-0.19-0.44-0.61-0.25-0.94c0.19-0.33,0.61-0.44,0.94-0.25l3.56,2.08c0.33,0.19,0.44,0.61,0.25,0.94
				C117.68,352.09,117.45,352.21,117.21,352.21z M147.62,352.05c-0.12,0-0.23-0.03-0.34-0.09l-3.58-2.04
				c-0.33-0.19-0.44-0.61-0.26-0.94c0.19-0.33,0.61-0.44,0.94-0.26l3.58,2.04c0.33,0.19,0.44,0.61,0.26,0.94
				C148.09,351.93,147.86,352.05,147.62,352.05z M110.1,348.06c-0.12,0-0.24-0.03-0.35-0.09l-3.56-2.08
				c-0.33-0.19-0.44-0.61-0.25-0.94c0.19-0.33,0.61-0.44,0.94-0.25l3.56,2.08c0.33,0.19,0.44,0.61,0.25,0.94
				C110.56,347.93,110.33,348.06,110.1,348.06z M140.46,347.97c-0.12,0-0.23-0.03-0.34-0.09l-3.58-2.04
				c-0.33-0.19-0.44-0.61-0.26-0.94c0.19-0.33,0.61-0.44,0.94-0.26l3.58,2.04c0.33,0.19,0.44,0.61,0.26,0.94
				C140.93,347.85,140.7,347.97,140.46,347.97z M102.98,343.9c-0.12,0-0.24-0.03-0.35-0.09l-3.16-1.85
				c-0.21-0.12-0.34-0.35-0.34-0.59c0-0.24,0.13-0.47,0.33-0.59l0.39-0.24c0.33-0.19,0.75-0.09,0.94,0.23
				c0.08,0.13,0.11,0.28,0.09,0.42l2.43,1.42c0.33,0.19,0.44,0.61,0.25,0.94C103.45,343.78,103.22,343.9,102.98,343.9z
				 M133.3,343.89c-0.12,0-0.23-0.03-0.34-0.09l-3.58-2.04c-0.33-0.19-0.44-0.61-0.26-0.94c0.19-0.33,0.61-0.44,0.94-0.26l3.58,2.04
				c0.33,0.19,0.44,0.61,0.26,0.94C133.77,343.76,133.54,343.89,133.3,343.89z M126.15,339.8c-0.12,0-0.23-0.03-0.34-0.09
				l-3.58-2.04c-0.33-0.19-0.44-0.61-0.26-0.94c0.19-0.33,0.61-0.44,0.94-0.26l3.58,2.04c0.33,0.19,0.44,0.61,0.26,0.94
				C126.62,339.68,126.39,339.8,126.15,339.8z M103.59,339.47c-0.2,0-0.4-0.09-0.54-0.26c-0.24-0.3-0.19-0.73,0.11-0.96
				c0.19-0.15,0.38-0.31,0.58-0.47c0.69-0.59,1.41-1.33,2.24-2.33c0.24-0.29,0.68-0.33,0.97-0.09c0.29,0.24,0.33,0.68,0.09,0.97
				c-0.88,1.06-1.65,1.85-2.4,2.5c-0.2,0.17-0.4,0.34-0.61,0.5C103.9,339.42,103.74,339.47,103.59,339.47z M118.99,335.72
				c-0.12,0-0.23-0.03-0.34-0.09l-3.58-2.04c-0.33-0.19-0.44-0.61-0.26-0.94c0.19-0.33,0.61-0.44,0.94-0.26l3.58,2.04
				c0.33,0.19,0.44,0.61,0.26,0.94C119.46,335.6,119.23,335.72,118.99,335.72z M109.03,333.32c-0.14,0-0.28-0.04-0.41-0.13
				c-0.31-0.22-0.37-0.65-0.15-0.96l0.41-0.56c0.45-0.6,0.87-1.17,1.31-1.75c0.21-0.28,0.59-0.35,0.89-0.18l1.09,0.62
				c0.33,0.19,0.44,0.61,0.26,0.94c-0.19,0.33-0.61,0.44-0.94,0.26l-0.56-0.32c-0.31,0.41-0.61,0.81-0.9,1.2l-0.45,0.61
				C109.45,333.22,109.24,333.32,109.03,333.32z"/>
		</g>
	</g>
</g>
</svg>
